<svg width="366" height="316" viewBox="0 0 366 316" fill="none" xmlns="http://www.w3.org/2000/svg">
<g clip-path="url(#clip0_14_482)">
<path d="M0 312.8C0 313.261 0.369741 313.631 0.830162 313.631H365.17C365.63 313.631 366 313.261 366 312.8C366 312.338 365.63 311.968 365.17 311.968H0.830162C0.369735 311.968 0 312.338 0 312.8Z" fill="#3F3C57"/>
<path d="M118.873 33.5829L122.835 51.696L114.408 76.9077L100.831 49.8198L102.714 34.1049L118.873 33.5829Z" fill="#FDB4B4"/>
<path d="M123.572 50.7578H100.128V79.1356H123.572V50.7578Z" fill="#005C29"/>
<path d="M113.931 42.7067C122.773 42.7067 129.941 35.5255 129.941 26.667C129.941 17.8085 122.773 10.6273 113.931 10.6273C105.089 10.6273 97.9211 17.8085 97.9211 26.667C97.9211 35.5255 105.089 42.7067 113.931 42.7067Z" fill="#FDB4B4"/>
<path d="M99.9951 38.5942C99.9951 38.5942 88.0612 16.5134 98.8211 5.88755C109.581 -4.73829 118.219 2.26348 118.219 2.26348L123.151 2.06377C123.151 2.06377 124.18 5.95261 125.838 3.84742C127.497 1.74222 130.494 9.40907 130.494 9.40907C136.058 19.4468 116.772 21.6954 116.772 21.6954C116.772 21.6954 118.165 26.1398 116.749 27.0706C115.334 28.0013 111.551 31.5026 111.551 31.5026L108.166 34.064L106.155 30.9933C106.155 30.9933 104.053 29.3315 102.992 30.0296C101.93 30.7276 103.39 39.9124 103.39 39.9124L99.9951 38.5942Z" fill="#2E2E41"/>
<path d="M80.7887 201.039L74.6676 292.514L89.7153 293.025L109.609 201.805L80.7887 201.039Z" fill="#2E2E41"/>
<path d="M117.26 200.528L111.139 292.003L126.187 292.514L146.08 201.294L117.26 200.528Z" fill="#2E2E41"/>
<path d="M77.1028 221.938L85.1134 122.309L72.8288 70.43C71.7697 62.7182 76.6198 55.4212 84.1054 53.4314L96.1261 50.2364L101.447 44.9059L113.548 71.6798L121.106 44.9263L127.001 49.2211L144.483 56.9482L144.475 57.1292L141.671 119.799L147.931 221.051L147.653 221.055L77.1028 221.938Z" fill="#E8E9EA"/>
<path d="M125.221 291.474L129.578 304.505C129.578 304.505 146.624 306.827 146.889 312.114C147.154 317.401 123.723 314.341 110.002 315.032C96.2813 315.722 107.703 300.837 107.703 300.837L109.165 292.283L125.221 291.474Z" fill="#2E2E41"/>
<path d="M89.6381 290.536L93.9952 303.567C93.9952 303.567 111.041 305.889 111.307 311.176C111.572 316.463 88.14 313.403 74.4194 314.093C60.6988 314.784 72.1202 299.898 72.1202 299.898L73.5823 291.344L89.6381 290.536Z" fill="#2E2E41"/>
<path d="M68.3804 169.026C68.1956 166.457 68.6279 163.881 69.641 161.513L66.3891 134.788L79.1275 133.61L81.0542 160.846C82.3344 163.079 83.0621 165.587 83.1766 168.159C83.5512 174.595 80.5426 180.003 76.4563 180.241C72.37 180.48 68.754 175.459 68.3804 169.026Z" fill="#FDB4B4"/>
<path d="M149.062 172.949C148.905 170.378 149.366 167.806 150.404 165.45L147.444 138.691L160.194 137.652L161.824 164.908C163.08 167.155 163.78 169.67 163.867 172.244C164.171 178.683 161.104 184.058 157.016 184.252C152.927 184.446 149.366 179.386 149.062 172.949Z" fill="#FDB4B4"/>
<path d="M66.3368 158.308L66.2937 158.078L59.6548 122.392L67.4993 64.2802C68.1993 59.092 72.8234 55.3548 78.0378 55.7724C80.761 55.9909 83.2042 57.2848 84.9181 59.4164C86.6317 61.5481 87.3732 64.2155 87.0058 66.9277L81.1018 110.51L84.819 157.126L66.3368 158.308Z" fill="#E8E9EA"/>
<path d="M145.128 157.471L131.78 68.2103C131.087 65.593 131.493 62.854 132.93 60.5264C134.367 58.1988 136.631 56.6118 139.307 56.0574C144.425 54.9968 149.48 58.1314 150.815 63.1923L163.638 156.35L145.128 157.471Z" fill="#E8E9EA"/>
<path d="M113.94 79.8392C114.845 79.8392 115.579 79.1042 115.579 78.1975C115.579 77.2908 114.845 76.5558 113.94 76.5558C113.035 76.5558 112.301 77.2908 112.301 78.1975C112.301 79.1042 113.035 79.8392 113.94 79.8392Z" fill="#D6D7D8"/>
<path d="M113.94 92.2692C114.845 92.2692 115.579 91.5342 115.579 90.6275C115.579 89.7209 114.845 88.9858 113.94 88.9858C113.035 88.9858 112.301 89.7209 112.301 90.6275C112.301 91.5342 113.035 92.2692 113.94 92.2692Z" fill="#D6D7D8"/>
<path d="M113.94 104.699C114.845 104.699 115.579 103.964 115.579 103.057C115.579 102.151 114.845 101.416 113.94 101.416C113.035 101.416 112.301 102.151 112.301 103.057C112.301 103.964 113.035 104.699 113.94 104.699Z" fill="#D6D7D8"/>
<path d="M113.94 117.129C114.845 117.129 115.579 116.394 115.579 115.487C115.579 114.581 114.845 113.846 113.94 113.846C113.035 113.846 112.301 114.581 112.301 115.487C112.301 116.394 113.035 117.129 113.94 117.129Z" fill="#D6D7D8"/>
<path d="M113.94 129.559C114.845 129.559 115.579 128.824 115.579 127.917C115.579 127.011 114.845 126.276 113.94 126.276C113.035 126.276 112.301 127.011 112.301 127.917C112.301 128.824 113.035 129.559 113.94 129.559Z" fill="#D6D7D8"/>
<path d="M113.94 141.989C114.845 141.989 115.579 141.254 115.579 140.347C115.579 139.441 114.845 138.706 113.94 138.706C113.035 138.706 112.301 139.441 112.301 140.347C112.301 141.254 113.035 141.989 113.94 141.989Z" fill="#D6D7D8"/>
<path d="M113.94 154.419C114.845 154.419 115.579 153.684 115.579 152.777C115.579 151.871 114.845 151.135 113.94 151.135C113.035 151.135 112.301 151.871 112.301 152.777C112.301 153.684 113.035 154.419 113.94 154.419Z" fill="#D6D7D8"/>
<path d="M113.94 166.849C114.845 166.849 115.579 166.114 115.579 165.207C115.579 164.301 114.845 163.566 113.94 163.566C113.035 163.566 112.301 164.301 112.301 165.207C112.301 166.114 113.035 166.849 113.94 166.849Z" fill="#D6D7D8"/>
<path d="M113.942 176.464L82.9363 172.325L82.3393 172.245L66.4931 135.64L57.0562 113.847H81.6365L113.942 176.464Z" fill="#005C29"/>
<path d="M238.257 37.5652L257.97 26.7462V57.6575H235.172L238.257 37.5652Z" fill="#2E2E41"/>
<path d="M262.196 44.4569L264.015 59.6325L250.904 85.7909L242.766 61.4443L246.592 43.9528L262.196 44.4569Z" fill="#FDB4B4"/>
<path d="M264.694 60.5383H242.055V87.9424H264.694V60.5383Z" fill="#005C29"/>
<path d="M283.369 205.663L289.281 293.999L274.749 294.492L255.538 206.403L283.369 205.663Z" fill="#2E2E41"/>
<path d="M248.149 205.169L254.061 293.505L239.529 293.999L220.318 205.909L248.149 205.169Z" fill="#2E2E41"/>
<path d="M298.722 224.398L298.376 224.397L205.804 224.094L205.887 223.766L229.687 129.296L223.725 81.6206C222.596 72.5867 227.423 64.0477 235.737 60.373L238.739 59.0465L244.441 54.892L251.736 80.716L263.417 54.8718L268.563 60.0266L280.169 63.1115C287.403 65.034 292.089 72.085 291.07 79.5125L291.057 79.5642L273.334 130.229L298.722 224.398Z" fill="#E8E9EA"/>
<path d="M240.462 292.995L255.967 293.775L257.379 302.036C257.379 302.036 268.409 316.411 255.159 315.744C241.909 315.077 219.281 318.032 219.537 312.927C219.794 307.821 236.255 305.579 236.255 305.579L240.462 292.995Z" fill="#2E2E41"/>
<path d="M274.824 292.089L290.329 292.87L291.741 301.13C291.741 301.13 302.77 315.505 289.52 314.838C276.27 314.171 253.643 317.126 253.899 312.021C254.155 306.915 270.616 304.673 270.616 304.673L274.824 292.089Z" fill="#2E2E41"/>
<path d="M289.022 173.843C288.661 180.055 285.17 184.904 281.223 184.673C277.277 184.442 274.372 179.22 274.734 173.006C274.844 170.521 275.547 168.1 276.783 165.943L278.644 139.641L290.945 140.779L287.805 166.587C288.783 168.874 289.201 171.362 289.022 173.843Z" fill="#FDB4B4"/>
<path d="M225.807 171.48C225.315 177.684 221.72 182.457 217.78 182.142C213.84 181.827 211.046 176.544 211.54 170.339C211.703 167.857 212.457 165.451 213.739 163.322L216.158 137.066L228.432 138.465L224.744 164.201C225.674 166.507 226.038 169.004 225.807 171.48Z" fill="#FDB4B4"/>
<path d="M291.003 163.502L273.138 162.36L273.159 162.092L276.728 117.335L271.027 75.2488C270.672 72.6274 271.389 70.0488 273.045 67.9885C274.701 65.928 277.063 64.6772 279.696 64.466C284.736 64.068 289.205 67.675 289.882 72.6897L297.457 128.808L297.45 128.85L291.003 163.502Z" fill="#E8E9EA"/>
<path d="M228.782 161.788L210.888 160.704L210.927 160.421L223.266 70.7637C224.564 65.8395 229.451 62.8107 234.397 63.8353C236.983 64.3711 239.172 65.9052 240.561 68.1552C241.95 70.4052 242.342 73.0525 241.666 75.6099L228.782 161.788Z" fill="#E8E9EA"/>
<path d="M251.356 88.6219C252.23 88.6219 252.938 87.9121 252.938 87.0365C252.938 86.161 252.23 85.4512 251.356 85.4512C250.482 85.4512 249.773 86.161 249.773 87.0365C249.773 87.9121 250.482 88.6219 251.356 88.6219Z" fill="#D6D7D8"/>
<path d="M251.356 100.625C252.23 100.625 252.938 99.9155 252.938 99.0399C252.938 98.1644 252.23 97.4546 251.356 97.4546C250.482 97.4546 249.773 98.1644 249.773 99.0399C249.773 99.9155 250.482 100.625 251.356 100.625Z" fill="#D6D7D8"/>
<path d="M251.356 112.629C252.23 112.629 252.938 111.919 252.938 111.043C252.938 110.168 252.23 109.458 251.356 109.458C250.482 109.458 249.773 110.168 249.773 111.043C249.773 111.919 250.482 112.629 251.356 112.629Z" fill="#D6D7D8"/>
<path d="M251.356 124.632C252.23 124.632 252.938 123.922 252.938 123.047C252.938 122.171 252.23 121.461 251.356 121.461C250.482 121.461 249.773 122.171 249.773 123.047C249.773 123.922 250.482 124.632 251.356 124.632Z" fill="#D6D7D8"/>
<path d="M251.356 136.636C252.23 136.636 252.938 135.926 252.938 135.05C252.938 134.175 252.23 133.465 251.356 133.465C250.482 133.465 249.773 134.175 249.773 135.05C249.773 135.926 250.482 136.636 251.356 136.636Z" fill="#D6D7D8"/>
<path d="M251.356 148.639C252.23 148.639 252.938 147.929 252.938 147.054C252.938 146.178 252.23 145.468 251.356 145.468C250.482 145.468 249.773 146.178 249.773 147.054C249.773 147.929 250.482 148.639 251.356 148.639Z" fill="#D6D7D8"/>
<path d="M251.356 160.643C252.23 160.643 252.938 159.933 252.938 159.057C252.938 158.182 252.23 157.472 251.356 157.472C250.482 157.472 249.773 158.182 249.773 159.057C249.773 159.933 250.482 160.643 251.356 160.643Z" fill="#D6D7D8"/>
<path d="M251.356 172.646C252.23 172.646 252.938 171.936 252.938 171.061C252.938 170.185 252.23 169.475 251.356 169.475C250.482 169.475 249.773 170.185 249.773 171.061C249.773 171.936 250.482 172.646 251.356 172.646Z" fill="#D6D7D8"/>
<path d="M253.758 52.2019C261.933 52.2019 268.56 45.5629 268.56 37.3732C268.56 29.1836 261.933 22.5446 253.758 22.5446C245.584 22.5446 238.957 29.1836 238.957 37.3732C238.957 45.5629 245.584 52.2019 253.758 52.2019Z" fill="#FDB4B4"/>
<path d="M261.515 20.0626C262.224 21.5077 261.099 23.3129 259.611 23.9205C258.122 24.5281 256.44 24.2819 254.853 24.029C253.265 23.7761 251.581 23.5363 250.097 24.1546C248.177 24.9547 247.094 26.9616 246.161 28.824C244.42 32.3008 242.679 35.7776 240.937 39.2544C240.086 40.9531 239.216 42.7282 239.2 44.6287C239.17 48.1172 241.932 50.9051 243.418 54.06C245.228 57.9013 245.078 62.6088 243.029 66.3273C240.98 70.0458 237.083 72.6805 232.875 73.193C231.767 73.3278 230.595 73.3132 229.6 72.8092C228.604 72.3051 227.844 71.2045 228.028 70.1023C228.389 67.9465 231.677 67.4428 232.281 65.3423C232.596 64.2458 232.038 63.0749 231.285 62.2184C230.533 61.362 229.581 60.6939 228.863 59.8081C227.208 57.7654 227.097 54.6121 228.606 52.4583C229.492 51.1926 230.864 50.2522 231.437 48.8164C231.925 47.5926 231.748 46.2169 231.563 44.912C231.325 43.2352 231.087 41.5584 230.85 39.8816C230.572 37.9253 230.299 35.8989 230.847 34.0007C232.103 29.651 237.006 27.6081 239.881 24.1142C241.217 22.4906 242.115 20.5379 243.486 18.9436C245.786 16.268 249.407 14.792 252.918 15.0988C256.43 15.4056 259.741 17.4874 261.544 20.5215" fill="#2E2E41"/>
<path d="M259.178 20.3368C258.455 20.5959 258.187 21.5395 258.395 22.2801C258.603 23.0207 259.148 23.6091 259.647 24.1941C265.29 30.8097 266.601 40.8166 262.855 48.6674C261.858 50.7556 260.53 52.7209 259.993 54.972C259.602 56.61 259.623 58.4067 258.716 59.8247C257.792 61.2684 255.963 62.2357 255.782 63.9407C255.665 65.0349 256.331 66.0977 257.224 66.7392C258.116 67.3807 259.206 67.6742 260.278 67.9136C263.064 68.5356 265.913 68.8752 268.768 68.9255C269.698 68.9419 270.659 68.9217 271.512 68.5502C272.366 68.1788 273.094 67.3732 273.104 66.4408C273.112 65.7081 272.69 65.0321 272.636 64.3012C272.475 62.1114 275.416 60.9464 275.989 58.8269C276.366 57.4335 275.624 55.9997 274.833 54.7928C274.042 53.586 273.14 52.3187 273.159 50.8752C273.178 49.4933 274.044 48.2763 274.38 46.9361C274.845 45.0822 274.274 43.143 273.707 41.3178C273.225 39.766 272.743 38.2142 272.26 36.6624C271.748 35.0128 271.236 33.3632 270.723 31.7136C269.829 28.8337 268.889 25.8704 266.953 23.5606C265.017 21.2508 261.81 19.7369 258.95 20.6799" fill="#2E2E41"/>
<path d="M269.264 77.7981L268.25 77.5019C270.363 70.2416 265.806 56.6929 265.76 56.5569L266.76 56.2152C266.954 56.7836 271.471 70.2199 269.264 77.7981Z" fill="#3F3C57"/>
<path d="M268.757 86.1374C271.195 86.1374 273.171 84.1575 273.171 81.7151C273.171 79.2728 271.195 77.2928 268.757 77.2928C266.319 77.2928 264.343 79.2728 264.343 81.7151C264.343 84.1575 266.319 86.1374 268.757 86.1374Z" fill="#3F3C57"/>
<path d="M239.753 97.3714H237.076C236.784 97.3714 236.548 97.1344 236.548 96.8421C236.548 96.5497 236.784 96.3127 237.076 96.3127H239.753C240.491 96.3127 241.184 96.0248 241.705 95.5016C242.226 94.9787 242.512 94.2837 242.511 93.545L242.478 77.0256C242.478 73.4369 239.565 70.5182 235.984 70.5182C232.403 70.5182 229.489 73.4369 229.489 77.0245L229.522 92.4868C229.525 93.9952 230.752 95.2318 232.258 95.2434L234.095 95.2574C234.387 95.2597 234.622 95.4983 234.62 95.7908C234.618 96.0816 234.381 96.3161 234.091 96.3161H234.087L232.25 96.3021C230.167 96.2861 228.469 94.5752 228.465 92.4888L228.432 77.0256C228.432 72.8532 231.82 69.4595 235.984 69.4595C240.147 69.4595 243.535 72.8532 243.535 77.0245L243.568 93.5429C243.57 94.5649 243.174 95.5262 242.453 96.2494C241.733 96.9729 240.773 97.3714 239.753 97.3714Z" fill="#3F3C57"/>
<path d="M234.091 97.663C235.126 97.663 235.964 96.823 235.964 95.7867C235.964 94.7505 235.126 93.9105 234.091 93.9105C233.057 93.9105 232.219 94.7505 232.219 95.7867C232.219 96.823 233.057 97.663 234.091 97.663Z" fill="#3F3C57"/>
<path d="M237.076 98.7184C238.11 98.7184 238.949 97.8784 238.949 96.8422C238.949 95.806 238.11 94.9659 237.076 94.9659C236.042 94.9659 235.203 95.806 235.203 96.8422C235.203 97.8784 236.042 98.7184 237.076 98.7184Z" fill="#3F3C57"/>
<path d="M128.963 69.8633L127.949 69.5671C130.062 62.3068 125.556 48.5482 125.51 48.4122L126.778 49.3699C126.972 49.9383 131.169 62.2851 128.963 69.8633Z" fill="#3F3C57"/>
<path d="M93.3024 71.1532L94.3169 70.857C92.2033 63.5967 96.7606 50.0479 96.8065 49.912L95.7214 50.6402C95.5279 51.2086 91.096 63.575 93.3024 71.1532Z" fill="#3F3C57"/>
<path d="M128.456 78.2026C130.894 78.2026 132.87 76.2227 132.87 73.7803C132.87 71.338 130.894 69.358 128.456 69.358C126.018 69.358 124.042 71.338 124.042 73.7803C124.042 76.2227 126.018 78.2026 128.456 78.2026Z" fill="#3F3C57"/>
<path d="M98.0084 98.3487H95.3314C95.0393 98.3487 94.803 98.1117 94.803 97.8194C94.803 97.527 95.0393 97.29 95.3314 97.29H98.0084C98.7463 97.29 99.4392 97.0021 99.9604 96.4789C100.481 95.956 100.767 95.261 100.766 94.5222L100.733 78.0029C100.733 74.4142 97.82 71.4955 94.239 71.4955C90.658 71.4955 87.7441 74.4142 87.7441 78.0018L87.7767 93.4641C87.7797 94.9725 89.0073 96.2091 90.513 96.2207L92.3505 96.2347C92.642 96.237 92.8768 96.4756 92.8747 96.7681C92.8726 97.0589 92.6363 97.2934 92.3463 97.2934H92.3422L90.5047 97.2794C88.4222 97.2634 86.724 95.5525 86.7199 93.4661L86.6874 78.0029C86.6874 73.8305 90.0749 70.4368 94.239 70.4368C98.4026 70.4368 101.79 73.8305 101.79 78.0018L101.823 94.5202C101.825 95.5422 101.429 96.5035 100.708 97.2267C99.9877 97.9502 99.0285 98.3487 98.0084 98.3487Z" fill="#3F3C57"/>
<path d="M92.3465 98.6401C93.3808 98.6401 94.2193 97.8001 94.2193 96.7639C94.2193 95.7277 93.3808 94.8877 92.3465 94.8877C91.3122 94.8877 90.4738 95.7277 90.4738 96.7639C90.4738 97.8001 91.3122 98.6401 92.3465 98.6401Z" fill="#3F3C57"/>
<path d="M95.3313 99.6956C96.3656 99.6956 97.204 98.8555 97.204 97.8193C97.204 96.7831 96.3656 95.9431 95.3313 95.9431C94.297 95.9431 93.4585 96.7831 93.4585 97.8193C93.4585 98.8555 94.297 99.6956 95.3313 99.6956Z" fill="#3F3C57"/>
</g>
<defs>
<clipPath id="clip0_14_482">
<rect width="366" height="316" fill="white"/>
</clipPath>
</defs>
</svg>
