<svg width="261" height="168" viewBox="0 0 261 168" fill="none" xmlns="http://www.w3.org/2000/svg">
<g clip-path="url(#clip0_11_390)">
<path d="M20.1224 135.188L18.2796 127.921C15.0121 126.537 11.6691 125.337 8.26658 124.329L8.0339 127.706L7.09042 123.986C2.87069 122.781 0 122.251 0 122.251C0 122.251 3.87763 136.993 12.0107 148.264L21.4875 149.928L14.1252 150.989C15.1487 152.22 16.2486 153.385 17.4185 154.478C29.2498 165.458 42.4276 170.495 46.852 165.73C51.2764 160.964 45.2719 148.2 33.4406 137.221C29.7728 133.817 25.1652 131.086 20.5531 128.936L20.1224 135.188Z" fill="#E6E6E6"/>
<path d="M37.6484 127.296L39.8279 120.123C37.7466 117.25 35.5048 114.495 33.1132 111.874L31.168 114.645L32.2839 110.972C29.2945 107.76 27.1114 105.823 27.1114 105.823C27.1114 105.823 22.8088 120.447 23.944 134.298L31.1961 140.62L24.345 137.724C24.5848 139.306 24.9238 140.873 25.3602 142.413C29.8117 157.926 38.4881 169.048 44.7394 167.255C50.9908 165.462 52.4498 151.433 47.9983 135.919C46.6182 131.11 44.0862 126.391 41.2494 122.167L37.6484 127.296Z" fill="#E6E6E6"/>
<path d="M240.609 142.752L244.741 140.155C244.944 137.855 245.017 135.546 244.96 133.237L242.821 133.77L244.937 132.44C244.837 129.587 244.591 127.703 244.591 127.703C244.591 127.703 236.237 133.057 230.886 140.349L231.754 146.549L229.622 142.204C229.064 143.085 228.563 143.999 228.12 144.942C223.69 154.466 223.21 163.633 227.048 165.417C230.885 167.202 237.588 160.928 242.018 151.404C243.391 148.451 244.16 145.052 244.568 141.766L240.609 142.752Z" fill="#E6E6E6"/>
<path d="M249.008 152.021L253.887 151.933C255.249 150.069 256.506 148.13 257.651 146.124L255.545 145.475L258.043 145.43C259.433 142.936 260.196 141.196 260.196 141.196C260.196 141.196 250.277 141.462 241.926 144.939L239.463 150.695L239.885 145.874C238.952 146.339 238.05 146.863 237.184 147.442C228.468 153.305 223.317 160.904 225.68 164.415C228.042 167.926 237.024 166.019 245.74 160.155C248.442 158.338 250.858 155.825 252.906 153.223L249.008 152.021Z" fill="#E6E6E6"/>
<path d="M260.604 167.235H0.594116V167.891H260.604V167.235Z" fill="#3F3D56"/>
<path d="M74.4093 18.0992L73.736 17.7615L71.9116 21.3969L72.5849 21.7347L74.4093 18.0992Z" fill="white"/>
<path d="M70.5291 109.073L70.306 109.099L70.4464 110.303L70.6695 110.277L70.5291 109.073Z" fill="#3F3D56"/>
<path d="M71.8609 119.702L71.7902 119.488L70.6391 119.87L70.7099 120.083L71.8609 119.702Z" fill="white"/>
<path d="M70.8176 113.458L70.5934 113.472L70.6662 114.682L70.8903 114.669L70.8176 113.458Z" fill="white"/>
<path d="M69.7695 106.822L69.5453 106.835L69.6181 108.045L69.8422 108.032L69.7695 106.822Z" fill="white"/>
<path d="M85.7888 111.772L85.7047 111.564L84.5802 112.018L84.6644 112.226L85.7888 111.772Z" fill="#FF6584"/>
<path d="M72.5317 111.418L72.3148 111.36L72.0009 112.531L72.2179 112.589L72.5317 111.418Z" fill="#FF6584"/>
<path d="M84.5902 20.6697H83.8822V24.4922H84.5902V20.6697Z" fill="#3F3D56"/>
<path d="M84.1654 29.872H83.4574V33.6945H84.1654V29.872Z" fill="white"/>
<path d="M83.6291 109.762L83.4799 109.612L82.6739 110.418L82.8232 110.567L83.6291 109.762Z" fill="white"/>
<path d="M85.7484 121.967L85.5991 121.818L84.7932 122.624L84.9425 122.773L85.7484 121.967Z" fill="white"/>
<path d="M84.0576 116.908L83.8538 116.853L83.5588 117.954L83.7626 118.009L84.0576 116.908Z" fill="#FF6584"/>
<path d="M84.5843 112.746L84.4351 112.597L83.6291 113.402L83.7784 113.552L84.5843 112.746Z" fill="#FF6584"/>
<path d="M81.3428 112.609C81.5244 112.427 81.6264 112.181 81.6264 111.924C81.6264 111.667 81.5244 111.421 81.3428 111.24C81.1612 111.058 80.9149 110.956 80.6581 110.956C80.4013 110.956 80.1551 111.058 79.9735 111.24L49.0778 142.129C48.8962 142.31 48.7942 142.556 48.7942 142.813C48.7942 143.07 48.8962 143.316 49.0778 143.498C49.2594 143.679 49.5056 143.781 49.7624 143.781C50.0192 143.781 50.2655 143.679 50.4471 143.498L81.1439 112.808" fill="#3F3D56"/>
<path d="M84.5007 108.71C82.2502 106.463 79.3255 105.015 76.1737 104.586C73.022 104.158 69.8167 104.774 67.0482 106.34C64.2797 107.906 62.1004 110.335 60.8435 113.256C59.5867 116.177 59.3215 119.43 60.0885 122.516C60.8556 125.602 62.6126 128.352 65.0909 130.345C67.5693 132.339 70.6324 133.465 73.8119 133.553C76.9914 133.641 80.1122 132.685 82.6969 130.832C85.2817 128.979 87.1882 126.33 88.1247 123.291C88.9037 120.761 88.9779 118.067 88.3394 115.497C87.7008 112.928 86.3736 110.582 84.5007 108.71ZM72.5829 124.546C71.5809 124.268 70.668 123.735 69.9329 123C69.7843 122.851 69.6467 122.694 69.5146 122.535C68.6069 121.417 68.1289 120.011 68.1669 118.571C68.205 117.131 68.7566 115.753 69.7222 114.684C70.6878 113.615 72.0038 112.927 73.4325 112.743C74.8612 112.56 76.3086 112.893 77.5132 113.682C78.7179 114.472 79.6005 115.666 80.0017 117.049C80.4029 118.432 80.2963 119.913 79.7011 121.225C79.1059 122.536 78.0614 123.592 76.756 124.201C75.4507 124.81 73.9705 124.932 72.5829 124.546Z" fill="#005C29"/>
<path d="M51.5119 27.7943C51.5119 26.9331 51.1697 26.1071 50.5606 25.4981C49.9514 24.8891 49.1253 24.5469 48.2638 24.5469C47.4024 24.5469 46.5762 24.8891 45.9671 25.4981C45.358 26.1071 45.0157 26.9331 45.0157 27.7943V164.662C45.0157 165.088 45.0998 165.511 45.263 165.905C45.4262 166.299 45.6655 166.657 45.9671 166.958C46.2687 167.26 46.6268 167.499 47.0208 167.662C47.4149 167.825 47.8373 167.909 48.2638 167.909C48.6904 167.909 49.1127 167.825 49.5068 167.662C49.9009 167.499 50.259 167.26 50.5606 166.958C50.8622 166.657 51.1014 166.299 51.2647 165.905C51.4279 165.511 51.5119 165.088 51.5119 164.662V28.7375" fill="#3F3D56"/>
<path d="M92.9442 26.5811C87.3668 16.0339 78.122 7.89171 66.9535 3.69011C55.7849 -0.51149 43.4646 -0.482016 32.3163 3.77297C21.168 8.02796 11.9622 16.2143 6.43543 26.7881C0.908621 37.3618 -0.55725 49.592 2.3143 61.1719C5.18584 72.7518 12.1963 82.8809 22.0235 89.6489C31.8506 96.4168 43.8151 99.3558 55.6604 97.9113C67.5057 96.4669 78.4129 90.739 86.3249 81.8079C94.2368 72.8768 98.6066 61.3599 98.61 49.4294C98.6133 41.4654 96.6682 33.6213 92.9442 26.5811ZM59.7085 67.0644C55.8335 69.2512 51.3461 70.1012 46.9395 69.4831C42.533 68.865 38.4527 66.8132 35.3292 63.6447C32.2057 60.4762 30.2129 56.3674 29.6587 51.9533C29.1045 47.5392 30.0198 43.0655 32.2632 39.2235C34.5065 35.3815 37.953 32.3851 42.0701 30.6974C46.1871 29.0096 50.7456 28.7245 55.0409 29.886C59.3363 31.0475 63.1295 33.591 65.8343 37.1235C68.5392 40.6559 70.0051 44.9807 70.0056 49.4294C70.0163 53.0195 69.0674 56.5472 67.2571 59.6477C65.4467 62.7481 62.8407 65.3086 59.7085 67.0644Z" fill="#005C29"/>
<path opacity="0.2" d="M49.614 95.1566C36.9214 95.1564 24.7272 90.2172 15.6135 81.385C6.49979 72.5527 1.18214 60.5209 0.786566 47.8372C0.769652 48.3656 0.761004 48.8959 0.760622 49.4283C0.759051 55.8435 2.02152 62.1961 4.47593 68.1234C6.93034 74.0506 10.5286 79.4364 15.0652 83.9732C19.6018 88.5099 24.9879 92.1087 30.9159 94.5641C36.8438 97.0194 43.1975 98.2832 49.614 98.2832C56.0306 98.2832 62.3843 97.0194 68.3122 94.5641C74.2402 92.1087 79.6263 88.5099 84.1629 83.9732C88.6995 79.4364 92.2978 74.0506 94.7522 68.1234C97.2066 62.1961 98.469 55.8435 98.4675 49.4283C98.4675 48.8953 98.4589 48.3643 98.4416 47.8353C98.0465 60.5194 92.7291 72.5517 83.6153 81.3843C74.5015 90.2169 62.307 95.1564 49.614 95.1566Z" fill="black"/>
<path opacity="0.2" d="M49.7555 25.057C44.9344 25.0573 40.2217 26.4868 36.2132 29.1649C32.2048 31.8429 29.0806 35.6492 27.2358 40.1023C25.391 44.5555 24.9083 49.4556 25.849 54.183C26.7896 58.9104 29.1112 63.2528 32.5202 66.6611C35.9292 70.0694 40.2725 72.3904 45.001 73.3309C49.7294 74.2713 54.6305 73.7887 59.0847 71.9443C63.5388 70.0999 67.3459 66.9764 70.0245 62.9688C72.7031 58.9612 74.133 54.2495 74.1333 49.4295C74.1261 42.9677 71.5554 36.7726 66.9852 32.2035C62.4151 27.6343 56.2187 25.0642 49.7555 25.057ZM59.7086 67.0644C55.8336 69.2512 51.3461 70.1013 46.9395 69.4832C42.533 68.8651 38.4527 66.8132 35.3292 63.6447C32.2057 60.4762 30.2129 56.3675 29.6587 51.9534C29.1046 47.5393 30.0199 43.0655 32.2632 39.2236C34.5065 35.3816 37.953 32.3852 42.0701 30.6974C46.1872 29.0097 50.7456 28.7245 55.0409 29.886C59.3363 31.0475 63.1295 33.5911 65.8344 37.1235C68.5392 40.656 70.0051 44.9807 70.0056 49.4295C70.0163 53.0195 69.0675 56.5473 67.2571 59.6477C65.4468 62.7481 62.8407 65.3087 59.7086 67.0644Z" fill="black"/>
<path d="M92.945 25.9943V34.1192C92.9454 34.7125 92.7682 35.2922 92.4361 35.7839C92.1041 36.2755 91.6324 36.6566 91.0819 36.8778C90.5314 37.0991 89.9272 37.1506 89.3471 37.0255C88.7671 36.9005 88.2378 36.6047 87.8274 36.1763V37.1022C87.8274 38.0382 87.4555 38.936 86.7934 39.5979C86.1314 40.2598 85.2335 40.6316 84.2972 40.6316C83.3609 40.6316 82.463 40.2598 81.801 39.5979C81.1389 38.936 80.767 38.0382 80.767 37.1022V36.3306C80.34 36.7146 79.8107 36.9666 79.2434 37.0561C78.676 37.1455 78.0949 37.0685 77.5704 36.8345C77.0459 36.6005 76.6006 36.2194 76.2883 35.7375C75.976 35.2556 75.8101 34.6935 75.8108 34.1192L75.6692 25.4833V23.4913C75.6687 23.1725 75.5417 22.8669 75.316 22.6416C75.0904 22.4164 74.7845 22.2898 74.4656 22.2898C74.1467 22.2898 73.8408 22.4164 73.6152 22.6416C73.3895 22.8669 73.2625 23.1725 73.262 23.4913V25.4833L73.1204 32.7035C73.1204 33.492 72.8071 34.2482 72.2494 34.8058C71.6917 35.3633 70.9354 35.6766 70.1467 35.6766C69.358 35.6766 68.6016 35.3633 68.044 34.8058C67.4863 34.2482 67.173 33.492 67.173 32.7035L66.8091 25.4833V21.7924C66.8091 21.2694 66.6012 20.7678 66.2313 20.3979C65.8614 20.0281 65.3597 19.8203 64.8365 19.8203C64.3134 19.8203 63.8116 20.0281 63.4417 20.3979C63.0718 20.7678 62.864 21.2694 62.864 21.7924V25.4833L62.6417 32.7035C62.6421 33.3218 62.4496 33.9249 62.091 34.4286C61.7323 34.9323 61.2254 35.3116 60.6408 35.5136C60.0563 35.7156 59.4233 35.7301 58.8301 35.5553C58.2369 35.3805 57.713 35.025 57.3315 34.5383C56.8612 35.1394 56.1772 35.5361 55.4218 35.6458C54.6665 35.7555 53.8979 35.5697 53.276 35.1272V37.1022C53.276 38.0382 52.904 38.936 52.242 39.5979C51.58 40.2598 50.682 40.6316 49.7458 40.6316C48.8095 40.6316 47.9116 40.2598 47.2495 39.5979C46.5875 38.936 46.2156 38.0382 46.2156 37.1022V31.0046C46.2158 31.6848 45.9828 32.3444 45.5553 32.8735C45.1277 33.4025 44.5316 33.7689 43.8665 33.9116C43.2013 34.0542 42.5074 33.9644 41.9004 33.6572C41.2935 33.35 40.8103 32.844 40.5316 32.2236V37.1022C40.5316 38.0382 40.1597 38.936 39.4976 39.5979C38.8356 40.2598 37.9377 40.6316 37.0014 40.6316C36.0651 40.6316 35.1672 40.2598 34.5052 39.5979C33.8431 38.936 33.4712 38.0382 33.4712 37.1022V25.4833H33.4514V37.1022C33.4514 38.0382 33.0794 38.936 32.4174 39.5979C31.7554 40.2598 30.8574 40.6316 29.9212 40.6316C28.9849 40.6316 28.087 40.2598 27.4249 39.5979C26.7629 38.936 26.391 38.0382 26.391 37.1022V32.2646C26.1046 32.8772 25.6177 33.3738 25.0109 33.6724C24.404 33.9709 23.7134 34.0536 23.0532 33.9067C22.393 33.7599 21.8027 33.3923 21.3797 32.8646C20.9567 32.3369 20.7264 31.6808 20.7268 31.0046V25.4833H20.4238V35.4033C20.4238 36.3394 20.0518 37.2371 19.3898 37.899C18.7278 38.5609 17.8299 38.9327 16.8936 38.9327C15.9573 38.9327 15.0594 38.5609 14.3974 37.899C13.7353 37.2371 13.3634 36.3394 13.3634 35.4033V31.0046C13.3638 31.3953 13.2871 31.7822 13.1379 32.1433C12.9886 32.5043 12.7696 32.8324 12.4935 33.1088C12.2173 33.3852 11.8893 33.6044 11.5284 33.754C11.1674 33.9036 10.7805 33.9806 10.3897 33.9806C9.99894 33.9806 9.61202 33.9036 9.25104 33.754C8.89006 33.6044 8.56212 33.3852 8.28595 33.1088C8.00977 32.8324 7.79079 32.5043 7.64153 32.1433C7.49226 31.7822 7.41563 31.3953 7.41602 31.0046V24.4597C11.7773 16.8951 18.0863 10.6372 25.6868 6.33694C33.2873 2.03667 41.9015 -0.148806 50.6332 0.00786893C59.3649 0.164544 67.8951 2.65765 75.3364 7.22781C82.7776 11.798 88.858 18.2782 92.945 25.9943Z" fill="#E6E6E6"/>
<path opacity="0.2" d="M29.9212 38.9327C29.4576 38.9327 28.9985 38.8415 28.5702 38.6641C28.1419 38.4867 27.7527 38.2268 27.4249 37.899C27.0971 37.5713 26.837 37.1822 26.6596 36.754C26.4822 36.3257 26.391 35.8668 26.391 35.4033V37.2437C26.391 38.1798 26.7629 39.0775 27.425 39.7394C28.087 40.4013 28.9849 40.7732 29.9212 40.7732C30.8574 40.7732 31.7554 40.4013 32.4174 39.7394C33.0794 39.0775 33.4514 38.1798 33.4514 37.2437V35.4033C33.4514 35.8668 33.3601 36.3257 33.1827 36.754C33.0053 37.1822 32.7453 37.5713 32.4175 37.899C32.0897 38.2268 31.7005 38.4867 31.2722 38.6641C30.8438 38.8415 30.3848 38.9327 29.9212 38.9327Z" fill="black"/>
<path opacity="0.2" d="M37.0014 38.9327C36.5378 38.9327 36.0787 38.8415 35.6504 38.6641C35.2221 38.4867 34.8329 38.2268 34.5051 37.899C34.1773 37.5713 33.9172 37.1822 33.7398 36.754C33.5624 36.3257 33.4712 35.8668 33.4712 35.4033V37.2437C33.4712 38.1798 33.8431 39.0775 34.5052 39.7394C35.1672 40.4013 36.0651 40.7732 37.0014 40.7732C37.9377 40.7732 38.8356 40.4013 39.4976 39.7394C40.1596 39.0775 40.5316 38.1798 40.5316 37.2437V35.4033C40.5316 35.8668 40.4403 36.3257 40.2629 36.754C40.0855 37.1822 39.8255 37.5713 39.4977 37.899C39.1699 38.2268 38.7807 38.4867 38.3524 38.6641C37.924 38.8415 37.465 38.9327 37.0014 38.9327Z" fill="black"/>
<path opacity="0.2" d="M26.391 30.5657C26.1046 31.1783 25.6177 31.6749 25.0109 31.9735C24.404 32.272 23.7134 32.3547 23.0532 32.2078C22.393 32.061 21.8027 31.6934 21.3797 31.1657C20.9567 30.6381 20.7264 29.9819 20.7268 29.3057V31.1462C20.7264 31.8224 20.9567 32.4785 21.3797 33.0062C21.8027 33.5338 22.393 33.9014 23.0532 34.0483C23.7134 34.1952 24.404 34.1125 25.0109 33.8139C25.6177 33.5154 26.1046 33.0188 26.391 32.4062V30.5657Z" fill="black"/>
<path opacity="0.2" d="M33.4711 23.7844H33.4513V25.6248H33.4711V23.7844Z" fill="black"/>
<path opacity="0.2" d="M13.3634 29.3057C13.3626 30.0937 13.049 30.8492 12.4914 31.4061C11.9338 31.963 11.1779 32.2758 10.3897 32.2758C9.60154 32.2758 8.84562 31.963 8.28803 31.4061C7.73044 30.8492 7.4168 30.0937 7.41602 29.3057V31.1462C7.4168 31.9342 7.73044 32.6896 8.28803 33.2465C8.84562 33.8035 9.60154 34.1163 10.3897 34.1163C11.1779 34.1163 11.9338 33.8035 12.4914 33.2465C13.049 32.6896 13.3626 31.9342 13.3634 31.1462V29.3057Z" fill="black"/>
<path opacity="0.2" d="M20.7267 23.7844H20.4237V25.6248H20.7267V23.7844Z" fill="black"/>
<path opacity="0.2" d="M16.8936 37.2338C16.43 37.2339 15.9709 37.1426 15.5426 36.9653C15.1143 36.7879 14.7251 36.5279 14.3973 36.2002C14.0695 35.8724 13.8094 35.4833 13.632 35.0551C13.4547 34.6269 13.3634 34.1679 13.3634 33.7044V35.5449C13.3634 36.4809 13.7353 37.3787 14.3974 38.0406C15.0594 38.7025 15.9573 39.0743 16.8936 39.0743C17.8299 39.0743 18.7278 38.7025 19.3898 38.0406C20.0519 37.3787 20.4238 36.4809 20.4238 35.5449V33.7044C20.4238 34.1679 20.3325 34.6269 20.1551 35.0551C19.9777 35.4833 19.7177 35.8724 19.3899 36.2002C19.0621 36.5279 18.6729 36.7879 18.2446 36.9653C17.8163 37.1426 17.3572 37.2339 16.8936 37.2338Z" fill="black"/>
<path opacity="0.2" d="M49.7458 38.9327C49.2822 38.9327 48.8231 38.8415 48.3948 38.6641C47.9665 38.4867 47.5773 38.2268 47.2495 37.899C46.9216 37.5713 46.6616 37.1822 46.4842 36.754C46.3068 36.3257 46.2155 35.8668 46.2156 35.4033V37.2437C46.2156 38.1798 46.5875 39.0775 47.2496 39.7394C47.9116 40.4013 48.8095 40.7732 49.7458 40.7732C50.682 40.7732 51.58 40.4013 52.242 39.7394C52.904 39.0775 53.276 38.1798 53.276 37.2437V35.4033C53.276 35.8668 53.1847 36.3257 53.0073 36.754C52.8299 37.1822 52.5699 37.5713 52.2421 37.899C51.9142 38.2268 51.5251 38.4867 51.0968 38.6641C50.6684 38.8415 50.2094 38.9327 49.7458 38.9327Z" fill="black"/>
<path opacity="0.2" d="M75.6692 21.7924C75.6692 21.4733 75.5424 21.1672 75.3167 20.9415C75.091 20.7158 74.7848 20.5891 74.4656 20.5891C74.1464 20.5891 73.8402 20.7158 73.6145 20.9415C73.3888 21.1672 73.262 21.4733 73.262 21.7924V23.6329C73.2617 23.4747 73.2927 23.318 73.353 23.1718C73.4134 23.0256 73.502 22.8927 73.6138 22.7808C73.7256 22.6688 73.8584 22.58 74.0046 22.5194C74.1507 22.4588 74.3074 22.4276 74.4656 22.4276C74.6238 22.4276 74.7805 22.4588 74.9266 22.5194C75.0728 22.58 75.2056 22.6688 75.3174 22.7808C75.4292 22.8927 75.5178 23.0256 75.5781 23.1718C75.6385 23.318 75.6695 23.4747 75.6692 23.6329V21.7924Z" fill="black"/>
<path opacity="0.2" d="M46.2155 29.3057C46.2158 29.9859 45.9827 30.6455 45.5552 31.1746C45.1276 31.7036 44.5316 32.07 43.8664 32.2127C43.2013 32.3553 42.5073 32.2655 41.9004 31.9583C41.2934 31.6511 40.8102 31.1451 40.5315 30.5247V32.3651C40.8102 32.9856 41.2934 33.4916 41.9004 33.7988C42.5073 34.106 43.2013 34.1958 43.8664 34.0531C44.5316 33.9105 45.1276 33.5441 45.5552 33.015C45.9827 32.486 46.2158 31.8263 46.2155 31.1462V29.3057Z" fill="black"/>
<path opacity="0.2" d="M70.1466 33.9776C69.7561 33.9777 69.3694 33.9008 69.0085 33.7514C68.6477 33.602 68.3199 33.3831 68.0438 33.107C67.7676 32.8309 67.5486 32.5031 67.3992 32.1424C67.2497 31.7817 67.1728 31.395 67.1729 31.0046L66.809 23.7844V25.6248L67.1729 32.8451C67.1729 33.6336 67.4862 34.3898 68.0439 34.9473C68.6015 35.5049 69.3579 35.8181 70.1466 35.8181C70.9353 35.8181 71.6916 35.5049 72.2493 34.9473C72.807 34.3898 73.1203 33.6336 73.1203 32.8451L73.2619 25.6248V23.7844L73.1203 31.0046C73.1203 31.3951 73.0434 31.7817 72.894 32.1424C72.7446 32.5031 72.5255 32.8309 72.2494 33.107C71.9733 33.3831 71.6454 33.602 71.2846 33.7514C70.9238 33.9008 70.5371 33.9777 70.1466 33.9776Z" fill="black"/>
<path opacity="0.2" d="M89.9712 35.3934C89.5705 35.3935 89.1739 35.3124 88.8054 35.155C88.4369 34.9976 88.1042 34.767 87.8273 34.4774V35.4033C87.8273 36.3394 87.4554 37.2371 86.7934 37.899C86.1313 38.5609 85.2334 38.9327 84.2971 38.9327C83.3609 38.9327 82.4629 38.5609 81.8009 37.899C81.1389 37.2371 80.7669 36.3394 80.7669 35.4033V34.6317C80.3399 35.0157 79.8107 35.2677 79.2433 35.3571C78.676 35.4466 78.0949 35.3696 77.5704 35.1356C77.0459 34.9016 76.6005 34.5205 76.2882 34.0386C75.9759 33.5567 75.8101 32.9946 75.8108 32.4204L75.6692 23.7844V25.6248L75.8108 34.2608C75.8101 34.835 75.9759 35.3972 76.2882 35.8791C76.6005 36.361 77.0459 36.742 77.5704 36.9761C78.0949 37.2101 78.676 37.2871 79.2433 37.1976C79.8107 37.1082 80.3399 36.8562 80.7669 36.4722V37.2438C80.7669 38.1798 81.1389 39.0776 81.8009 39.7394C82.463 40.4013 83.3609 40.7732 84.2971 40.7732C85.2334 40.7732 86.1313 40.4013 86.7934 39.7394C87.4554 39.0776 87.8273 38.1798 87.8273 37.2438V36.3179C88.2377 36.7463 88.7671 37.0421 89.3471 37.1671C89.9271 37.2922 90.5313 37.2407 91.0818 37.0194C91.6324 36.7981 92.104 36.4171 92.4361 35.9255C92.7681 35.4338 92.9453 34.854 92.9449 34.2608V32.4203C92.945 32.8108 92.8681 33.1974 92.7186 33.5581C92.5692 33.9189 92.3502 34.2466 92.074 34.5227C91.7979 34.7988 91.4701 35.0178 91.1093 35.1672C90.7484 35.3166 90.3617 35.3934 89.9712 35.3934Z" fill="black"/>
<path opacity="0.2" d="M59.6679 33.9777C59.2176 33.9777 58.7732 33.8752 58.3683 33.678C57.9635 33.4808 57.6089 33.194 57.3314 32.8394C56.8611 33.4405 56.1771 33.8372 55.4218 33.9469C54.6664 34.0566 53.8978 33.8708 53.2759 33.4283V35.2688C53.8978 35.7113 54.6664 35.897 55.4218 35.7873C56.1771 35.6776 56.8611 35.281 57.3314 34.6799C57.7129 35.1665 58.2368 35.5221 58.83 35.6969C59.4232 35.8717 60.0562 35.8571 60.6408 35.6552C61.2253 35.4532 61.7322 35.0739 62.0909 34.5702C62.4495 34.0665 62.6421 33.4634 62.6416 32.8451L62.8639 25.6248V23.7844L62.6416 31.0046C62.6416 31.3951 62.5647 31.7817 62.4153 32.1424C62.2659 32.5031 62.0468 32.8309 61.7707 33.107C61.4946 33.3831 61.1667 33.6021 60.8059 33.7514C60.4451 33.9008 60.0584 33.9777 59.6679 33.9777Z" fill="black"/>
<path opacity="0.2" d="M66.809 20.0935C66.809 19.5705 66.6011 19.0689 66.2312 18.699C65.8613 18.3292 65.3596 18.1214 64.8364 18.1214C64.3133 18.1214 63.8116 18.3292 63.4416 18.699C63.0717 19.0689 62.8639 19.5705 62.8639 20.0935V21.934C62.8639 21.4109 63.0717 20.9093 63.4416 20.5395C63.8116 20.1696 64.3133 19.9619 64.8364 19.9619C65.3596 19.9619 65.8613 20.1696 66.2312 20.5395C66.6011 20.9093 66.809 21.4109 66.809 21.934V20.0935Z" fill="black"/>
<path d="M33.8252 20.4574H33.1172V24.2799H33.8252V20.4574Z" fill="#3F3D56"/>
<path d="M47.2068 18.4045H46.4988V22.227H47.2068V18.4045Z" fill="#3F3D56"/>
<path d="M30.2142 33.4113H29.5062V37.2338H30.2142V33.4113Z" fill="#3F3D56"/>
<path d="M59.1345 26.732L58.5522 26.3293L56.3769 29.4727L56.9591 29.8755L59.1345 26.732Z" fill="#3F3D56"/>
<path d="M21.6422 20.6928L21.2029 21.2479L24.2012 23.6197L24.6405 23.0646L21.6422 20.6928Z" fill="#3F3D56"/>
<path d="M63.2738 6.39385L62.8345 6.94897L65.8328 9.32079L66.2721 8.76566L63.2738 6.39385Z" fill="#3F3D56"/>
<path d="M13.854 24.6569L13.4147 25.212L16.413 27.5838L16.8523 27.0287L13.854 24.6569Z" fill="#3F3D56"/>
<path d="M36.4448 11.4675H35.7368V15.29H36.4448V11.4675Z" fill="white"/>
<path d="M17.0451 31.1462H16.337V34.9687H17.0451V31.1462Z" fill="white"/>
<path d="M50.1804 5.94611H49.4724V9.76859H50.1804V5.94611Z" fill="white"/>
<path d="M54.1154 19.3325L53.4825 19.0151L51.768 22.4317L52.4008 22.7491L54.1154 19.3325Z" fill="white"/>
<path d="M50.8585 33.4899L50.2257 33.1724L48.5112 36.589L49.144 36.9064L50.8585 33.4899Z" fill="white"/>
<path d="M41.1258 25.7201L40.6561 26.2498L43.517 28.7856L43.9867 28.2559L41.1258 25.7201Z" fill="white"/>
<path d="M27.107 9.15606L26.6373 9.68573L29.4982 12.2215L29.9679 11.6919L27.107 9.15606Z" fill="white"/>
<path d="M73.6948 15.5268L73.2251 16.0565L76.086 18.5923L76.5557 18.0627L73.6948 15.5268Z" fill="white"/>
<path d="M56.5606 3.06841L56.0909 3.59808L58.9518 6.1339L59.4215 5.60422L56.5606 3.06841Z" fill="white"/>
<path d="M41.8258 18.4045H41.1178V22.227H41.8258V18.4045Z" fill="#FF6584"/>
<path d="M81.769 20.8184L81.1173 20.5418L79.6232 24.0603L80.2749 24.337L81.769 20.8184Z" fill="#FF6584"/>
<path d="M27.6533 24.5713L27.0402 24.9252L28.9518 28.2356L29.565 27.8817L27.6533 24.5713Z" fill="#FF6584"/>
<path d="M68.1521 21.8814L67.5389 22.2354L69.4506 25.5457L70.0638 25.1918L68.1521 21.8814Z" fill="#FF6584"/>
<path d="M42.947 7.86586L42.3339 8.21979L44.2455 11.5302L44.8587 11.1762L42.947 7.86586Z" fill="#FF6584"/>
<path d="M72.9667 7.15779L72.3535 7.51172L74.2652 10.8221L74.8783 10.4682L72.9667 7.15779Z" fill="#FF6584"/>
<path d="M34.0255 4.04316L33.4124 4.39709L35.324 7.70746L35.9372 7.35353L34.0255 4.04316Z" fill="#FF6584"/>
<path d="M59.5264 10.7596H58.8184V14.5821H59.5264V10.7596Z" fill="#FF6584"/>
<path d="M18.7443 17.1304H18.0363V20.9529H18.7443V17.1304Z" fill="#FF6584"/>
<path opacity="0.2" d="M64.5318 128.616C61.8564 125.941 60.3273 122.33 60.2684 118.548C60.2094 114.766 61.6252 111.109 64.216 108.352C64.1011 108.46 63.9874 108.57 63.8751 108.682C62.5219 110.034 61.4483 111.639 60.7156 113.405C59.983 115.172 59.6057 117.066 59.6053 118.978C59.6049 120.891 59.9814 122.785 60.7133 124.552C61.4452 126.319 62.5181 127.925 63.8708 129.277C65.2235 130.629 66.8294 131.702 68.5968 132.434C70.3643 133.166 72.2586 133.542 74.1715 133.542C76.0845 133.541 77.9787 133.164 79.7458 132.431C81.5129 131.699 83.1184 130.626 84.4705 129.273C84.5829 129.16 84.693 129.047 84.8009 128.931C82.0434 131.522 78.3858 132.938 74.6025 132.879C70.8192 132.82 67.2073 131.291 64.5318 128.616Z" fill="black"/>
<path opacity="0.2" d="M79.9301 113.28C78.7971 112.146 77.3533 111.374 75.7813 111.061C74.2093 110.748 72.5798 110.908 71.0988 111.521C69.6179 112.134 68.352 113.173 67.4614 114.505C66.5708 115.837 66.0955 117.404 66.0955 119.006C66.0955 120.609 66.5708 122.175 67.4614 123.508C68.352 124.84 69.6179 125.879 71.0988 126.492C72.5798 127.105 74.2093 127.265 75.7813 126.952C77.3533 126.639 78.7971 125.866 79.9301 124.733C81.446 123.212 82.2973 121.153 82.2973 119.006C82.2973 116.86 81.446 114.8 79.9301 113.28ZM78.4716 123C77.3391 124.131 75.8035 124.767 74.2023 124.767C72.6011 124.767 71.0655 124.131 69.933 123C69.7844 122.851 69.6468 122.694 69.5147 122.535C68.7794 121.628 68.3226 120.529 68.1997 119.368C68.0768 118.208 68.2931 117.036 68.8223 115.996C69.3515 114.956 70.1709 114.092 71.1814 113.508C72.1919 112.924 73.35 112.645 74.5157 112.706C75.6813 112.766 76.8044 113.163 77.7489 113.849C78.6935 114.534 79.419 115.479 79.8376 116.568C80.2562 117.657 80.35 118.845 80.1075 119.986C79.8651 121.128 79.2969 122.174 78.4716 123Z" fill="black"/>
<path d="M88.4165 123L86.7035 124.713C86.5785 124.838 86.4189 124.923 86.2452 124.956C86.0716 124.99 85.8919 124.971 85.7292 124.901C85.5665 124.832 85.4282 124.716 85.3323 124.567C85.2364 124.418 85.1872 124.244 85.1911 124.068L84.9958 124.263C84.7985 124.46 84.5308 124.571 84.2517 124.571C83.9726 124.571 83.705 124.46 83.5076 124.263C83.3102 124.065 83.1994 123.798 83.1994 123.519C83.1994 123.24 83.3102 122.972 83.5076 122.775L83.6703 122.612C83.4993 122.603 83.3346 122.545 83.1962 122.444C83.0577 122.343 82.9515 122.205 82.8902 122.045C82.829 121.885 82.8155 121.711 82.8513 121.543C82.887 121.376 82.9706 121.223 83.0918 121.102L84.8827 119.251L85.3027 118.832C85.37 118.764 85.4078 118.673 85.4078 118.578C85.4078 118.483 85.37 118.392 85.3027 118.324C85.2354 118.257 85.1441 118.219 85.049 118.219C84.9538 118.219 84.8625 118.257 84.7953 118.324L84.3753 118.744L82.8232 120.236C82.6569 120.402 82.4315 120.496 82.1964 120.496C81.9612 120.496 81.7358 120.402 81.5695 120.236C81.4033 120.07 81.3099 119.845 81.3099 119.61C81.3099 119.374 81.4033 119.149 81.5695 118.983L83.0151 117.384L83.7932 116.606C83.9027 116.496 83.964 116.347 83.9637 116.191C83.9633 116.036 83.9014 115.887 83.7914 115.777C83.6815 115.667 83.5324 115.605 83.3769 115.604C83.2214 115.604 83.0721 115.665 82.9617 115.775L82.1835 116.553L80.6144 118.028C79.9106 117.611 79.1589 117.28 78.3758 117.043C78.2459 116.913 78.1597 116.746 78.1292 116.565L77.7128 116.981C77.5155 117.179 77.2478 117.29 76.9687 117.29C76.6896 117.29 76.4219 117.179 76.2246 116.981C76.0272 116.784 75.9164 116.516 75.9164 116.237C75.9164 115.958 76.0272 115.691 76.2246 115.493L77.5102 114.208C77.3668 114.352 77.1786 114.441 76.977 114.463C76.7753 114.484 76.5724 114.436 76.4021 114.326C76.2318 114.216 76.1045 114.051 76.0413 113.858C75.9782 113.665 75.983 113.457 76.0551 113.267L75.0264 114.296C74.8291 114.493 74.5614 114.604 74.2823 114.604C74.0032 114.604 73.7356 114.493 73.5382 114.296C73.3408 114.098 73.23 113.831 73.23 113.552C73.23 113.273 73.3408 113.005 73.5382 112.808L75.9879 110.359L75.9837 110.354L73.534 112.803C73.3367 113.001 73.069 113.112 72.7899 113.112C72.5108 113.112 72.2431 113.001 72.0458 112.803C71.8484 112.606 71.7376 112.339 71.7376 112.06C71.7376 111.78 71.8484 111.513 72.0458 111.316L73.0657 110.296C72.8762 110.365 72.6689 110.367 72.478 110.302C72.2871 110.237 72.1241 110.109 72.0159 109.939C71.9077 109.769 71.8608 109.567 71.8829 109.366C71.905 109.166 71.9948 108.979 72.1374 108.837L73.3015 107.673L73.2376 107.609L71.1461 109.7C70.9488 109.897 70.6811 110.008 70.402 110.008C70.1229 110.008 69.8553 109.897 69.6579 109.7C69.4605 109.503 69.3497 109.235 69.3497 108.956C69.3497 108.677 69.4605 108.409 69.6579 108.212L70.5853 107.285C70.419 107.451 70.1936 107.544 69.9585 107.544C69.7234 107.544 69.4979 107.451 69.3317 107.285C69.1654 107.119 69.072 106.893 69.072 106.658C69.072 106.423 69.1654 106.198 69.3317 106.031L70.7115 104.652C73.2257 103.976 75.875 103.987 78.3837 104.682C80.8924 105.378 83.169 106.732 84.9765 108.605C86.784 110.479 88.0564 112.802 88.6614 115.333C89.2664 117.865 89.1818 120.512 88.4165 123Z" fill="#E6E6E6"/>
<path opacity="0.2" d="M72.404 112.445C72.3063 112.348 72.2288 112.232 72.1759 112.104C72.123 111.976 72.0958 111.84 72.0958 111.701C72.0958 111.563 72.123 111.426 72.1759 111.299C72.2288 111.171 72.3063 111.055 72.404 110.957L72.016 111.345C71.8186 111.543 71.7078 111.81 71.7078 112.089C71.7078 112.368 71.8186 112.636 72.016 112.833C72.2133 113.031 72.481 113.141 72.7601 113.141C73.0392 113.141 73.3069 113.031 73.5042 112.833L73.8923 112.445C73.7945 112.543 73.6785 112.621 73.5509 112.673C73.4232 112.726 73.2863 112.754 73.1481 112.754C73.0099 112.754 72.8731 112.726 72.7454 112.673C72.6177 112.621 72.5017 112.543 72.404 112.445Z" fill="black"/>
<path opacity="0.2" d="M73.8965 113.938C73.7987 113.84 73.7212 113.724 73.6683 113.596C73.6154 113.469 73.5882 113.332 73.5882 113.194C73.5882 113.055 73.6154 112.919 73.6683 112.791C73.7212 112.663 73.7987 112.547 73.8965 112.45L73.5084 112.838C73.4107 112.935 73.3332 113.051 73.2803 113.179C73.2274 113.307 73.2002 113.443 73.2002 113.581C73.2002 113.72 73.2274 113.856 73.2803 113.984C73.3332 114.112 73.4107 114.228 73.5084 114.325C73.6061 114.423 73.7222 114.501 73.8498 114.554C73.9775 114.606 74.1143 114.634 74.2525 114.634C74.3907 114.634 74.5276 114.606 74.6553 114.554C74.7829 114.501 74.8989 114.423 74.9967 114.325L75.3847 113.938C75.287 114.035 75.171 114.113 75.0433 114.166C74.9156 114.218 74.7788 114.246 74.6406 114.246C74.5024 114.246 74.3655 114.218 74.2379 114.166C74.1102 114.113 73.9942 114.035 73.8965 113.938Z" fill="black"/>
<path opacity="0.2" d="M73.4238 109.938C73.2343 110.007 73.027 110.009 72.8361 109.944C72.6453 109.879 72.4823 109.751 72.3741 109.581C72.2659 109.41 72.2189 109.209 72.241 109.008C72.2631 108.808 72.3529 108.621 72.4956 108.479L72.1075 108.866C71.9649 109.009 71.8751 109.196 71.853 109.396C71.8309 109.596 71.8778 109.798 71.986 109.968C72.0942 110.139 72.2572 110.267 72.4481 110.332C72.639 110.397 72.8463 110.394 73.0358 110.326L73.4238 109.938Z" fill="black"/>
<path opacity="0.2" d="M76.3419 109.996L75.9539 110.384L75.958 110.388L76.3461 110L76.3419 109.996Z" fill="black"/>
<path opacity="0.2" d="M70.9435 106.927C70.8612 107.009 70.7635 107.074 70.6559 107.119C70.5484 107.163 70.4331 107.186 70.3167 107.186C70.2003 107.186 70.085 107.163 69.9775 107.119C69.8699 107.074 69.7722 107.009 69.6899 106.927C69.6076 106.844 69.5423 106.747 69.4977 106.639C69.4532 106.532 69.4303 106.416 69.4303 106.3C69.4303 106.184 69.4532 106.068 69.4977 105.961C69.5423 105.853 69.6076 105.756 69.6899 105.673L69.3019 106.061C69.1356 106.228 69.0422 106.453 69.0422 106.688C69.0422 106.923 69.1356 107.149 69.3019 107.315C69.4681 107.481 69.6936 107.574 69.9287 107.574C70.1638 107.574 70.3893 107.481 70.5555 107.315L70.9435 106.927Z" fill="black"/>
<path opacity="0.2" d="M73.5958 107.251L73.2078 107.639L73.2716 107.703L73.6597 107.315L73.5958 107.251Z" fill="black"/>
<path opacity="0.2" d="M70.0161 109.342C69.9183 109.244 69.8408 109.128 69.7879 109.001C69.735 108.873 69.7078 108.736 69.7078 108.598C69.7078 108.46 69.735 108.323 69.7879 108.195C69.8408 108.068 69.9183 107.952 70.0161 107.854L69.628 108.242C69.5303 108.34 69.4528 108.456 69.3999 108.583C69.347 108.711 69.3198 108.848 69.3198 108.986C69.3198 109.124 69.347 109.261 69.3999 109.388C69.4528 109.516 69.5303 109.632 69.628 109.73C69.7258 109.828 69.8418 109.905 69.9694 109.958C70.0971 110.011 70.234 110.038 70.3722 110.038C70.5104 110.038 70.6472 110.011 70.7749 109.958C70.9026 109.905 71.0186 109.828 71.1163 109.73L71.5043 109.342C71.4066 109.44 71.2906 109.517 71.1629 109.57C71.0352 109.623 70.8984 109.65 70.7602 109.65C70.622 109.65 70.4851 109.623 70.3575 109.57C70.2298 109.517 70.1138 109.44 70.0161 109.342Z" fill="black"/>
<path opacity="0.2" d="M76.5827 116.623C76.485 116.526 76.4075 116.41 76.3546 116.282C76.3017 116.154 76.2745 116.018 76.2745 115.879C76.2745 115.741 76.3017 115.604 76.3546 115.477C76.4075 115.349 76.485 115.233 76.5827 115.135L76.1947 115.523C76.097 115.621 76.0195 115.737 75.9666 115.865C75.9137 115.992 75.8865 116.129 75.8865 116.267C75.8865 116.405 75.9137 116.542 75.9666 116.67C76.0195 116.798 76.097 116.914 76.1947 117.011C76.2924 117.109 76.4084 117.186 76.5361 117.239C76.6638 117.292 76.8006 117.319 76.9388 117.319C77.077 117.319 77.2139 117.292 77.3415 117.239C77.4692 117.186 77.5852 117.109 77.6829 117.011L78.071 116.623C77.9733 116.721 77.8573 116.799 77.7296 116.851C77.6019 116.904 77.465 116.931 77.3268 116.931C77.1886 116.931 77.0518 116.904 76.9241 116.851C76.7964 116.799 76.6804 116.721 76.5827 116.623Z" fill="black"/>
<path opacity="0.2" d="M85.6608 118.473C85.7281 118.406 85.7659 118.315 85.7659 118.22C85.7659 118.125 85.7281 118.033 85.6608 117.966C85.5936 117.899 85.5023 117.861 85.4071 117.861C85.312 117.861 85.2207 117.899 85.1534 117.966L84.7654 118.354C84.8327 118.287 84.9239 118.249 85.0191 118.249C85.1143 118.249 85.2055 118.287 85.2728 118.354C85.3401 118.421 85.3779 118.513 85.3779 118.608C85.3779 118.703 85.3401 118.794 85.2728 118.861L85.6608 118.473Z" fill="black"/>
<path opacity="0.2" d="M77.8684 113.85C77.725 113.993 77.5368 114.083 77.3352 114.105C77.1335 114.126 76.9306 114.078 76.7603 113.968C76.59 113.858 76.4627 113.692 76.3995 113.5C76.3364 113.307 76.3412 113.099 76.4132 112.909L76.0252 113.297C75.9532 113.487 75.9483 113.695 76.0115 113.888C76.0747 114.08 76.202 114.246 76.3723 114.356C76.5426 114.466 76.7455 114.514 76.9471 114.493C77.1488 114.471 77.337 114.381 77.4803 114.238L77.8684 113.85Z" fill="black"/>
<path opacity="0.2" d="M81.9277 119.878C81.8454 119.796 81.7801 119.698 81.7355 119.591C81.691 119.483 81.668 119.368 81.668 119.251C81.668 119.135 81.691 119.02 81.7355 118.912C81.7801 118.805 81.8454 118.707 81.9277 118.625L83.3732 117.026L82.9852 117.414L81.5397 119.013C81.4573 119.095 81.3921 119.193 81.3475 119.3C81.303 119.408 81.28 119.523 81.28 119.639C81.28 119.756 81.303 119.871 81.3475 119.979C81.3921 120.086 81.4573 120.184 81.5397 120.266C81.622 120.348 81.7197 120.414 81.8273 120.458C81.9348 120.503 82.0501 120.526 82.1665 120.526C82.2829 120.526 82.3982 120.503 82.5057 120.458C82.6133 120.414 82.711 120.348 82.7933 120.266L84.3454 118.774L84.7334 118.386L83.1813 119.878C83.099 119.96 83.0013 120.026 82.8938 120.07C82.7862 120.115 82.6709 120.138 82.5545 120.138C82.4381 120.138 82.3228 120.115 82.2153 120.07C82.1077 120.026 82.01 119.96 81.9277 119.878Z" fill="black"/>
<path opacity="0.2" d="M85.808 124.354C85.7235 124.27 85.657 124.169 85.6125 124.059C85.5681 123.948 85.5465 123.829 85.5492 123.71L85.354 123.905C85.2563 124.002 85.1403 124.08 85.0126 124.133C84.8849 124.186 84.7481 124.213 84.6099 124.213C84.4717 124.213 84.3349 124.186 84.2072 124.133C84.0795 124.08 83.9635 124.002 83.8658 123.905C83.7681 123.807 83.6906 123.691 83.6377 123.563C83.5848 123.436 83.5576 123.299 83.5576 123.161C83.5576 123.023 83.5848 122.886 83.6377 122.758C83.6906 122.63 83.7681 122.515 83.8658 122.417L84.0285 122.254C83.8575 122.245 83.6928 122.187 83.5544 122.086C83.4159 121.985 83.3097 121.847 83.2484 121.687C83.1872 121.527 83.1737 121.353 83.2094 121.185C83.2452 121.018 83.3288 120.864 83.45 120.744L85.2409 118.893L84.8529 119.281L83.062 121.132C82.9408 121.252 82.8572 121.406 82.8214 121.573C82.7856 121.741 82.7992 121.915 82.8604 122.075C82.9216 122.235 83.0279 122.373 83.1663 122.474C83.3048 122.575 83.4695 122.633 83.6404 122.642L83.4778 122.805C83.2804 123.002 83.1695 123.27 83.1695 123.549C83.1695 123.828 83.2804 124.095 83.4778 124.293C83.6751 124.49 83.9428 124.601 84.2219 124.601C84.501 124.601 84.7687 124.49 84.966 124.293L85.1612 124.098C85.1574 124.274 85.2066 124.448 85.3025 124.597C85.3984 124.745 85.5366 124.862 85.6993 124.931C85.862 125.001 86.0418 125.02 86.2154 124.986C86.3891 124.952 86.5486 124.868 86.6736 124.742L87.0617 124.354C86.9794 124.437 86.8816 124.502 86.7741 124.547C86.6665 124.591 86.5513 124.614 86.4348 124.614C86.3184 124.614 86.2032 124.591 86.0956 124.547C85.9881 124.502 85.8903 124.437 85.808 124.354Z" fill="black"/>
<path opacity="0.2" d="M79.7189 117.67C79.7352 117.537 79.7209 117.401 79.6772 117.275C79.6334 117.148 79.5613 117.032 79.4664 116.938C79.3715 116.843 79.2562 116.771 79.1293 116.727C79.0024 116.683 78.8672 116.669 78.7339 116.685C78.604 116.555 78.5179 116.388 78.4874 116.207L78.0994 116.595C78.4278 116.687 78.7209 116.876 78.9405 117.137C79.1602 117.398 79.2962 117.719 79.3309 118.058C79.4132 118.14 79.5109 118.205 79.6185 118.25C79.726 118.294 79.8413 118.317 79.9577 118.317C80.0742 118.317 80.1894 118.294 80.297 118.25C80.4045 118.205 80.5022 118.14 80.5845 118.058L82.1537 116.583L82.5417 116.195L80.9726 117.67C80.8903 117.752 80.7926 117.817 80.685 117.862C80.5774 117.907 80.4622 117.929 80.3458 117.929C80.2293 117.929 80.1141 117.907 80.0065 117.862C79.899 117.817 79.8012 117.752 79.7189 117.67Z" fill="black"/>
<path opacity="0.2" d="M84.1515 116.248C84.2064 116.194 84.2501 116.129 84.28 116.057C84.3098 115.986 84.3252 115.909 84.3254 115.832C84.3256 115.755 84.3104 115.678 84.2809 115.606C84.2513 115.535 84.2079 115.47 84.1532 115.415C84.0984 115.36 84.0334 115.317 83.9619 115.287C83.8903 115.258 83.8136 115.243 83.7362 115.243C83.6588 115.243 83.5821 115.259 83.5107 115.288C83.4393 115.318 83.3744 115.362 83.3199 115.417L82.9319 115.805C82.9864 115.75 83.0512 115.706 83.1227 115.676C83.1941 115.646 83.2707 115.631 83.3482 115.631C83.4256 115.631 83.5023 115.646 83.5738 115.675C83.6454 115.705 83.7104 115.748 83.7652 115.803C83.8199 115.858 83.8633 115.923 83.8928 115.994C83.9224 116.066 83.9375 116.143 83.9374 116.22C83.9372 116.297 83.9218 116.374 83.8919 116.445C83.8621 116.517 83.8184 116.582 83.7634 116.636L84.1515 116.248Z" fill="black"/>
<path d="M77.1221 109.374L76.9729 109.225L76.167 110.03L76.3162 110.179L77.1221 109.374Z" fill="#3F3D56"/>
<path d="M80.3756 111.761L80.2263 111.612L79.4204 112.418L79.5697 112.567L80.3756 111.761Z" fill="#3F3D56"/>
<path d="M83.5965 110.005L83.4473 109.855L82.6414 110.661L82.7906 110.81L83.5965 110.005Z" fill="#3F3D56"/>
<path d="M73.6298 111.343L73.4806 111.194L72.6747 112L72.8239 112.149L73.6298 111.343Z" fill="#3F3D56"/>
<path d="M81.1343 116.03L81.0964 115.823L79.9751 116.027L80.013 116.234L81.1343 116.03Z" fill="#3F3D56"/>
<path d="M85.8191 113.981L85.7812 113.773L84.66 113.978L84.6978 114.185L85.8191 113.981Z" fill="#3F3D56"/>
<path d="M74.5044 106.856L74.2948 106.88L74.4267 108.012L74.6364 107.988L74.5044 106.856Z" fill="#3F3D56"/>
<path d="M72.027 106.05L71.8174 106.075L71.9493 107.206L72.159 107.182L72.027 106.05Z" fill="#3F3D56"/>
<path d="M79.5697 108.031L79.4204 107.882L78.6145 108.687L78.7637 108.837L79.5697 108.031Z" fill="white"/>
<path d="M85.7186 112.129L85.5693 111.98L84.7634 112.786L84.9127 112.935L85.7186 112.129Z" fill="white"/>
<path d="M88.061 117.984L87.9117 117.835L87.1058 118.641L87.2551 118.79L88.061 117.984Z" fill="white"/>
<path d="M71.3315 108.091L71.1823 107.941L70.3763 108.747L70.5256 108.896L71.3315 108.091Z" fill="white"/>
<path d="M81.6362 113.413L81.5697 113.212L80.488 113.571L80.5544 113.772L81.6362 113.413Z" fill="white"/>
<path d="M77.9649 115.711L77.8984 115.51L76.8167 115.869L76.8832 116.069L77.9649 115.711Z" fill="white"/>
<path d="M77.5515 112.022L77.3408 112.034L77.4092 113.172L77.6199 113.159L77.5515 112.022Z" fill="white"/>
<path d="M78.0887 105.576L77.8781 105.588L77.9465 106.726L78.1571 106.713L78.0887 105.576Z" fill="white"/>
<path d="M79.2414 110.627L79.0922 110.478L78.2863 111.284L78.4355 111.433L79.2414 110.627Z" fill="#FF6584"/>
<path d="M86.2686 120.58L86.1194 120.431L85.3135 121.237L85.4627 121.386L86.2686 120.58Z" fill="#FF6584"/>
<path d="M87.4399 115.604L87.2906 115.455L86.4847 116.26L86.634 116.409L87.4399 115.604Z" fill="#FF6584"/>
<path d="M74.9539 108.94L74.75 108.886L74.455 109.986L74.6589 110.041L74.9539 108.94Z" fill="#FF6584"/>
<path d="M81.6996 108.642L81.4957 108.587L81.2007 109.688L81.4046 109.742L81.6996 108.642Z" fill="#FF6584"/>
<path d="M80.625 105.956L80.4211 105.901L80.1262 107.002L80.33 107.057L80.625 105.956Z" fill="#FF6584"/>
<path d="M74.6447 105.494L74.4955 105.345L73.6896 106.151L73.8388 106.3L74.6447 105.494Z" fill="#FF6584"/>
<path d="M227.035 60.5769C227.035 59.9557 226.788 59.3601 226.349 58.9209C225.909 58.4817 225.314 58.2349 224.692 58.2349C224.071 58.2349 223.475 58.4817 223.036 58.9209C222.597 59.3601 222.35 59.9557 222.35 60.5769V165.568C222.35 166.189 222.597 166.784 223.036 167.224C223.475 167.663 224.071 167.909 224.692 167.909C225.314 167.909 225.909 167.663 226.349 167.224C226.788 166.784 227.035 166.189 227.035 165.568V61.257" fill="#3F3D56"/>
<path d="M256.915 66.1487C252.8 58.3895 245.935 52.4465 237.665 49.4845C229.395 46.5225 220.317 46.755 212.21 50.1365C204.103 53.518 197.551 59.8047 193.838 67.7644C190.126 75.7241 189.521 84.7831 192.141 93.1658H196.513C197.391 93.1658 198.111 94.1435 198.111 95.3408H198.914C199.795 95.3408 200.515 96.3186 200.515 97.5159C200.515 98.7103 199.795 99.691 198.914 99.691H198.111C198.11 99.8728 198.091 100.054 198.056 100.233H201.716C202.597 100.233 203.318 101.213 203.318 102.408C203.318 103.605 202.597 104.583 201.716 104.583H198.22C203.693 111.441 211.528 116.01 220.193 117.398C228.858 118.785 237.729 116.889 245.069 112.083C252.41 107.276 257.693 99.9032 259.884 91.4077C262.075 82.9122 261.016 73.9051 256.915 66.1487ZM232.946 95.3467C230.756 96.5833 228.282 97.2309 225.767 97.2261C225.263 97.2259 224.76 97.2005 224.259 97.15C220.796 96.7882 217.576 95.2004 215.181 92.6734C212.786 90.1465 211.373 86.8467 211.198 83.3698C211.023 79.8929 212.097 76.468 214.226 73.7133C216.356 70.9586 219.399 69.0557 222.809 68.348C226.218 67.6403 229.768 68.1745 232.818 69.8542C235.868 71.5338 238.217 74.2483 239.441 77.5075C240.665 80.7667 240.683 84.3559 239.492 87.6272C238.301 90.8986 235.979 93.6365 232.946 95.3467Z" fill="#005C29"/>
<path opacity="0.2" d="M203.222 101.676C203.285 101.437 203.317 101.191 203.318 100.944C203.318 99.7482 202.597 98.7697 201.716 98.7697H200.218C200.106 99.0279 199.925 99.2504 199.695 99.4127C199.465 99.575 199.194 99.6708 198.914 99.6897H198.113C198.111 99.8723 198.092 100.054 198.056 100.233H201.716C202.408 100.233 202.999 100.838 203.222 101.676Z" fill="black"/>
<path opacity="0.2" d="M198.914 95.3404C199.605 95.3404 200.196 95.9449 200.419 96.7832C200.483 96.5445 200.515 96.2985 200.515 96.0514C200.515 94.8553 199.794 93.8767 198.914 93.8767H198.113C198.113 92.6807 197.392 91.7021 196.511 91.7021H192.141C191.144 88.5088 190.608 85.1896 190.549 81.845C190.544 82.1054 190.536 82.3654 190.536 82.6271C190.533 86.2011 191.074 89.7547 192.141 93.1658H196.511C197.392 93.1658 198.113 94.1444 198.113 95.3404H198.914Z" fill="black"/>
<path opacity="0.2" d="M225.768 116.388C220.796 116.393 215.88 115.344 211.344 113.309C206.808 111.274 202.755 108.299 199.454 104.583H198.219C202.772 110.294 208.99 114.45 216.01 116.473C223.03 118.496 230.505 118.288 237.401 115.876C244.297 113.464 250.273 108.969 254.501 103.012C258.729 97.0551 261 89.9314 261 82.6271C261 82.4069 260.994 82.1881 260.99 81.9689C260.779 91.1689 256.976 99.9213 250.394 106.354C243.811 112.786 234.973 116.388 225.768 116.388Z" fill="black"/>
<path opacity="0.2" d="M225.767 65.1007C222.3 65.1013 218.911 66.1297 216.028 68.0559C213.146 69.9821 210.9 72.7195 209.573 75.9221C208.247 79.1247 207.9 82.6486 208.577 86.0482C209.254 89.4477 210.923 92.5704 213.375 95.0212C215.827 97.472 218.95 99.1409 222.351 99.817C225.751 100.493 229.276 100.146 232.479 98.8191C235.682 97.4925 238.42 95.2461 240.346 92.364C242.272 89.4818 243.3 86.0934 243.3 82.6271C243.295 77.98 241.445 73.5248 238.158 70.2391C234.871 66.9534 230.415 65.1054 225.767 65.1007ZM232.946 95.3467C230.756 96.5833 228.282 97.2309 225.767 97.2261C225.263 97.2259 224.76 97.2005 224.259 97.15C220.796 96.7882 217.576 95.2004 215.181 92.6735C212.786 90.1465 211.373 86.8467 211.198 83.3698C211.023 79.8929 212.097 76.468 214.226 73.7133C216.356 70.9586 219.4 69.0557 222.809 68.348C226.218 67.6404 229.768 68.1745 232.818 69.8542C235.868 71.5338 238.217 74.2483 239.441 77.5075C240.665 80.7667 240.683 84.3559 239.492 87.6272C238.301 90.8986 235.979 93.6365 232.946 95.3467Z" fill="black"/>
<path d="M256.915 65.5638V71.4233C256.915 71.8511 256.788 72.2692 256.548 72.6238C256.309 72.9784 255.969 73.2531 255.572 73.4127C255.175 73.5723 254.739 73.6094 254.321 73.5193C253.902 73.4291 253.52 73.2158 253.225 72.9068V73.5745C253.225 74.2496 252.956 74.897 252.479 75.3744C252.001 75.8517 251.354 76.1199 250.679 76.1199C250.003 76.1199 249.356 75.8517 248.878 75.3744C248.401 74.897 248.133 74.2496 248.133 73.5745V73.0181C247.825 73.295 247.443 73.4768 247.034 73.5413C246.625 73.6058 246.206 73.5503 245.827 73.3815C245.449 73.2127 245.128 72.9379 244.903 72.5904C244.678 72.2428 244.558 71.8374 244.558 71.4233L244.456 65.1952V63.7587C244.456 63.5285 244.365 63.3078 244.202 63.145C244.039 62.9823 243.819 62.8909 243.588 62.8909C243.358 62.8909 243.137 62.9823 242.975 63.145C242.812 63.3078 242.72 63.5285 242.72 63.7587V65.1952L242.618 70.4023C242.618 70.9709 242.392 71.5163 241.99 71.9184C241.588 72.3205 241.042 72.5464 240.474 72.5464C239.905 72.5464 239.359 72.3205 238.957 71.9184C238.555 71.5163 238.329 70.9709 238.329 70.4023L238.067 65.1952V62.5335C238.067 62.1563 237.917 61.7946 237.65 61.5278C237.383 61.2611 237.021 61.1113 236.644 61.1113C236.267 61.1113 235.905 61.2611 235.638 61.5278C235.371 61.7946 235.222 62.1563 235.222 62.5335V65.1952L235.061 70.4023C235.062 70.8482 234.923 71.2831 234.664 71.6464C234.405 72.0097 234.04 72.2832 233.618 72.4289C233.197 72.5745 232.74 72.585 232.312 72.4589C231.885 72.3329 231.507 72.0765 231.232 71.7255C230.892 72.159 230.399 72.4451 229.854 72.5242C229.31 72.6033 228.755 72.4693 228.307 72.1502V73.5745C228.307 74.2496 228.039 74.897 227.561 75.3743C227.084 75.8517 226.436 76.1199 225.761 76.1199C225.086 76.1199 224.438 75.8517 223.961 75.3743C223.483 74.897 223.215 74.2496 223.215 73.5745V69.1771C223.215 69.6676 223.047 70.1433 222.739 70.5249C222.431 70.9064 222.001 71.1707 221.521 71.2735C221.041 71.3764 220.541 71.3117 220.103 71.0901C219.665 70.8686 219.317 70.5036 219.116 70.0562V73.5745C219.115 74.2491 218.847 74.8958 218.369 75.3726C217.892 75.8493 217.245 76.1171 216.57 76.1171C215.895 76.1171 215.248 75.8493 214.771 75.3726C214.293 74.8958 214.025 74.2491 214.024 73.5745V65.1952H214.01V73.5745C214.01 74.2496 213.742 74.897 213.264 75.3743C212.787 75.8517 212.139 76.1199 211.464 76.1199C210.789 76.1199 210.141 75.8517 209.664 75.3743C209.186 74.897 208.918 74.2496 208.918 73.5745V70.0858C208.712 70.5276 208.36 70.8857 207.923 71.101C207.485 71.3163 206.987 71.376 206.511 71.27C206.035 71.1641 205.609 70.899 205.304 70.5185C204.999 70.138 204.833 69.6648 204.833 69.1771V65.1953H204.615V72.3494C204.615 73.0244 204.347 73.6718 203.869 74.1492C203.392 74.6265 202.744 74.8947 202.069 74.8947C201.394 74.8947 200.746 74.6265 200.269 74.1492C199.791 73.6718 199.523 73.0244 199.523 72.3494V69.1771C199.523 69.7458 199.297 70.2911 198.895 70.6932C198.493 71.0953 197.947 71.3212 197.378 71.3212C196.81 71.3212 196.264 71.0953 195.862 70.6932C195.46 70.2911 195.234 69.7458 195.234 69.1771V64.4571C198.379 59.0017 202.929 54.4887 208.41 51.3874C213.892 48.2862 220.104 46.7101 226.401 46.8231C232.698 46.936 238.85 48.734 244.216 52.0299C249.583 55.3258 253.968 59.9992 256.915 65.5638Z" fill="#E6E6E6"/>
<path opacity="0.2" d="M211.464 74.8947C211.13 74.8947 210.799 74.8289 210.49 74.701C210.181 74.5731 209.9 74.3856 209.664 74.1492C209.427 73.9129 209.24 73.6323 209.112 73.3234C208.984 73.0146 208.918 72.6836 208.918 72.3494V73.6767C208.918 74.3517 209.186 74.9991 209.664 75.4765C210.141 75.9538 210.789 76.222 211.464 76.222C212.139 76.222 212.787 75.9538 213.264 75.4765C213.742 74.9991 214.01 74.3517 214.01 73.6767V72.3494C214.01 72.6836 213.944 73.0146 213.816 73.3234C213.688 73.6323 213.501 73.9129 213.264 74.1492C213.028 74.3856 212.747 74.5731 212.438 74.701C212.129 74.8289 211.798 74.8947 211.464 74.8947Z" fill="black"/>
<path opacity="0.2" d="M216.57 74.8947C216.236 74.8947 215.905 74.8289 215.596 74.701C215.287 74.5731 215.006 74.3856 214.77 74.1492C214.533 73.9129 214.346 73.6323 214.218 73.3234C214.09 73.0146 214.024 72.6836 214.024 72.3494V73.6767C214.024 74.3517 214.292 74.9991 214.77 75.4765C215.247 75.9538 215.895 76.222 216.57 76.222C217.245 76.222 217.893 75.9538 218.37 75.4765C218.848 74.9991 219.116 74.3517 219.116 73.6767V72.3494C219.116 72.6836 219.05 73.0146 218.922 73.3234C218.794 73.6323 218.607 73.9129 218.37 74.1492C218.134 74.3856 217.853 74.5731 217.544 74.701C217.235 74.8289 216.904 74.8947 216.57 74.8947Z" fill="black"/>
<path opacity="0.2" d="M208.918 68.8606C208.712 69.3024 208.36 69.6605 207.923 69.8759C207.485 70.0912 206.987 70.1508 206.511 70.0449C206.035 69.939 205.609 69.6739 205.304 69.2933C204.999 68.9128 204.833 68.4396 204.833 67.952V69.2793C204.833 69.7669 204.999 70.2401 205.304 70.6206C205.609 71.0011 206.035 71.2663 206.511 71.3722C206.987 71.4781 207.485 71.4185 207.923 71.2031C208.36 70.9878 208.712 70.6297 208.918 70.1879V68.8606Z" fill="black"/>
<path opacity="0.2" d="M214.024 63.9701H214.01V65.2974H214.024V63.9701Z" fill="black"/>
<path opacity="0.2" d="M199.523 67.9519C199.523 68.5206 199.297 69.0659 198.895 69.468C198.493 69.8701 197.947 70.096 197.378 70.096C196.81 70.096 196.264 69.8701 195.862 69.468C195.46 69.0659 195.234 68.5206 195.234 67.9519V69.2792C195.234 69.8478 195.46 70.3932 195.862 70.7953C196.264 71.1974 196.81 71.4233 197.378 71.4233C197.947 71.4233 198.493 71.1974 198.895 70.7953C199.297 70.3932 199.523 69.8478 199.523 69.2792V67.9519Z" fill="black"/>
<path opacity="0.2" d="M204.833 63.9701H204.615V65.2974H204.833V63.9701Z" fill="black"/>
<path opacity="0.2" d="M202.069 73.6695C201.734 73.6695 201.403 73.6037 201.095 73.4758C200.786 73.3479 200.505 73.1604 200.269 72.924C200.032 72.6877 199.845 72.4071 199.717 72.0982C199.589 71.7894 199.523 71.4584 199.523 71.1241V72.4514C199.523 73.1265 199.791 73.7739 200.269 74.2513C200.746 74.7286 201.394 74.9968 202.069 74.9968C202.744 74.9968 203.392 74.7286 203.869 74.2513C204.346 73.7739 204.615 73.1265 204.615 72.4514V71.1241C204.615 71.4584 204.549 71.7894 204.421 72.0982C204.293 72.4071 204.106 72.6877 203.869 72.924C203.633 73.1604 203.352 73.3479 203.043 73.4758C202.734 73.6037 202.403 73.6695 202.069 73.6695Z" fill="black"/>
<path opacity="0.2" d="M225.761 74.8947C225.427 74.8947 225.096 74.8289 224.787 74.701C224.478 74.5731 224.197 74.3856 223.961 74.1492C223.724 73.9129 223.537 73.6323 223.409 73.3234C223.281 73.0146 223.215 72.6836 223.215 72.3494V73.6767C223.215 74.3517 223.483 74.9991 223.961 75.4765C224.438 75.9538 225.086 76.222 225.761 76.222C226.436 76.222 227.084 75.9538 227.561 75.4765C228.039 74.9991 228.307 74.3517 228.307 73.6767V72.3494C228.307 72.6836 228.241 73.0146 228.113 73.3234C227.985 73.6323 227.798 73.9129 227.561 74.1492C227.325 74.3856 227.044 74.5731 226.735 74.701C226.426 74.8289 226.095 74.8947 225.761 74.8947Z" fill="black"/>
<path opacity="0.2" d="M244.456 62.5336C244.456 62.3034 244.365 62.0827 244.202 61.9199C244.039 61.7572 243.819 61.6657 243.588 61.6657C243.358 61.6657 243.137 61.7572 242.975 61.9199C242.812 62.0827 242.72 62.3034 242.72 62.5336V63.8608C242.72 63.6307 242.812 63.4099 242.975 63.2472C243.137 63.0844 243.358 62.993 243.588 62.993C243.819 62.993 244.039 63.0844 244.202 63.2472C244.365 63.4099 244.456 63.6307 244.456 63.8608V62.5336Z" fill="black"/>
<path opacity="0.2" d="M223.215 67.9519C223.215 68.4424 223.047 68.9181 222.739 69.2997C222.431 69.6812 222.001 69.9454 221.521 70.0483C221.041 70.1512 220.541 70.0864 220.103 69.8649C219.665 69.6433 219.317 69.2784 219.116 68.831V70.1583C219.317 70.6057 219.665 70.9706 220.103 71.1922C220.541 71.4137 221.041 71.4785 221.521 71.3756C222.001 71.2727 222.431 71.0085 222.739 70.6269C223.047 70.2454 223.215 69.7697 223.215 69.2792V67.9519Z" fill="black"/>
<path opacity="0.2" d="M240.474 71.3212C240.192 71.3213 239.913 71.2658 239.653 71.1581C239.393 71.0504 239.156 70.8924 238.957 70.6933C238.758 70.4942 238.6 70.2578 238.492 69.9977C238.385 69.7376 238.329 69.4587 238.329 69.1772L238.067 63.9701V65.2974L238.329 70.5044C238.329 71.0731 238.555 71.6184 238.957 72.0205C239.359 72.4226 239.905 72.6485 240.474 72.6485C241.042 72.6485 241.588 72.4226 241.99 72.0205C242.392 71.6184 242.618 71.0731 242.618 70.5044L242.72 65.2974V63.9701L242.618 69.1772C242.618 69.4587 242.563 69.7376 242.455 69.9977C242.347 70.2578 242.189 70.4942 241.99 70.6933C241.791 70.8924 241.555 71.0504 241.294 71.1581C241.034 71.2658 240.755 71.3213 240.474 71.3212Z" fill="black"/>
<path opacity="0.2" d="M254.771 72.3422C254.482 72.3423 254.196 72.2839 253.93 72.1703C253.664 72.0568 253.424 71.8905 253.224 71.6816V72.3494C253.224 73.0245 252.956 73.6719 252.479 74.1492C252.001 74.6266 251.354 74.8947 250.679 74.8947C250.003 74.8947 249.356 74.6266 248.878 74.1492C248.401 73.6719 248.133 73.0245 248.133 72.3494V71.7929C247.825 72.0699 247.443 72.2516 247.034 72.3161C246.625 72.3806 246.206 72.3251 245.827 72.1564C245.449 71.9876 245.128 71.7128 244.903 71.3652C244.677 71.0177 244.558 70.6123 244.558 70.1982L244.456 63.9701V65.2974L244.558 71.5254C244.558 71.9396 244.677 72.345 244.903 72.6925C245.128 73.0401 245.449 73.3149 245.827 73.4837C246.206 73.6524 246.625 73.7079 247.034 73.6434C247.443 73.5789 247.825 73.3972 248.133 73.1202V73.6767C248.133 74.3517 248.401 74.9992 248.878 75.4765C249.356 75.9538 250.003 76.222 250.679 76.222C251.354 76.222 252.001 75.9538 252.479 75.4765C252.956 74.9992 253.224 74.3517 253.224 73.6767V73.0089C253.52 73.3179 253.902 73.5312 254.32 73.6214C254.739 73.7116 255.174 73.6745 255.571 73.5149C255.969 73.3553 256.309 73.0805 256.548 72.7259C256.788 72.3714 256.915 71.9533 256.915 71.5254V70.1981C256.915 70.4797 256.86 70.7585 256.752 71.0187C256.644 71.2788 256.486 71.5152 256.287 71.7143C256.088 71.9134 255.851 72.0714 255.591 72.1791C255.331 72.2868 255.052 72.3423 254.771 72.3422Z" fill="black"/>
<path opacity="0.2" d="M232.917 71.3212C232.592 71.3212 232.271 71.2473 231.979 71.1051C231.687 70.9629 231.432 70.7561 231.232 70.5003C230.892 70.9338 230.399 71.2199 229.854 71.299C229.31 71.3781 228.755 71.2442 228.307 70.9251V72.2524C228.755 72.5715 229.31 72.7054 229.854 72.6263C230.399 72.5472 230.892 72.2611 231.232 71.8276C231.507 72.1786 231.885 72.435 232.312 72.5611C232.74 72.6872 233.197 72.6766 233.618 72.531C234.04 72.3853 234.405 72.1118 234.664 71.7485C234.923 71.3853 235.062 70.9504 235.061 70.5044L235.222 65.2974V63.9701L235.061 69.1772C235.061 69.4587 235.006 69.7375 234.898 69.9977C234.79 70.2578 234.632 70.4942 234.433 70.6933C234.234 70.8924 233.998 71.0503 233.737 71.1581C233.477 71.2658 233.198 71.3213 232.917 71.3212Z" fill="black"/>
<path opacity="0.2" d="M238.067 61.3083C238.067 60.9311 237.917 60.5694 237.65 60.3027C237.383 60.036 237.021 59.8861 236.644 59.8861C236.267 59.8861 235.905 60.036 235.638 60.3027C235.371 60.5694 235.222 60.9311 235.222 61.3083V62.6356C235.222 62.2584 235.371 61.8967 235.638 61.63C235.905 61.3632 236.267 61.2134 236.644 61.2134C237.021 61.2134 237.383 61.3632 237.65 61.63C237.917 61.8967 238.067 62.2584 238.067 62.6356V61.3083Z" fill="black"/>
<path d="M214.28 61.5707H213.769V64.3274H214.28V61.5707Z" fill="#3F3D56"/>
<path d="M223.93 60.0903H223.419V62.847H223.93V60.0903Z" fill="#3F3D56"/>
<path d="M250.89 61.7239H250.379V64.4806H250.89V61.7239Z" fill="#3F3D56"/>
<path d="M211.675 70.9128H211.165V73.6695H211.675V70.9128Z" fill="#3F3D56"/>
<path d="M232.532 66.0959L232.112 65.8054L230.544 68.0724L230.963 68.3628L232.532 66.0959Z" fill="#3F3D56"/>
<path d="M205.493 61.7405L205.177 62.1409L207.339 63.8514L207.656 63.451L205.493 61.7405Z" fill="#3F3D56"/>
<path d="M235.517 51.4285L235.2 51.8289L237.362 53.5394L237.679 53.139L235.517 51.4285Z" fill="#3F3D56"/>
<path d="M199.876 64.6003L199.559 65.0007L201.722 66.7112L202.039 66.3108L199.876 64.6003Z" fill="#3F3D56"/>
<path d="M216.169 55.0874H215.658V57.8441H216.169V55.0874Z" fill="white"/>
<path d="M202.178 69.2792H201.667V72.0359H202.178V69.2792Z" fill="white"/>
<path d="M226.075 51.1056H225.564V53.8623H226.075V51.1056Z" fill="white"/>
<path d="M250.584 68.3604H250.073V71.117H250.584V68.3604Z" fill="white"/>
<path d="M228.912 60.7595L228.456 60.5306L227.219 62.9945L227.676 63.2235L228.912 60.7595Z" fill="white"/>
<path d="M226.564 70.9695L226.107 70.7405L224.871 73.2045L225.327 73.4334L226.564 70.9695Z" fill="white"/>
<path d="M254.749 66.375L254.293 66.1461L253.056 68.61L253.512 68.8389L254.749 66.375Z" fill="white"/>
<path d="M219.545 65.3661L219.206 65.7481L221.269 67.5769L221.608 67.1949L219.545 65.3661Z" fill="white"/>
<path d="M209.435 53.4205L209.096 53.8025L211.159 55.6313L211.498 55.2493L209.435 53.4205Z" fill="white"/>
<path d="M243.032 58.015L242.694 58.397L244.757 60.2257L245.096 59.8437L243.032 58.015Z" fill="white"/>
<path d="M230.676 49.0302L230.337 49.4122L232.4 51.241L232.739 50.859L230.676 49.0302Z" fill="white"/>
<path d="M220.049 60.0903H219.539V62.847H220.049V60.0903Z" fill="#FF6584"/>
<path d="M248.855 61.8312L248.385 61.6317L247.308 64.1691L247.778 64.3686L248.855 61.8312Z" fill="#FF6584"/>
<path d="M209.829 64.5376L209.386 64.7928L210.765 67.1802L211.207 66.925L209.829 64.5376Z" fill="#FF6584"/>
<path d="M239.035 62.5977L238.593 62.853L239.972 65.2403L240.414 64.9851L239.035 62.5977Z" fill="#FF6584"/>
<path d="M220.858 52.4899L220.416 52.7451L221.794 55.1325L222.236 54.8772L220.858 52.4899Z" fill="#FF6584"/>
<path d="M242.507 51.9794L242.065 52.2346L243.444 54.622L243.886 54.3667L242.507 51.9794Z" fill="#FF6584"/>
<path d="M214.424 49.7332L213.982 49.9885L215.36 52.3758L215.803 52.1206L214.424 49.7332Z" fill="#FF6584"/>
<path d="M232.815 54.577H232.304V57.3336H232.815V54.577Z" fill="#FF6584"/>
<path d="M203.404 59.1714H202.893V61.9281H203.404V59.1714Z" fill="#FF6584"/>
<path d="M103.728 159.892C110.522 159.892 116.03 154.386 116.03 147.593C116.03 140.801 110.522 135.295 103.728 135.295C96.9343 135.295 91.4268 140.801 91.4268 147.593C91.4268 154.386 96.9343 159.892 103.728 159.892Z" fill="#2F2E41"/>
<path d="M108.479 163.345L112.157 162.68L110.964 156.093L107.287 156.758L108.479 163.345Z" fill="#2F2E41"/>
<path d="M101.125 164.677L104.802 164.011L103.609 157.424L99.9319 158.089L101.125 164.677Z" fill="#2F2E41"/>
<path d="M103.077 166.063C104.389 164.952 105.115 163.652 104.698 163.16C104.282 162.668 102.88 163.17 101.567 164.281C100.255 165.392 99.5286 166.692 99.9454 167.184C100.362 167.676 101.764 167.174 103.077 166.063Z" fill="#2F2E41"/>
<path d="M110.278 164.76C111.591 163.648 112.317 162.348 111.9 161.856C111.483 161.364 110.081 161.866 108.769 162.978C107.456 164.089 106.73 165.389 107.147 165.881C107.564 166.373 108.966 165.871 110.278 164.76Z" fill="#2F2E41"/>
<path d="M102.867 148.788C105.189 148.788 107.071 146.906 107.071 144.585C107.071 142.264 105.189 140.382 102.867 140.382C100.545 140.382 98.6627 142.264 98.6627 144.585C98.6627 146.906 100.545 148.788 102.867 148.788Z" fill="white"/>
<path d="M101.139 144.479C101.913 144.479 102.54 143.852 102.54 143.078C102.54 142.305 101.913 141.677 101.139 141.677C100.365 141.677 99.7375 142.305 99.7375 143.078C99.7375 143.852 100.365 144.479 101.139 144.479Z" fill="#3F3D56"/>
<path d="M113.432 134.214C113.617 129.661 109.692 125.804 104.665 125.6C99.6386 125.396 95.4137 128.921 95.2287 133.474C95.0437 138.028 98.5379 139.062 103.565 139.266C108.591 139.47 113.247 138.767 113.432 134.214Z" fill="#CFCCE0"/>
<path d="M98.3647 146.727C98.603 145.687 96.112 144.23 92.8009 143.471C89.4898 142.712 86.6125 142.94 86.3743 143.979C86.136 145.018 88.627 146.476 91.9381 147.234C95.2492 147.993 98.1265 147.766 98.3647 146.727Z" fill="#2F2E41"/>
<path d="M122.512 150.741C122.75 149.702 120.259 148.245 116.948 147.486C113.637 146.727 110.76 146.954 110.521 147.994C110.283 149.033 112.774 150.49 116.085 151.249C119.396 152.008 122.274 151.781 122.512 150.741Z" fill="#2F2E41"/>
<path d="M107.107 152.44C107.173 152.802 107.166 153.174 107.088 153.534C107.01 153.894 106.862 154.235 106.653 154.537C106.443 154.84 106.176 155.098 105.866 155.297C105.556 155.497 105.211 155.633 104.848 155.698C104.486 155.764 104.114 155.758 103.754 155.679C103.395 155.601 103.054 155.453 102.751 155.243C102.449 155.033 102.19 154.766 101.991 154.456C101.792 154.147 101.656 153.801 101.591 153.439C101.315 151.916 102.493 151.377 104.016 151.101C105.539 150.825 106.831 150.917 107.107 152.44Z" fill="white"/>
<path d="M173.648 104.926C174.891 101.674 175.071 98.7209 174.05 98.3307C173.029 97.9405 171.193 100.26 169.95 103.512C168.707 106.765 168.527 109.717 169.548 110.107C170.569 110.498 172.405 108.178 173.648 104.926Z" fill="#2F2E41"/>
<path d="M164.453 162.574C171.418 162.574 177.063 156.929 177.063 149.966C177.063 143.003 171.418 137.359 164.453 137.359C157.489 137.359 151.843 143.003 151.843 149.966C151.843 156.929 157.489 162.574 164.453 162.574Z" fill="#2F2E41"/>
<path d="M162.538 159.861H158.707V166.723H162.538V159.861Z" fill="#2F2E41"/>
<path d="M170.2 159.861H166.369V166.723H170.2V159.861Z" fill="#2F2E41"/>
<path d="M161.899 168C163.662 168 165.092 167.464 165.092 166.803C165.092 166.142 163.662 165.606 161.899 165.606C160.136 165.606 158.707 166.142 158.707 166.803C158.707 167.464 160.136 168 161.899 168Z" fill="#2F2E41"/>
<path d="M169.561 167.84C171.324 167.84 172.754 167.304 172.754 166.643C172.754 165.982 171.324 165.447 169.561 165.447C167.798 165.447 166.369 165.982 166.369 166.643C166.369 167.304 167.798 167.84 169.561 167.84Z" fill="#2F2E41"/>
<path d="M164.773 151.084C167.153 151.084 169.082 149.154 169.082 146.775C169.082 144.395 167.153 142.466 164.773 142.466C162.392 142.466 160.463 144.395 160.463 146.775C160.463 149.154 162.392 151.084 164.773 151.084Z" fill="white"/>
<path d="M164.772 148.211C165.566 148.211 166.209 147.568 166.209 146.775C166.209 145.981 165.566 145.338 164.772 145.338C163.979 145.338 163.336 145.981 163.336 146.775C163.336 147.568 163.979 148.211 164.772 148.211Z" fill="#3F3D56"/>
<path d="M152.221 138.242C151.203 133.683 154.457 129.076 159.491 127.952C164.524 126.829 169.43 129.614 170.448 134.173C171.466 138.732 168.13 140.413 163.097 141.537C158.064 142.66 153.239 142.801 152.221 138.242Z" fill="#CFCCE0"/>
<path d="M160.143 126.347C167.108 126.347 172.754 120.703 172.754 113.74C172.754 106.777 167.108 101.132 160.143 101.132C153.179 101.132 147.533 106.777 147.533 113.74C147.533 120.703 153.179 126.347 160.143 126.347Z" fill="#2F2E41"/>
<path d="M158.228 123.634H154.397V130.497H158.228V123.634Z" fill="#2F2E41"/>
<path d="M165.89 123.634H162.059V130.497H165.89V123.634Z" fill="#2F2E41"/>
<path d="M157.589 131.773C159.353 131.773 160.782 131.237 160.782 130.576C160.782 129.915 159.353 129.379 157.589 129.379C155.826 129.379 154.397 129.915 154.397 130.576C154.397 131.237 155.826 131.773 157.589 131.773Z" fill="#2F2E41"/>
<path d="M165.251 131.614C167.014 131.614 168.444 131.078 168.444 130.417C168.444 129.756 167.014 129.22 165.251 129.22C163.488 129.22 162.059 129.756 162.059 130.417C162.059 131.078 163.488 131.614 165.251 131.614Z" fill="#2F2E41"/>
<path d="M160.463 114.857C162.843 114.857 164.773 112.928 164.773 110.548C164.773 108.168 162.843 106.239 160.463 106.239C158.082 106.239 156.153 108.168 156.153 110.548C156.153 112.928 158.082 114.857 160.463 114.857Z" fill="white"/>
<path d="M160.463 111.984C161.256 111.984 161.899 111.341 161.899 110.548C161.899 109.755 161.256 109.111 160.463 109.111C159.669 109.111 159.026 109.755 159.026 110.548C159.026 111.341 159.669 111.984 160.463 111.984Z" fill="#3F3D56"/>
<path d="M147.911 102.015C146.893 97.4558 150.148 92.849 155.181 91.7254C160.214 90.6017 165.12 93.3867 166.138 97.9458C167.156 102.505 163.821 104.186 158.787 105.31C153.754 106.434 148.929 106.574 147.911 102.015Z" fill="#CFCCE0"/>
<path d="M151.637 110.591C152.105 109.603 149.935 107.594 146.788 106.102C143.642 104.61 140.712 104.201 140.243 105.188C139.775 106.176 141.945 108.186 145.092 109.678C148.238 111.17 151.168 111.579 151.637 110.591Z" fill="#2F2E41"/>
<path d="M153.949 118.288C153.949 119.522 157.127 121.958 160.653 121.958C164.18 121.958 167.486 118.484 167.486 117.251C167.486 116.017 164.18 117.49 160.653 117.49C157.127 117.49 153.949 117.054 153.949 118.288Z" fill="white"/>
<path d="M196.969 131.057C197.939 131.057 198.725 130.271 198.725 129.301C198.725 128.331 197.939 127.544 196.969 127.544C195.998 127.544 195.212 128.331 195.212 129.301C195.212 130.271 195.998 131.057 196.969 131.057Z" fill="#005C29"/>
<path d="M201.754 116.878C202.724 116.878 203.51 116.091 203.51 115.121C203.51 114.151 202.724 113.365 201.754 113.365C200.783 113.365 199.997 114.151 199.997 115.121C199.997 116.091 200.783 116.878 201.754 116.878Z" fill="#005C29"/>
<path d="M197.378 109.63C198.349 109.63 199.135 108.844 199.135 107.873C199.135 106.903 198.349 106.117 197.378 106.117C196.408 106.117 195.622 106.903 195.622 107.873C195.622 108.844 196.408 109.63 197.378 109.63Z" fill="#005C29"/>
<path d="M182.213 157.043L183.158 160.46L189.283 158.768L188.338 155.35L182.213 157.043Z" fill="#2F2E41"/>
<path d="M182.637 161.063C183.227 160.9 183.353 159.493 182.918 157.92C182.483 156.347 181.652 155.204 181.062 155.367C180.472 155.53 180.346 156.938 180.781 158.51C181.216 160.083 182.047 161.226 182.637 161.063Z" fill="#2F2E41"/>
<path d="M201.546 145.288C201.979 142.094 201.517 139.395 200.514 139.259C199.512 139.123 198.348 141.602 197.915 144.796C197.482 147.99 197.944 150.689 198.946 150.825C199.949 150.961 201.113 148.482 201.546 145.288Z" fill="#2F2E41"/>
<path d="M198.588 167.64C205.035 167.64 210.262 162.414 210.262 155.968C210.262 149.522 205.035 144.296 198.588 144.296C192.14 144.296 186.913 149.522 186.913 155.968C186.913 162.414 192.14 167.64 198.588 167.64Z" fill="#2F2E41"/>
<path d="M182.213 154.974L183.158 158.392L189.283 156.699L188.338 153.281L182.213 154.974Z" fill="#2F2E41"/>
<path d="M182.637 158.997C183.227 158.833 183.352 157.426 182.918 155.853C182.483 154.28 181.652 153.137 181.062 153.3C180.472 153.463 180.346 154.871 180.781 156.444C181.216 158.017 182.047 159.16 182.637 158.997Z" fill="#2F2E41"/>
<path d="M201.653 153.27C203.857 153.27 205.643 151.484 205.643 149.281C205.643 147.078 203.857 145.292 201.653 145.292C199.45 145.292 197.663 147.078 197.663 149.281C197.663 151.484 199.45 153.27 201.653 153.27Z" fill="white"/>
<path d="M202.929 148.849C203.664 148.849 204.259 148.254 204.259 147.519C204.259 146.785 203.664 146.189 202.929 146.189C202.195 146.189 201.599 146.785 201.599 147.519C201.599 148.254 202.195 148.849 202.929 148.849Z" fill="#3F3D56"/>
<path d="M212.069 163.989C216.39 163.772 219.698 159.732 219.46 154.965C219.221 150.197 215.525 146.508 211.205 146.724C206.885 146.94 206.207 150.331 206.446 155.098C206.684 159.866 207.749 164.205 212.069 163.989Z" fill="#CFCCE0"/>
<path d="M193.816 151.029C193.113 151.086 192.416 150.861 191.879 150.405C191.341 149.948 191.007 149.296 190.951 148.593C190.894 147.89 191.118 147.193 191.575 146.656C192.032 146.119 192.684 145.785 193.387 145.728C194.852 145.609 195.251 146.772 195.369 148.236C195.488 149.699 195.281 150.911 193.816 151.029Z" fill="white"/>
<path d="M197.165 148.062C197.598 144.868 197.136 142.168 196.133 142.033C195.13 141.897 193.966 144.376 193.533 147.57C193.1 150.763 193.562 153.463 194.565 153.599C195.568 153.735 196.732 151.256 197.165 148.062Z" fill="#2F2E41"/>
<path d="M196.09 142.474C197.06 142.474 197.847 141.688 197.847 140.718C197.847 139.748 197.06 138.961 196.09 138.961C195.12 138.961 194.333 139.748 194.333 140.718C194.333 141.688 195.12 142.474 196.09 142.474Z" fill="#005C29"/>
<path d="M185.853 100.314C185.893 100.005 185.867 99.6909 185.775 99.393C185.684 99.0951 185.53 98.8202 185.324 98.5868C185.118 98.3533 184.864 98.1668 184.579 98.0396C184.295 97.9125 183.986 97.8477 183.675 97.8497H182.979C183.148 97.5344 183.236 97.1825 183.236 96.8251C183.234 96.2433 183.002 95.6858 182.591 95.2745C182.179 94.8631 181.621 94.6312 181.04 94.6295H173.719C173.137 94.6295 172.578 94.8608 172.167 95.2726C171.755 95.6843 171.523 96.2428 171.523 96.8251C171.523 97.4074 171.755 97.9658 172.167 98.3776C172.578 98.7893 173.137 99.0206 173.719 99.0206H174.415C174.247 99.3359 174.159 99.6878 174.159 100.045C174.16 100.502 174.304 100.947 174.569 101.318C174.835 101.69 175.209 101.969 175.641 102.119C175.601 102.428 175.627 102.741 175.718 103.039C175.809 103.337 175.963 103.612 176.17 103.846C176.376 104.079 176.63 104.266 176.914 104.393C177.199 104.52 177.507 104.585 177.819 104.583H185.139C185.658 104.583 186.161 104.399 186.558 104.064C186.954 103.728 187.219 103.263 187.305 102.751C187.391 102.238 187.292 101.712 187.026 101.266C186.76 100.82 186.344 100.482 185.853 100.314Z" fill="#005C29"/>
<path d="M87.6261 116.177L87.4673 116.018L86.6098 116.875L86.7686 117.034L87.6261 116.177Z" fill="#3F3D56"/>
</g>
<defs>
<clipPath id="clip0_11_390">
<rect width="261" height="168" fill="white"/>
</clipPath>
</defs>
</svg>
