<svg width="153" height="115" viewBox="0 0 153 115" fill="none" xmlns="http://www.w3.org/2000/svg">
<g clip-path="url(#clip0_5_34)">
<path opacity="0.1" d="M50.8661 114.935C58.3171 114.935 64.3573 113.906 64.3573 112.636C64.3573 111.366 58.3171 110.337 50.8661 110.337C43.4152 110.337 37.3749 111.366 37.3749 112.636C37.3749 113.906 43.4152 114.935 50.8661 114.935Z" fill="#005C29"/>
<path opacity="0.1" d="M124.202 115C133.5 115 141.037 113.971 141.037 112.701C141.037 111.431 133.5 110.401 124.202 110.401C114.905 110.401 107.367 111.431 107.367 112.701C107.367 113.971 114.905 115 124.202 115Z" fill="#005C29"/>
<path opacity="0.1" d="M1.91622 49.6883H15.9682V70.0117H2.94496C2.91034 70.2203 2.87711 70.4304 2.84111 70.6405H15.9682V87.0309C15.9446 87.0235 15.9239 87.0147 15.9017 87.0059C15.5307 86.8502 15.1624 86.6856 14.7941 86.5093L14.5587 86.3962C14.1895 86.211 13.8203 86.0152 13.451 85.8085C13.3223 85.7365 13.1935 85.6616 13.0661 85.5852C11.0164 84.3668 9.15432 82.8229 7.54448 81.0072C7.49741 80.9587 7.4531 80.9072 7.40603 80.8602C7.18173 80.6017 6.96158 80.3401 6.74836 80.0727L6.51298 79.7789C6.26099 79.4513 6.01731 79.1148 5.78055 78.774C5.74593 78.724 5.7127 78.6741 5.6767 78.6271C4.7138 77.2103 3.91429 75.6764 3.29525 74.0578C3.27587 74.0094 3.25925 73.9565 3.24125 73.9109C3.05111 73.3918 2.88265 72.8678 2.73589 72.3389C2.6722 72.117 2.61128 71.8981 2.55866 71.6675C2.53928 71.5999 2.52266 71.5338 2.50743 71.4677C1.721 68.2104 1.62823 64.8269 1.62823 61.4668C1.62823 61.0745 1.62823 60.6808 1.62823 60.2915C1.62823 58.9325 1.64347 57.5646 1.66562 56.1983C1.66562 55.8442 1.67946 55.4916 1.68639 55.1361C1.70577 54.234 1.73346 53.3319 1.76946 52.4298C1.77777 52.1786 1.78884 51.9288 1.80131 51.679C1.80131 51.535 1.80823 51.3911 1.82207 51.2471C1.8553 50.724 1.883 50.2054 1.91622 49.6883Z" fill="#005C29"/>
<path opacity="0.1" d="M15.9682 27.0597H8.26031C9.51327 24.9787 10.8823 22.979 12.36 21.0712C13.505 19.5785 14.7138 18.124 15.9682 16.7224V27.0597Z" fill="#005C29"/>
<path opacity="0.1" d="M15.9682 27.6885V49.0595H1.96057C1.96057 48.9978 1.97026 48.9346 1.97442 48.8729C1.98688 48.7039 1.99934 48.535 2.01318 48.3675C2.02841 48.1706 2.04503 47.9723 2.06303 47.7798C2.08103 47.5873 2.10041 47.3523 2.12118 47.1392C2.14195 46.9262 2.16133 46.7102 2.18487 46.4972C2.20841 46.2841 2.22918 46.0711 2.2541 45.8595C2.27902 45.648 2.30117 45.4335 2.32748 45.2219C2.34825 45.0456 2.3704 44.8708 2.39255 44.6945C2.4244 44.4462 2.45763 44.1964 2.49363 43.9496C2.49363 43.9129 2.50332 43.8747 2.50886 43.8394C2.76157 42.0325 3.1059 40.2414 3.54036 38.4739C3.99513 36.6197 4.57586 34.803 5.27799 33.0379C6.02422 31.1913 6.89795 29.4058 7.89205 27.6959L15.9682 27.6885Z" fill="#005C29"/>
<path opacity="0.1" d="M19.323 49.6868V70.0117H49.3362V49.6868H19.323ZM19.323 70.639V88.0931C19.4947 88.1313 19.665 88.168 19.8339 88.1989C20.0637 88.2459 20.2922 88.2885 20.5262 88.3252C20.5705 88.3326 20.6162 88.3399 20.6646 88.3443C20.756 88.3605 20.8502 88.3737 20.9416 88.3869C21.1728 88.4207 21.4026 88.4487 21.6338 88.4707C21.7432 88.4825 21.854 88.4927 21.9647 88.5016L22.232 88.5236C22.3773 88.5353 22.5213 88.5442 22.664 88.5486C22.7526 88.5486 22.8412 88.5574 22.9326 88.5603C23.0018 88.5603 23.071 88.5603 23.143 88.5603C23.215 88.5603 23.3175 88.5603 23.4047 88.5603C23.5238 88.5603 23.6428 88.5603 23.7605 88.5603H23.9198C24.0388 88.5603 24.1579 88.5603 24.2756 88.5486H24.2839C24.3656 88.5486 24.4487 88.5486 24.5317 88.5368C24.5548 88.5383 24.5779 88.5383 24.601 88.5368C24.6702 88.5368 24.7394 88.5368 24.8059 88.5265H24.8543L25.3182 88.4883C25.4705 88.4736 25.6242 88.4545 25.7792 88.4369L26.0949 88.3972C27.3792 88.2063 28.6492 87.9196 29.8955 87.5392C32.6951 86.7106 35.4338 85.5514 38.232 84.7022C41.8499 83.6077 45.8471 83.0699 49.3431 84.4084V70.639H19.323ZM49.3362 27.0597V0.00147192C46.0503 -0.0363046 42.7733 0.371516 39.5847 1.21503C31.9848 3.24105 25.1659 7.63543 19.323 13.2478V27.0582H20.8294V27.6856H19.323V49.0595H49.3362V27.687H27.0143V27.0597H49.3362ZM87.8867 17.9198C86.0064 17.8493 84.1373 17.2175 82.4467 16.242C79.2137 14.3761 76.6315 11.495 73.7461 9.06349C67.7509 3.99916 60.3158 0.943228 52.6882 0.185122V27.0597H95.5336L95.6402 26.9407L87.8867 17.9198ZM91.7897 17.1852L95.9282 22.0042V15.9217C94.5423 16.1039 93.328 16.5373 91.7953 17.1793L91.7897 17.1852ZM95.9282 92.4272V70.639H87.1099C87.0864 70.5465 87.0628 70.4525 87.0351 70.3584C87.0615 70.4525 87.0836 70.5465 87.1085 70.639H52.6938V86.3962C53.0205 86.6533 53.3431 86.9236 53.663 87.1984C54.0077 87.4922 54.3483 87.8022 54.6903 88.1063L55.0351 88.409C55.1998 88.5559 55.366 88.7028 55.5335 88.8409C55.8658 89.1269 56.2013 89.409 56.5401 89.6872C56.7076 89.8341 56.8793 89.9663 57.0496 90.1044C59.7533 92.2979 62.6053 94.2774 65.5827 96.0268C66.2501 96.4186 66.9234 96.801 67.6028 97.1742C68.0555 97.4196 68.5111 97.6635 68.968 97.9C69.6547 98.2556 70.347 98.5984 71.0448 98.9284C77.4784 101.993 84.2814 104.096 91.2595 105.177C92.8092 105.42 94.365 105.611 95.9268 105.75V92.4258H96.0653L95.9282 92.4272ZM52.6938 27.687V49.0595H95.9338V27.687H52.6938ZM52.6938 49.6868V70.0117H95.9338V49.6868H52.6938ZM99.2899 15.8953V22.68L104.572 16.53C102.822 16.2302 101.061 16.0162 99.2899 15.8879V15.8953ZM99.2899 49.6942V70.0117H141.346V49.6868L99.2899 49.6942ZM141.192 94.0404L141.341 70.639H99.2899V105.984C101.999 106.104 104.712 106.07 107.417 105.881H107.464C108.757 105.795 110.043 105.669 111.323 105.505H111.352C118.182 104.661 124.861 102.77 131.179 99.8908M149.456 53.0336C149.298 52.6384 149.133 52.2462 148.965 51.8583C148.652 51.1237 148.322 50.4097 147.981 49.6956H144.7V70.0117H152.996C152.992 64.2583 151.62 58.3815 149.46 53.0263L149.456 53.0336ZM144.7 70.6464V90.7744C147.037 88.3972 149.011 85.6777 150.433 82.5689C152.143 78.8254 152.925 74.7719 152.989 70.6435L144.7 70.6464ZM144.7 43.7718V49.0609H147.674C146.774 47.2402 145.782 45.4721 144.704 43.7645L144.7 43.7718ZM116.177 19.8827C115.959 19.7945 115.74 19.7049 115.52 19.6182C113.198 18.7084 110.825 17.9518 108.416 17.3527L100.333 26.7659L100.177 26.9407L100.281 27.0612H129.05C125.043 24.1346 120.724 21.7225 116.182 19.8753L116.177 19.8827ZM129.893 27.6944H99.8798L99.2899 28.2674V49.0595H104.46H104.468H141.352V38.9881C138.015 34.7062 134.164 30.9069 129.897 27.687L129.893 27.6944Z" fill="#005C29"/>
<path opacity="0.1" d="M15.9682 38.468V49.0595H1.96057C1.96057 48.9978 1.97026 48.9346 1.97442 48.8729C1.98688 48.7039 1.99934 48.535 2.01318 48.3675C2.02841 48.1706 2.04503 47.9723 2.06303 47.7798C2.08103 47.5873 2.10041 47.3523 2.12118 47.1392C2.14195 46.9262 2.16133 46.7102 2.18487 46.4972C2.20841 46.2841 2.22918 46.0711 2.2541 45.8596C2.27902 45.648 2.30117 45.4335 2.32748 45.2219C2.34825 45.0456 2.3704 44.8708 2.39255 44.6945C2.4244 44.4462 2.45763 44.1964 2.49363 43.9496C2.49363 43.9129 2.50332 43.8747 2.50886 43.8394C2.76157 42.0325 3.1059 40.2414 3.54036 38.4739L15.9682 38.468Z" fill="#005C29"/>
<path opacity="0.1" d="M1.91622 49.6883H15.9682V70.0117H2.94496C2.91034 70.2203 2.87711 70.4304 2.84111 70.6405H15.9682V87.0309C15.9446 87.0235 15.9239 87.0147 15.9017 87.0059C15.5307 86.8502 15.1624 86.6856 14.7941 86.5093L14.5587 86.3962C14.1895 86.211 13.8203 86.0152 13.451 85.8085C13.3223 85.7365 13.1935 85.6616 13.0661 85.5852C11.0164 84.3668 9.15432 82.8229 7.54448 81.0072C7.49741 80.9587 7.4531 80.9072 7.40603 80.8602C7.18173 80.6017 6.96158 80.3401 6.74836 80.0727L6.51298 79.7789C6.26099 79.4513 6.01731 79.1148 5.78055 78.774C5.74593 78.724 5.7127 78.6741 5.6767 78.6271C4.7138 77.2103 3.91429 75.6764 3.29525 74.0578C3.27587 74.0094 3.25925 73.9565 3.24125 73.9109C3.05111 73.3918 2.88265 72.8678 2.73589 72.3389C2.6722 72.117 2.61128 71.8981 2.55866 71.6675C2.53928 71.5999 2.52266 71.5338 2.50743 71.4677C1.721 68.2104 1.62823 64.8269 1.62823 61.4668C1.62823 61.0745 1.62823 60.6808 1.62823 60.2915C1.62823 58.9325 1.64347 57.5646 1.66562 56.1983C1.66562 55.8442 1.67946 55.4916 1.68639 55.1361C1.70577 54.234 1.73346 53.3319 1.76946 52.4298C1.77777 52.1786 1.78884 51.9288 1.80131 51.679C1.80131 51.535 1.80823 51.3911 1.82207 51.2471C1.8553 50.724 1.883 50.2054 1.91622 49.6883Z" fill="#005C29"/>
<path opacity="0.1" d="M29.8886 30.7474V49.0595H19.323V30.7474H20.8294V24.5474H27.0129V30.7474H29.8886Z" fill="#005C29"/>
<path opacity="0.1" d="M29.8886 49.6868H19.3244V70.0102H29.8886V49.6868Z" fill="#005C29"/>
<path opacity="0.1" d="M19.323 70.6405H29.8886V87.5363C28.6423 87.9163 27.3723 88.2025 26.088 88.3928L25.7723 88.434C25.6172 88.4531 25.4635 88.4692 25.3112 88.4854C25.1589 88.5015 25.0011 88.5133 24.8474 88.5236H24.799C24.7325 88.5236 24.6605 88.5324 24.5954 88.5339H24.5248C24.4417 88.5339 24.3587 88.5427 24.2756 88.5456C24.1579 88.553 24.0402 88.5544 23.9198 88.5559C23.8685 88.5559 23.8201 88.5559 23.7688 88.5559C23.6498 88.5559 23.5321 88.5559 23.413 88.5559H23.1513C23.0807 88.5559 23.0129 88.5559 22.9395 88.5559L22.6723 88.5456C22.5338 88.5456 22.3843 88.5295 22.2403 88.5192L21.9744 88.4986L21.6435 88.4663C21.4109 88.4442 21.1797 88.4163 20.9512 88.3825L20.6743 88.3414L20.5359 88.3208C20.3047 88.2826 20.0762 88.2415 19.8436 88.1945C19.6733 88.1636 19.5044 88.1254 19.3327 88.0887L19.323 70.6405Z" fill="#005C29"/>
<path opacity="0.1" d="M95.9338 28.5847H87.2221V49.058H95.9338V28.5847Z" fill="#005C29"/>
<path opacity="0.1" d="M95.9351 49.6868V70.0117H52.6938V61.245H75.726V66.4166H87.2221V49.6868H95.9351Z" fill="#005C29"/>
<path opacity="0.1" d="M96.0722 92.4317H95.9338V105.765C94.3738 105.625 92.8185 105.434 91.2678 105.193C84.2863 104.109 77.4804 102.001 71.0448 98.9314C69.1867 98.044 67.3665 97.0753 65.5841 96.0253C62.6068 94.275 59.7543 92.2956 57.0496 90.103C56.3703 89.5505 55.6997 88.9854 55.0379 88.4075C54.5796 88.0064 54.124 87.595 53.663 87.1954C53.3431 86.9207 53.0205 86.6504 52.6938 86.3918V70.6405H87.1072C87.0836 70.5465 87.0601 70.4525 87.0351 70.3599C87.0615 70.4525 87.0864 70.5465 87.1099 70.6405H95.9338V92.4228C95.9808 92.4243 96.0265 92.4287 96.0722 92.4317Z" fill="#005C29"/>
<path opacity="0.1" d="M118.654 27.0597H112.978V25.1879H115.523V19.6123C115.743 19.6975 115.963 19.7852 116.182 19.8753V25.1879H118.654V27.0597Z" fill="#005C29"/>
<path opacity="0.1" d="M132.331 49.0595H104.463C104.463 49.0595 104.463 49.0595 104.472 49.0668L104.46 49.0595H99.2899V28.5862H100.755V43.7189H107.449V34.7568H112.979V27.6885H118.656V34.7627H124.186V43.7248H132.331V49.0595Z" fill="#005C29"/>
<path opacity="0.1" d="M99.2899 49.6868V70.0117H132.331V49.6868H99.2899ZM141.3 93.9361L141.346 77.8484H132.331V70.6493H99.2899V105.984C101.999 106.104 104.712 106.07 107.417 105.881H107.464C108.757 105.794 110.043 105.669 111.323 105.505H111.352C118.182 104.661 124.861 102.77 131.179 99.8908" fill="#005C29"/>
<path opacity="0.1" d="M145.287 70.6405H152.994C152.927 74.7675 152.146 78.821 150.437 82.5645C149.015 85.6748 147.039 88.3943 144.705 90.77V77.841H145.287V70.6405Z" fill="#005C29"/>
<path opacity="0.1" d="M152.999 70.0117H145.287V53.0263H149.46C151.62 58.3815 152.992 64.2583 152.999 70.0117Z" fill="#005C29"/>
<path opacity="0.1" d="M95.9351 34.2764H91.2678V40.6953H95.9351V34.2764Z" fill="#005C29"/>
<path opacity="0.1" d="M95.9351 47.5815H91.2678V49.0595H95.9351V47.5815Z" fill="#005C29"/>
<path opacity="0.1" d="M95.9351 49.6868H91.2678V53.9989H95.9351V49.6868Z" fill="#005C29"/>
<path opacity="0.1" d="M95.9351 60.8865H91.2678V67.3054H95.9351V60.8865Z" fill="#005C29"/>
<path opacity="0.1" d="M95.9351 74.1916H91.2678V80.6105H95.9351V74.1916Z" fill="#005C29"/>
<path opacity="0.1" d="M95.9337 92.4228C95.9808 92.4228 96.0265 92.4228 96.0722 92.4316H95.9337V93.9229H91.2678V87.4966H95.9337V92.4228Z" fill="#005C29"/>
<path opacity="0.1" d="M95.9337 100.799V105.757C94.3738 105.617 92.8185 105.427 91.2678 105.186V100.799H95.9337Z" fill="#005C29"/>
<path opacity="0.1" d="M72.6966 69.5401H52.6938V70.0117H72.6966V69.5401Z" fill="#005C29"/>
<path opacity="0.1" d="M72.6966 70.639H52.6938V72.4462H72.6966V70.639Z" fill="#005C29"/>
<path opacity="0.1" d="M72.6966 78.3699H52.6938V81.276H72.6966V78.3699Z" fill="#005C29"/>
<path opacity="0.1" d="M72.6952 87.1998V90.1059H57.0497C56.3703 89.5554 55.6992 88.9903 55.0365 88.4105C54.5782 88.0094 54.1241 87.598 53.6616 87.1998H72.6952Z" fill="#005C29"/>
<path opacity="0.1" d="M72.6952 96.0282V98.9314H71.0434C69.1872 98.043 67.3674 97.0738 65.5841 96.0238L72.6952 96.0282Z" fill="#005C29"/>
<path opacity="0.1" d="M111.356 51.657H107.419V55.8354H111.356V51.657Z" fill="#005C29"/>
<path opacity="0.1" d="M26.0977 32.1887H22.16V36.3671H26.0977V32.1887Z" fill="#005C29"/>
<path opacity="0.1" d="M26.0977 41.8942H22.16V46.0726H26.0977V41.8942Z" fill="#005C29"/>
<path opacity="0.1" d="M26.0977 51.5997H22.16V55.7781H26.0977V51.5997Z" fill="#005C29"/>
<path opacity="0.1" d="M26.0977 61.3038H22.16V65.4822H26.0977V61.3038Z" fill="#005C29"/>
<path opacity="0.1" d="M26.0977 71.0093H22.16V75.1877H26.0977V71.0093Z" fill="#005C29"/>
<path opacity="0.1" d="M26.0977 80.7148H22.16V84.8932H26.0977V80.7148Z" fill="#005C29"/>
<path opacity="0.1" d="M126.389 51.657H122.451V55.8354H126.389V51.657Z" fill="#005C29"/>
<path opacity="0.1" d="M111.356 61.9634H107.419V66.1418H111.356V61.9634Z" fill="#005C29"/>
<path opacity="0.1" d="M126.389 61.9634H122.451V66.1418H126.389V61.9634Z" fill="#005C29"/>
<path opacity="0.1" d="M111.356 72.2684H107.419V76.4468H111.356V72.2684Z" fill="#005C29"/>
<path opacity="0.1" d="M126.389 72.2684H122.451V76.4468H126.389V72.2684Z" fill="#005C29"/>
<path opacity="0.1" d="M111.356 82.5748H107.419V86.7532H111.356V82.5748Z" fill="#005C29"/>
<path opacity="0.1" d="M126.389 82.5748H122.451V86.7532H126.389V82.5748Z" fill="#005C29"/>
<path opacity="0.1" d="M111.356 92.8812H107.419V97.0596H111.356V92.8812Z" fill="#005C29"/>
<path opacity="0.1" d="M126.389 92.8812H122.451V97.0596H126.389V92.8812Z" fill="#005C29"/>
<path opacity="0.1" d="M107.419 105.881V103.186H111.355V105.497L107.419 105.881Z" fill="#005C29"/>
<path opacity="0.1" d="M2.49219 43.8365V46.2268H15.9682V43.8365H2.49219ZM3.83522 46.077H2.73587V43.9834H3.84352L3.83522 46.077ZM5.17686 46.077H4.06921V43.9834H5.17686V46.077ZM6.51573 46.077H5.40808V43.9834H6.51573V46.077ZM7.85738 46.077H6.75111V43.9834H7.85876L7.85738 46.077ZM9.19764 46.077H8.08998V43.9834H9.19764V46.077ZM10.5393 46.077H9.43163V43.9834H10.5393V46.077ZM11.8809 46.077H10.7733V43.9834H11.8809V46.077ZM13.2212 46.077H12.1135V43.9834H13.2212V46.077ZM14.5614 46.077H13.4538V43.9834H14.5614V46.077ZM15.9017 46.077H14.794V43.9834H15.9017V46.077Z" fill="#005C29"/>
<path opacity="0.1" d="M2.49219 50.7917V53.182H15.9682V50.7917H2.49219ZM3.83522 53.0307H2.73587V50.943H3.84352L3.83522 53.0307ZM5.17686 53.0307H4.06921V50.943H5.17686V53.0307ZM6.51573 53.0307H5.40808V50.943H6.51573V53.0307ZM7.85738 53.0307H6.75111V50.943H7.85876L7.85738 53.0307ZM9.19764 53.0307H8.08998V50.943H9.19764V53.0307ZM10.5393 53.0307H9.43163V50.943H10.5393V53.0307ZM11.8809 53.0307H10.7733V50.943H11.8809V53.0307ZM13.2212 53.0307H12.1135V50.943H13.2212V53.0307ZM14.5614 53.0307H13.4538V50.943H14.5614V53.0307ZM15.9017 53.0307H14.794V50.943H15.9017V53.0307Z" fill="#005C29"/>
<path opacity="0.1" d="M2.49219 57.7498V60.1445H15.9682V57.7498H2.49219ZM3.83522 59.9888H2.73587V57.8996H3.84352L3.83522 59.9888ZM5.17686 59.9888H4.06921V57.8996H5.17686V59.9888ZM6.51573 59.9888H5.40808V57.8996H6.51573V59.9888ZM7.85738 59.9888H6.75111V57.8996H7.85876L7.85738 59.9888ZM9.19764 59.9888H8.08998V57.8996H9.19764V59.9888ZM10.5393 59.9888H9.43163V57.8996H10.5393V59.9888ZM11.8809 59.9888H10.7733V57.8996H11.8809V59.9888ZM13.2212 59.9888H12.1135V57.8996H13.2212V59.9888ZM14.5614 59.9888H13.4538V57.8996H14.5614V59.9888ZM15.9017 59.9888H14.794V57.8996H15.9017V59.9888Z" fill="#005C29"/>
<path opacity="0.1" d="M2.49219 64.7079V67.0953H15.9682V64.7079H2.49219ZM3.83522 66.9469H2.73587V64.8563H3.84352L3.83522 66.9469ZM5.17686 66.9469H4.06921V64.8563H5.17686V66.9469ZM6.51573 66.9469H5.40808V64.8563H6.51573V66.9469ZM7.85738 66.9469H6.75111V64.8563H7.85876L7.85738 66.9469ZM9.19764 66.9469H8.08998V64.8563H9.19764V66.9469ZM10.5393 66.9469H9.43163V64.8563H10.5393V66.9469ZM11.8809 66.9469H10.7733V64.8563H11.8809V66.9469ZM13.2212 66.9469H12.1135V64.8563H13.2212V66.9469ZM14.5614 66.9469H13.4538V64.8563H14.5614V66.9469ZM15.9017 66.9469H14.794V64.8563H15.9017V66.9469Z" fill="#005C29"/>
<path opacity="0.1" d="M2.55035 71.6646C2.60435 71.8893 2.66527 72.1141 2.72896 72.336V71.8144H3.83661V73.9036H3.24402C3.26202 73.9521 3.28002 74.005 3.29802 74.0505H15.9682V71.6646H2.55035ZM5.18103 73.9036H4.07338V71.8144H5.18103V73.9036ZM6.5199 73.9036H5.41225V71.8144H6.5199V73.9036ZM7.86155 73.9036H6.75112V71.8144H7.85878L7.86155 73.9036ZM9.2018 73.9036H8.09415V71.8144H9.2018V73.9036ZM10.5434 73.9036H9.4358V71.8144H10.5434V73.9036ZM11.8851 73.9036H10.7774V71.8144H11.8851V73.9036ZM13.2254 73.9036H12.1177V71.8144H13.2254V73.9036ZM14.5656 73.9036H13.458V71.8144H14.5656V73.9036ZM15.9059 73.9036H14.7982V71.8144H15.9059V73.9036Z" fill="#005C29"/>
<path opacity="0.1" d="M5.6795 78.6227C5.71412 78.6697 5.74735 78.7226 5.78335 78.7696H6.51578V79.773C6.5947 79.8729 6.67224 79.9729 6.75254 80.0669V78.7637H7.86019V80.8603H7.41159C7.4559 80.9087 7.49882 80.9602 7.55005 81.0072H15.9724V78.6227H5.6795ZM9.19768 80.8603H8.09003V78.7725H9.19768V80.8603ZM10.5393 80.8603H9.43168V78.7725H10.5393V80.8603ZM11.881 80.8603H10.7733V78.7725H11.881V80.8603ZM13.2212 80.8603H12.1136V78.7725H13.2212V80.8603ZM14.5615 80.8603H13.4538V78.7725H14.5615V80.8603ZM15.9017 80.8603H14.7941V78.7725H15.9017V80.8603Z" fill="#005C29"/>
<path opacity="0.1" d="M13.0717 85.5793C13.1977 85.6557 13.3264 85.7262 13.4566 85.8026V85.7292H14.5642V86.3903L14.7996 86.5064V85.7292H15.9072V87C15.9285 87.0112 15.9508 87.0201 15.9737 87.0265V85.5793H13.0717Z" fill="#005C29"/>
<path opacity="0.1" d="M87.0352 70.3584C87.0615 70.4525 87.0836 70.5465 87.1086 70.639C87.0864 70.5465 87.0629 70.4525 87.0352 70.3584ZM20.835 27.0553V27.6826H27.0198V27.0553H20.835ZM87.0352 70.3584C87.0615 70.4525 87.0836 70.5465 87.1086 70.639C87.0864 70.5465 87.0629 70.4525 87.0352 70.3584ZM87.0352 70.3584C87.0615 70.4525 87.0836 70.5465 87.1086 70.639C87.0864 70.5465 87.0629 70.4525 87.0352 70.3584Z" fill="#005C29"/>
<path d="M63.9115 55.781C63.9115 55.781 63.366 55.7002 63.366 54.8569C63.366 54.0136 62.9756 52.4386 62.9756 52.4386C62.9756 52.4313 62.6377 49.6956 62.1711 49.2607C61.7045 48.8259 61.105 46.2724 61.105 46.2724C61.105 46.2724 61.0026 44.8869 60.7935 44.5887C60.5844 44.2904 60.302 43.5603 59.8852 42.5186C59.4685 41.4769 57.7308 40.7556 57.7308 40.7556C57.7308 40.7556 54.5893 38.8221 53.699 38.1918C53.6181 38.14 53.5424 38.0795 53.4733 38.0111C53.3182 37.7951 52.6426 37.7907 52.6426 37.7907C52.5719 37.3176 52.5041 36.774 52.4819 36.2818C52.4819 36.229 52.4819 36.1761 52.475 36.1232C53.4677 35.5005 54.2155 34.5187 54.5809 33.3581C54.5976 33.3023 54.6114 33.2435 54.6266 33.1877C54.6861 33.1669 54.7409 33.1332 54.7873 33.0887C54.8338 33.0441 54.8711 32.9898 54.8966 32.9291C54.9769 32.7396 54.9783 32.5178 55.078 32.3415C55.1943 32.1328 55.4158 32.0212 55.5903 31.864C56.0306 31.4673 56.1441 30.7988 56.1234 30.1906C56.1095 29.6984 56.0347 29.2018 56.0638 28.7125L56.0721 28.5891C56.0804 28.5157 56.0901 28.4422 56.1026 28.3717C56.1704 28.0073 56.3186 27.6635 56.4017 27.3021C56.4847 26.9407 56.493 26.5337 56.2992 26.2223C56.0154 25.7653 55.4241 25.6742 54.9049 25.6272C54.3165 25.5743 53.7904 25.6434 53.4138 25.1248C53.2375 24.8537 53.0392 24.5995 52.8212 24.3652C52.7436 24.2888 51.9904 23.801 51.9904 23.7687C51.2553 23.4074 50.422 23.3396 49.6436 23.5777C49.2531 23.6982 48.8848 23.895 48.4889 23.9935C47.6346 24.208 46.6515 23.9758 45.926 24.4945C45.5217 24.7883 45.2794 25.2555 45.0524 25.711C44.8678 26.0861 44.6804 26.4608 44.4902 26.8349C44.1842 27.4505 43.8727 28.0764 43.744 28.7581C43.7169 28.9064 43.7002 29.0567 43.6941 29.2077V29.215C43.6941 29.2694 43.6941 29.3237 43.6941 29.3781V29.4471C43.6941 29.4986 43.6941 29.5485 43.7024 29.5941C43.7107 29.6396 43.7093 29.6543 43.7135 29.6851C43.7176 29.716 43.7246 29.7851 43.7329 29.8321C43.7412 29.8791 43.7578 29.9614 43.7744 30.026C43.7813 30.0539 43.791 30.0804 43.7993 30.1068C43.8132 30.1568 43.8298 30.2052 43.8478 30.2537C43.8575 30.2787 43.8672 30.3052 43.8783 30.3301C43.899 30.3816 43.9239 30.4315 43.9489 30.477C43.9599 30.4976 43.9683 30.5167 43.9793 30.5358C44.018 30.6041 44.0605 30.6699 44.1067 30.7327C44.403 31.125 44.8391 31.3747 45.1618 31.742C45.1618 31.7567 45.1618 31.7714 45.1618 31.7846C45.1618 31.8258 45.1618 31.8654 45.1618 31.9066C45.1789 32.7257 45.3843 33.528 45.7603 34.2437C46.1362 34.9594 46.6713 35.5668 47.3189 36.013C47.3189 36.0688 47.3258 36.1261 47.3286 36.1819C47.3556 36.6181 47.3505 37.0557 47.3134 37.491C47.257 37.4205 47.1864 37.3644 47.1068 37.3268C47.0273 37.2891 46.9408 37.271 46.8537 37.2736C46.7942 37.2705 46.7346 37.2759 46.6765 37.2897L46.664 37.2794V37.2927C46.3594 37.372 45.9842 37.7084 45.6256 38.6649C45.6256 38.6649 44.5345 39.9695 43.7038 39.9152C42.8731 39.8608 40.7699 41.2727 40.7699 41.2727C40.7699 41.2727 38.718 42.6861 38.2777 44.1259C38.0316 44.9424 37.7365 45.7413 37.3943 46.5178L34.8578 52.064L34.3898 56.4642C34.3898 56.4642 34.6487 58.4212 34.5975 58.7194C34.5463 59.0177 35.6622 61.7078 35.6622 61.7078C35.6622 61.7078 39.3493 68.5822 40.8558 68.9348L40.9637 68.854C41.0282 68.8897 41.0966 68.9168 41.1673 68.9348L41.4774 68.7026C41.496 68.9614 41.4882 69.2215 41.4539 69.4784C41.2462 70.1572 41.5314 74.5868 41.8942 75.4551C42.2569 76.3234 42.1282 87.7082 42.1282 87.7082L42.0769 88.7131C42.0769 88.7131 42.0769 88.7454 42.0894 88.8013L42.0769 89.0393L42.1143 89.0599C42.1531 89.3786 42.1405 89.7021 42.0769 90.0163C41.9468 90.4571 41.8942 91.7029 41.8942 91.7029C41.8942 91.7029 40.8571 98.7375 41.3487 100.151C41.8402 101.564 42.2583 103.113 42.2583 103.113C42.2583 103.113 42.7775 104.876 42.2832 105.177C41.7889 105.478 40.3836 105.984 40.673 106.718C40.9361 107.397 41.9343 109.216 42.0825 109.482L42.07 109.621L41.8665 111.962C41.8994 112.271 41.9784 112.572 42.1005 112.855C42.3234 113.365 42.7568 113.894 43.5806 113.836C43.719 113.826 43.8796 113.809 44.0347 113.786C45.5425 113.572 47.3992 112.858 47.3992 112.858C47.3028 112.793 47.2144 112.715 47.1361 112.627C47.062 112.551 47.0033 112.46 46.9636 112.359C46.9238 112.258 46.9039 112.149 46.9049 112.04C46.9271 111.614 46.1753 109.583 45.9883 109.084C45.9593 109.012 45.944 108.97 45.944 108.97C45.944 108.97 47.6581 107.069 47.3729 105.384C47.3729 105.384 45.476 104.209 46.1005 103.564C46.7249 102.919 47.8409 101.066 47.8409 101.066C47.8409 101.066 47.8921 94.1389 47.8409 93.1046C47.7874 92.3867 47.8195 91.6645 47.9364 90.9551C47.9572 90.8479 47.9821 90.7436 48.0084 90.6407C48.872 90.7775 49.7438 90.8477 50.6169 90.8508C50.9354 90.8508 51.2594 90.8508 51.5861 90.8302C51.5861 90.9282 51.5903 91.034 51.5986 91.1476C51.6706 92.8636 51.8049 95.8725 51.9143 96.9906C52.0693 98.5935 52.9264 102.913 52.9264 102.913C52.9264 102.913 51.2912 104.027 53.2116 106.771C53.2116 106.771 53.2116 107.766 53.0842 107.91C52.9482 108.38 52.8387 108.859 52.7561 109.344C52.6758 109.861 52.6426 110.384 52.7727 110.656C53.0842 111.305 54.9534 111.252 54.9534 111.252L54.9991 111.243C55.352 111.205 55.7086 111.241 56.0482 111.349C56.3879 111.458 56.7038 111.637 56.9776 111.877C57.6879 112.482 60.3837 112.216 61.843 112.023C62.4148 111.947 62.797 111.877 62.797 111.877C62.8155 111.808 62.8221 111.736 62.8163 111.665C62.8011 111.284 62.52 110.45 60.6149 109.705C60.6149 109.705 58.8233 108.427 58.8482 107.313H58.8108H58.6031C58.754 107.304 58.8509 107.313 58.8509 107.313C58.8509 107.313 58.149 104.595 58.4356 104.375C58.7222 104.154 57.8638 101.143 57.8638 101.143C57.8638 101.143 57.3722 96.0885 57.3459 95.7344C57.347 95.4306 57.3904 95.1286 57.4747 94.8382L57.3459 92.0673C57.3459 92.0673 57.321 91.1461 57.3459 90.8464C57.3417 90.5862 57.3218 90.3266 57.2864 90.0692C57.2739 89.9663 57.2615 89.8591 57.2476 89.7533C57.9191 89.5726 58.3553 89.4051 58.3553 89.4051L58.2777 79.7598C58.8482 78.5845 58.9534 76.006 58.9506 74.1769C58.9506 73.0015 58.9008 72.1318 58.9008 72.1318L59.6803 70.7816C59.6803 70.7816 59.8603 69.1654 59.5751 68.8114C59.4491 68.6512 59.5058 68.4852 59.6097 68.3486C59.6636 68.3032 59.7205 68.2619 59.78 68.2252C59.78 68.2252 59.7717 68.2119 59.762 68.1928C59.8164 68.1446 59.8743 68.1009 59.9351 68.0621C59.9351 68.0621 59.6581 67.6066 59.906 67.4142C60.1386 67.5816 60.3463 67.708 60.5041 67.8108C60.493 67.9181 60.482 67.9798 60.482 67.9798L60.5484 67.8329C60.7007 67.924 60.7935 67.9798 60.7935 67.9798C60.7935 67.9798 62.0147 65.3984 61.9884 65.0179C61.9621 64.6374 62.8191 63.0345 62.8191 63.0345C62.8191 63.0345 62.923 62.1926 63.3909 61.84C63.8589 61.4874 63.7537 58.9325 63.7537 58.9325C63.7537 58.9325 63.8838 57.6014 64.1954 57.0578C64.5069 56.5142 63.9115 55.781 63.9115 55.781ZM40.5456 54.6483L40.5691 55.2639C40.4307 55.0274 40.331 54.8569 40.331 54.8569L40.5456 54.6483Z" fill="url(#paint0_linear_5_34)"/>
<path d="M60.8599 66.8647L60.5609 68.2163C60.5609 68.2163 58.1656 66.919 57.7336 65.2706C57.3016 63.6222 58.4563 62.9963 58.4563 62.9963L60.6882 63.9997L60.8599 66.8647Z" fill="white"/>
<path opacity="0.1" d="M60.8599 66.8647L60.5609 68.2163C60.5609 68.2163 58.1656 66.919 57.7336 65.2706C57.3016 63.6222 58.4563 62.9963 58.4563 62.9963L60.6882 63.9997L60.8599 66.8647Z" fill="black"/>
<path d="M47.4172 112.867C47.4172 112.867 45.2019 113.731 43.6789 113.839C42.8703 113.897 42.4453 113.371 42.2265 112.864C42.107 112.582 42.0299 112.282 41.998 111.975L42.196 109.646L42.3013 108.406L45.537 107.514L45.9953 109.001L46.0382 109.114C46.2224 109.611 46.9603 111.631 46.9382 112.053C46.9373 112.161 46.9569 112.268 46.9959 112.368C47.0349 112.467 47.0925 112.558 47.1652 112.633C47.2395 112.722 47.3242 112.801 47.4172 112.867Z" fill="white"/>
<path d="M62.5491 111.683C62.5546 111.753 62.5481 111.824 62.5297 111.893C62.5297 111.893 57.7917 112.732 56.8225 111.893C56.5493 111.648 56.2308 111.466 55.8874 111.359C55.5441 111.252 55.1835 111.223 54.8288 111.273C54.8288 111.273 52.9956 111.326 52.6896 110.685C52.5622 110.416 52.5955 109.895 52.6744 109.38C52.7549 108.898 52.8622 108.422 52.9956 107.954L53.069 107.892L53.5051 107.52L58.6114 107.36H58.6502C58.6252 108.468 60.3836 109.739 60.3836 109.739C62.2514 110.473 62.527 111.303 62.5491 111.683Z" fill="white"/>
<path opacity="0.1" d="M62.5491 111.683C62.554 111.753 62.5469 111.824 62.5283 111.893C62.5283 111.893 57.7917 112.732 56.8225 111.893C56.5495 111.648 56.2312 111.466 55.8881 111.359C55.545 111.253 55.1846 111.223 54.8302 111.273C54.8302 111.273 52.9956 111.326 52.691 110.685C52.5636 110.415 52.5955 109.895 52.6744 109.38C53.3805 109.455 54.4951 109.642 54.9326 110.087C55.5944 110.764 56.7159 111.44 57.4041 111.493C57.9427 111.53 61.1645 111.638 62.5491 111.683Z" fill="black"/>
<path opacity="0.1" d="M47.4172 112.867C47.4172 112.867 45.2019 113.731 43.6789 113.839C42.8703 113.897 42.4452 113.371 42.2278 112.862C42.7914 113.064 43.5736 113.275 43.9849 113.081C44.4722 112.852 46.2002 112.704 47.1694 112.64C47.2431 112.726 47.3263 112.802 47.4172 112.867Z" fill="black"/>
<path d="M50.7041 43.2488C48.8765 42.4951 46.5255 40.0048 47.1126 38.8412C47.243 38.5476 47.3204 38.2306 47.341 37.9068C47.3788 37.4671 47.3844 37.0251 47.3577 36.5845C47.3165 35.863 47.2347 35.1447 47.1126 34.4336C47.1126 34.4336 52.8184 34.5702 52.4861 35.462C52.3892 35.7235 52.3739 36.1775 52.4002 36.6859C52.4265 37.1942 52.4958 37.7687 52.5678 38.255C52.6675 38.922 52.7671 39.4303 52.7671 39.4303C52.7671 39.4303 52.4182 39.949 52.2133 39.9769C52.0084 40.0048 53.3265 44.3228 50.7041 43.2488Z" fill="#CF6F80"/>
<path opacity="0.1" d="M46.034 109.114L45.9911 109.164C44.2853 106.975 42.2223 109.704 42.2223 109.704L42.1918 109.646L42.2971 108.406L45.5328 107.514L45.9911 109.001L46.034 109.114Z" fill="black"/>
<path opacity="0.1" d="M58.6515 107.514C58.6515 107.514 57.4054 107.487 56.7408 108.109C56.0762 108.732 52.8641 108.245 53.0025 108.109C53.0435 108.042 53.0683 107.966 53.0745 107.886L53.5107 107.514L58.6169 107.354C58.6363 107.453 58.6515 107.514 58.6515 107.514Z" fill="black"/>
<path d="M48.1566 90.3233C48.0638 90.5668 47.9933 90.8192 47.9461 91.077C47.8307 91.7831 47.7986 92.5017 47.8506 93.2162C47.9018 94.2446 47.8506 101.137 47.8506 101.137C47.8506 101.137 46.7554 102.975 46.1448 103.623C45.5342 104.27 47.3909 105.434 47.3909 105.434C47.6678 107.109 45.9897 109.001 45.9897 109.001C44.2839 106.812 42.2209 109.542 42.2209 109.542C42.2209 109.542 41.0994 107.485 40.8198 106.75C40.5401 106.016 41.915 105.508 42.3982 105.209C42.8814 104.911 42.3746 103.152 42.3746 103.152C42.3746 103.152 41.9662 101.611 41.4816 100.205C40.997 98.7991 42.016 91.7999 42.016 91.7999C42.016 91.7999 42.0686 90.5569 42.1946 90.1235C42.2582 89.8108 42.2709 89.4888 42.232 89.1715C42.2237 89.0642 42.214 88.9746 42.2071 88.9144C42.2002 88.8541 42.1946 88.8262 42.1946 88.8262L42.214 88.791L42.9063 87.4217C42.9063 87.4217 48.4889 89.4609 48.1566 90.3233Z" fill="#005C29"/>
<path d="M58.6515 107.353C58.6515 107.353 57.4054 107.325 56.7408 107.941C56.0763 108.556 52.8641 108.076 53.0025 107.941C53.141 107.805 53.1299 106.805 53.1299 106.805C51.2455 104.075 52.853 102.967 52.853 102.967C52.853 102.967 52.0112 98.6699 51.8589 97.0758C51.7523 95.9621 51.6207 92.9694 51.5501 91.2607C51.5196 90.5261 51.5016 90.0207 51.5016 90.0207L53.0413 89.6916L53.2393 89.649L56.9527 88.8586C56.9527 88.8586 57.0551 89.5932 57.1244 90.1941C57.1589 90.4506 57.1783 90.7092 57.1825 90.9683C57.1576 91.2622 57.1825 92.1819 57.1825 92.1819L57.3085 94.9396C57.2262 95.2288 57.1838 95.5292 57.1825 95.8314C57.2074 96.1825 57.6907 101.21 57.6907 101.21C57.6907 101.21 58.5311 104.21 58.2445 104.426C57.9579 104.642 58.6515 107.353 58.6515 107.353Z" fill="#005C29"/>
<path opacity="0.1" d="M52.4861 35.462C52.3892 35.7235 52.374 36.1775 52.4003 36.6859C51.636 37.1742 50.7574 37.4239 49.8654 37.4062C48.9734 37.3886 48.1042 37.1043 47.3577 36.586C47.3166 35.864 47.2347 35.1452 47.1126 34.4336C47.1126 34.4336 52.8184 34.5673 52.4861 35.462Z" fill="black"/>
<path d="M54.6917 32.2151C54.6928 32.7445 54.6143 33.2708 54.4591 33.7739C54.1122 34.9013 53.4009 35.8623 52.4509 36.487C51.5009 37.1118 50.3733 37.36 49.2675 37.1879C48.1616 37.0157 47.1488 36.4343 46.4078 35.5464C45.6669 34.6585 45.2457 33.5212 45.2185 32.3356C45.2185 32.2944 45.2185 32.2562 45.2185 32.2151C45.2078 31.5477 45.3224 30.8848 45.5556 30.2649C45.7889 29.645 46.1361 29.0806 46.577 28.6046C47.018 28.1286 47.5439 27.7506 48.124 27.4925C48.7041 27.2345 49.3268 27.1016 49.9558 27.1016C50.5848 27.1016 51.2076 27.2345 51.7877 27.4925C52.3678 27.7506 52.8936 28.1286 53.3346 28.6046C53.7756 29.0806 54.1228 29.645 54.356 30.2649C54.5893 30.8848 54.7039 31.5477 54.6931 32.2151H54.6917Z" fill="#CF6F80"/>
<path opacity="0.1" d="M50.7041 43.2488C48.8765 42.4951 46.5255 40.0048 47.1126 38.8412C47.243 38.5475 47.3204 38.2306 47.341 37.9068L49.8429 40.0885L51.3909 41.4358L52.5678 38.2564C52.6675 38.9235 52.7671 39.4318 52.7671 39.4318C52.7671 39.4318 52.4182 39.9504 52.2133 39.9783C52.0084 40.0062 53.3265 44.3228 50.7041 43.2488Z" fill="black"/>
<path d="M57.1743 52.8911L55.085 90.1353L52.3601 90.3248L45.3044 68.7291L46.4619 43.0901L46.7056 37.6732L49.843 40.4074L51.3923 41.7546L52.6038 38.4827L54.8565 40.566L57.1743 52.8911Z" fill="#005C29"/>
<path opacity="0.1" d="M48.1566 90.3233C48.0638 90.5668 47.9933 90.8192 47.9461 91.077C45.9634 90.7522 44.0378 90.1139 42.2334 89.1833L42.196 89.1627L42.2085 88.9261L42.2154 88.8027L42.9077 87.4334C42.9077 87.4334 48.4889 89.4609 48.1566 90.3233Z" fill="black"/>
<path opacity="0.1" d="M53.0731 91.0829C52.5663 91.1744 52.0551 91.2362 51.5418 91.268C51.5113 90.5334 51.4933 90.028 51.4933 90.028L53.033 89.6989L53.0731 91.0829Z" fill="black"/>
<path opacity="0.1" d="M57.1161 90.2014C56.1317 90.4732 54.6114 90.7788 53.2504 90.5878L53.231 89.6563L56.9444 88.8659C56.9444 88.8659 57.0469 89.5932 57.1161 90.2014Z" fill="black"/>
<path opacity="0.1" d="M53.2255 90.7582C47.5488 91.7867 42.3497 88.838 42.3497 88.838L42.3996 87.8389C42.3996 87.8389 42.5283 76.5129 42.1711 75.6446C41.8139 74.7763 41.5356 70.3731 41.7377 69.6973C41.9399 69.0215 40.9998 58.8869 40.9998 58.8869L40.8475 54.7732L35.2732 52.3769L37.7654 46.8645C38.102 46.0916 38.3915 45.2966 38.6322 44.4844C39.0655 43.0534 41.0773 41.6474 41.0773 41.6474C41.0773 41.6474 43.1403 40.2428 43.9558 40.2957C44.7713 40.3486 45.8402 39.0528 45.8402 39.0528C46.6294 36.918 47.3438 37.8847 47.3438 37.8847C47.3438 37.9861 47.3438 37.8847 47.3051 38.2006C47.0282 40.544 51.7828 47.9487 51.8506 48.0795L52.3033 59.7831L52.7616 74.5941L53.2255 90.7582Z" fill="black"/>
<path d="M53.0731 90.7582C47.3964 91.7867 42.196 88.838 42.196 88.838L42.2472 87.8389C42.2472 87.8389 42.376 76.5129 42.0174 75.6446C41.6588 74.7763 41.3819 70.3731 41.5854 69.6973C41.7889 69.0215 40.8474 58.8869 40.8474 58.8869L40.6937 54.7732L35.1167 52.3681L37.6089 46.8557C37.9448 46.0825 38.2343 45.2875 38.4757 44.4756C38.9076 43.0446 40.9208 41.6385 40.9208 41.6385C40.9208 41.6385 42.9838 40.234 43.7979 40.2869C44.6121 40.3398 45.6823 39.0439 45.6823 39.0439C46.4729 36.9092 47.3438 37.8759 47.3438 37.8759C47.3438 37.9773 47.2607 38.0228 47.305 38.1918C47.9142 40.4646 51.6304 47.9399 51.6983 48.0707L52.1565 59.7743L52.6148 74.5853L53.0731 90.7582Z" fill="white"/>
<path opacity="0.1" d="M51.5432 48.4042C50.9326 48.1339 47.6983 44.2155 47.6983 44.2155V43.3237C47.5806 43.0299 46.8814 43.2091 46.3137 43.4148L46.5574 37.9979L46.8343 38.2418C47.4408 40.5131 51.4726 48.2734 51.5432 48.4042Z" fill="black"/>
<path d="M51.6969 48.0795C51.0849 47.8092 47.8506 43.8908 47.8506 43.8908V42.999C47.7329 42.7052 47.0337 42.8844 46.466 43.0901L46.7111 37.6732L46.988 37.9171C47.5958 40.1884 51.629 47.9502 51.6969 48.0795Z" fill="white"/>
<path opacity="0.1" d="M42.3497 67.6213C42.4258 67.6213 46.2971 67.1894 46.2971 67.1894C46.2971 67.1894 48.6411 72.0803 48.4875 73.2704C48.3338 74.4604 48.0555 75.5138 47.1126 75.3273C46.1697 75.1407 42.0381 75.4742 42.0381 75.4742L42.3497 67.6213Z" fill="black"/>
<path d="M42.196 67.2966C42.2721 67.2966 46.1434 66.8647 46.1434 66.8647C46.1434 66.8647 48.4861 71.7571 48.3338 72.9457C48.1815 74.1342 47.9004 75.1891 46.9589 75.0025C46.0174 74.816 41.8845 75.1495 41.8845 75.1495L42.196 67.2966Z" fill="white"/>
<path d="M45.1133 65.0002C45.1133 65.0002 48.6661 67.0263 48.7422 67.6448C48.8184 68.2633 46.934 67.3745 46.5269 67.2672C46.259 67.1987 45.9863 67.1535 45.7114 67.1321L42.9963 67.2099L45.1133 65.0002Z" fill="#CF6F80"/>
<path opacity="0.1" d="M50.5519 48.6569C50.7583 48.6569 50.9257 48.4793 50.9257 48.2602C50.9257 48.0411 50.7583 47.8635 50.5519 47.8635C50.3454 47.8635 50.178 48.0411 50.178 48.2602C50.178 48.4793 50.3454 48.6569 50.5519 48.6569Z" fill="black"/>
<path d="M50.5519 48.4953C50.7583 48.4953 50.9257 48.3177 50.9257 48.0986C50.9257 47.8795 50.7583 47.7019 50.5519 47.7019C50.3454 47.7019 50.178 47.8795 50.178 48.0986C50.178 48.3177 50.3454 48.4953 50.5519 48.4953Z" fill="#3F3D56"/>
<path opacity="0.1" d="M51.24 65.8289C51.4464 65.8289 51.6138 65.6513 51.6138 65.4322C51.6138 65.2131 51.4464 65.0355 51.24 65.0355C51.0335 65.0355 50.8661 65.2131 50.8661 65.4322C50.8661 65.6513 51.0335 65.8289 51.24 65.8289Z" fill="black"/>
<path d="M51.24 65.6658C51.4464 65.6658 51.6138 65.4882 51.6138 65.2691C51.6138 65.05 51.4464 64.8724 51.24 64.8724C51.0335 64.8724 50.8661 65.05 50.8661 65.2691C50.8661 65.4882 51.0335 65.6658 51.24 65.6658Z" fill="#3F3D56"/>
<path opacity="0.1" d="M50.9243 57.2429C51.1308 57.2429 51.2981 57.0653 51.2981 56.8462C51.2981 56.6271 51.1308 56.4495 50.9243 56.4495C50.7178 56.4495 50.5505 56.6271 50.5505 56.8462C50.5505 57.0653 50.7178 57.2429 50.9243 57.2429Z" fill="black"/>
<path d="M50.9243 57.0813C51.1308 57.0813 51.2981 56.9037 51.2981 56.6846C51.2981 56.4655 51.1308 56.2879 50.9243 56.2879C50.7178 56.2879 50.5505 56.4655 50.5505 56.6846C50.5505 56.9037 50.7178 57.0813 50.9243 57.0813Z" fill="#3F3D56"/>
<path d="M59.5418 67.0498C59.5418 67.0498 59.7966 67.4553 59.5418 67.6448C59.2871 67.8343 59.5668 68.2927 59.5668 68.2927C59.5668 68.2927 58.9313 68.688 59.2109 69.0435C59.4906 69.399 59.3134 71.0049 59.3134 71.0049L58.5491 72.3477C58.5491 72.3477 58.5948 73.2131 58.5976 74.3826C58.5976 76.2073 58.4965 78.7725 57.9371 79.942L58.0147 89.5373C58.0147 89.5373 55.3383 90.5746 53.0981 90.2587L52.7658 74.8615C52.7658 74.8615 53.2504 66.1301 53.429 64.4552C53.5335 63.5857 53.5761 62.709 53.5564 61.8327C53.5564 61.8327 53.4802 59.2116 53.2241 57.9951C53.2241 57.9951 52.9472 52.7251 52.9195 51.2662C52.907 50.5683 52.9416 48.532 52.9804 46.5956C53.0233 44.4785 53.0718 42.4819 53.0718 42.4819L52.5664 38.2388C52.5664 38.2388 53.0718 38.1845 53.2241 38.4004C53.2923 38.4681 53.3665 38.5286 53.4456 38.5811C54.3179 39.207 57.3999 41.1317 57.3999 41.1317C57.3999 41.1317 59.1057 41.8516 59.5142 42.883C59.9226 43.9143 60.2064 44.646 60.4044 44.9398C60.6024 45.2337 60.7104 46.6147 60.7104 46.6147C60.7104 46.6147 61.2975 49.1564 61.7558 49.5869C62.2141 50.0174 62.5491 52.756 62.5491 52.756L58.4993 56.1351C58.4993 56.1351 58.1434 61.7563 58.0673 61.9737C57.9911 62.1912 59.5418 67.0498 59.5418 67.0498Z" fill="white"/>
<path d="M59.6955 67.0498C59.6955 67.0498 59.9489 67.4553 59.6955 67.6448C59.4422 67.8343 59.7191 68.2927 59.7191 68.2927C59.7191 68.2927 59.0877 68.6924 59.3646 69.0479C59.6415 69.4034 59.4671 71.0093 59.4671 71.0093L58.7028 72.3521C58.7028 72.3521 58.7485 73.2175 58.7526 74.387C58.7526 76.2117 58.6516 78.7769 58.0922 79.9464L58.1683 89.5417C58.1683 89.5417 55.4878 90.579 53.2504 90.2631L52.9195 74.8659C52.9195 74.8659 53.4041 66.1345 53.5827 64.4596C53.6873 63.5901 53.7294 62.7134 53.7087 61.8371C53.7087 61.8371 53.6325 59.216 53.3778 57.9995C53.3778 57.9995 53.1008 52.7295 53.0718 51.2706C53.0593 50.5727 53.0953 48.5364 53.1327 46.6C53.1756 44.4829 53.2241 42.4863 53.2241 42.4863L52.5567 38.1859C52.5567 38.1859 53.2241 38.1859 53.3778 38.4048C53.4453 38.4733 53.5196 38.5338 53.5993 38.5856C54.4716 39.2114 57.555 41.1361 57.555 41.1361C57.555 41.1361 59.2594 41.856 59.6678 42.8874C60.0763 43.9187 60.3601 44.6504 60.5595 44.9442C60.7589 45.2381 60.8641 46.6191 60.8641 46.6191C60.8641 46.6191 61.4512 49.1608 61.9094 49.5913C62.3677 50.0218 62.6986 52.7545 62.6986 52.7545L58.6488 56.1337C58.6488 56.1337 58.293 61.7548 58.2154 61.9722C58.1379 62.1897 59.6955 67.0498 59.6955 67.0498Z" fill="white"/>
<path opacity="0.1" d="M54.8454 43.7336L55.2109 44.8649L53.2864 46.9218C53.3293 44.8061 53.3777 42.808 53.3777 42.808L52.7104 38.5077C52.7104 38.5077 53.3777 38.5077 53.5314 38.7266C53.5988 38.7948 53.6731 38.8549 53.753 38.9058L55.3895 43.9158L54.8454 43.7336Z" fill="black"/>
<path d="M54.6917 43.4089L55.0586 44.5402L53.1341 46.5971C53.177 44.48 53.2254 42.4833 53.2254 42.4833L52.5567 38.183C52.5567 38.183 53.2254 38.183 53.3778 38.4019C53.4457 38.4699 53.5199 38.5304 53.5993 38.5826L55.2372 43.5911L54.6917 43.4089Z" fill="white"/>
<path opacity="0.1" d="M54.6917 32.2151C54.6928 32.7445 54.6143 33.2708 54.4591 33.7739C54.433 33.7783 54.4062 33.777 54.3806 33.7702C54.3549 33.7633 54.3307 33.7511 54.3096 33.7342C54.2736 32.412 53.6602 31.1705 52.9056 30.1141C52.6938 29.7952 52.4369 29.5128 52.1441 29.2767C51.8481 29.0408 51.4799 28.9303 51.1112 28.9667C50.6959 29.0269 50.329 29.3267 49.9094 29.3649C49.3556 29.4133 48.8599 29.0064 48.3103 28.9858C48.0868 28.9881 47.8664 29.0409 47.6637 29.1407C47.461 29.2405 47.2807 29.385 47.1348 29.5647C46.846 29.9272 46.6315 30.3494 46.5048 30.8047C46.2871 31.495 46.1685 32.2161 46.1531 32.9438C46.1462 33.3552 46.1088 33.8709 45.7488 34.0207C45.7759 33.7182 45.7435 33.413 45.6537 33.1244C45.5638 32.8359 45.4185 32.5702 45.2268 32.3444L45.2185 32.3356C45.2185 32.2944 45.2185 32.2562 45.2185 32.2151C45.2078 31.5477 45.3224 30.8848 45.5556 30.2649C45.7889 29.645 46.1361 29.0806 46.577 28.6046C47.018 28.1286 47.5439 27.7506 48.124 27.4925C48.7041 27.2345 49.3268 27.1016 49.9558 27.1016C50.5848 27.1016 51.2076 27.2345 51.7877 27.4925C52.3678 27.7506 52.8936 28.1286 53.3346 28.6046C53.7756 29.0806 54.1228 29.645 54.356 30.2649C54.5893 30.8848 54.7039 31.5477 54.6931 32.2151H54.6917Z" fill="black"/>
<path d="M51.917 24.233C51.1975 23.8738 50.3792 23.8059 49.6159 24.042C49.2324 24.1624 48.871 24.3578 48.4819 24.4563C47.6512 24.6693 46.682 24.4386 45.9689 24.9543C45.5729 25.2482 45.3348 25.7124 45.1133 26.1635L44.5594 27.283C44.2576 27.8957 43.953 28.5186 43.827 29.193C43.701 29.8673 43.7772 30.6225 44.1801 31.1646C44.4736 31.5598 44.907 31.8081 45.2254 32.1798C45.4162 32.4059 45.5609 32.6714 45.6505 32.9596C45.7401 33.2478 45.7726 33.5526 45.746 33.8547C46.1074 33.7078 46.142 33.1906 46.1503 32.7793C46.1657 32.0515 46.2843 31.3304 46.502 30.6401C46.6284 30.1848 46.8429 29.7624 47.132 29.4001C47.278 29.2206 47.4583 29.0762 47.661 28.9764C47.8637 28.8766 48.084 28.8237 48.3075 28.8213C48.8613 28.8418 49.3583 29.2473 49.9066 29.1988C50.322 29.1621 50.6903 28.8609 51.1084 28.8022C51.4771 28.7651 51.8455 28.8757 52.1413 29.1122C52.434 29.3478 52.6905 29.6304 52.9014 29.9496C53.6574 31.006 54.2708 32.2445 54.3068 33.5697C54.4632 33.6916 54.6889 33.533 54.7665 33.3449C54.844 33.1569 54.8468 32.9365 54.9451 32.7572C55.0586 32.5501 55.276 32.4399 55.4463 32.2842C55.8783 31.8889 55.9863 31.2234 55.9696 30.6196C55.953 30.0157 55.8423 29.4031 55.9503 28.8095C56.0153 28.4451 56.1621 28.1043 56.2424 27.7443C56.3227 27.3844 56.3324 26.9803 56.1427 26.6703C55.8658 26.2149 55.2829 26.1253 54.7748 26.0827C54.1974 26.0298 53.681 26.0974 53.3127 25.5817C53.1398 25.3126 52.9452 25.0599 52.7311 24.8265C52.6578 24.7501 51.917 24.2653 51.917 24.233Z" fill="#512E4E"/>
<path opacity="0.1" d="M36.8682 55.2154L35.4214 52.3769L34.9631 56.7566C34.9631 56.7566 35.2178 58.7018 35.1666 59.0001C35.1154 59.2983 36.2106 61.9722 36.2106 61.9722C36.2106 61.9722 39.8284 68.8099 41.3058 69.1625L46.2971 65.3778L44.9735 63.5942C44.9735 63.5942 44.5152 63.4047 44.4003 63.5942C44.4003 63.5942 41.9427 59.1073 41.6879 58.7826C41.4331 58.4579 41.483 57.81 41.483 57.81C41.483 57.81 41.1009 57.3781 41.2282 56.9726C41.3556 56.5671 40.4903 55.161 40.4903 55.161L41.2795 54.378L36.8682 55.2154Z" fill="black"/>
<path d="M35.4975 52.0537L35.1153 52.3769L34.657 56.7566C34.657 56.7566 34.9118 58.7018 34.8606 59C34.8093 59.2983 35.9059 61.9722 35.9059 61.9722C35.9059 61.9722 39.5224 68.8099 40.9997 69.1625L45.9925 65.3778L44.6675 63.5942C44.6675 63.5942 44.2092 63.4047 44.0942 63.5942C44.0942 63.5942 41.6366 59.1073 41.3819 58.7826C41.1271 58.4579 41.1783 57.81 41.1783 57.81C41.1783 57.81 40.7962 57.3781 40.9236 56.9726C41.051 56.5671 40.1842 55.161 40.1842 55.161L40.9734 54.378L35.4975 52.0537Z" fill="white"/>
<path opacity="0.1" d="M59.211 69.211C59.4879 69.568 59.3134 71.1709 59.3134 71.1709L58.5491 72.5137C58.5491 72.5137 58.5948 73.3806 58.5976 74.5486L57.3127 74.9746C57.1966 75.0131 57.0735 75.0216 56.9537 74.9993C56.8338 74.977 56.7208 74.9247 56.6239 74.8466C56.527 74.7685 56.4491 74.667 56.3967 74.5505C56.3444 74.434 56.319 74.3059 56.3228 74.1769L56.5443 66.5943L59.5419 67.8108C59.2871 67.9989 59.5668 68.4602 59.5668 68.4602C59.5668 68.4602 58.9313 68.854 59.211 69.211Z" fill="black"/>
<path d="M59.3646 69.0479C59.6415 69.4049 59.4671 71.0093 59.4671 71.0093L58.7028 72.3521C58.7028 72.3521 58.7485 73.2175 58.7526 74.387L57.4442 74.8204C57.3305 74.8579 57.21 74.866 57.0927 74.8441C56.9754 74.8222 56.8647 74.7709 56.7699 74.6944C56.6751 74.6179 56.5989 74.5185 56.5476 74.4045C56.4963 74.2905 56.4714 74.1651 56.475 74.0388L56.6979 66.4327L59.6969 67.6492C59.4407 67.8373 59.7204 68.2971 59.7204 68.2971C59.7204 68.2971 59.0877 68.6923 59.3646 69.0479Z" fill="white"/>
<path d="M60.3574 65.4337C60.3574 65.4337 60.1538 66.8132 59.6443 66.8941C59.1348 66.9749 58.9063 69.1258 58.3982 69.0494C57.8901 68.973 58.2265 67.0498 58.2445 66.6766C58.2625 66.3034 57.6907 64.7578 58.1185 64.4067C58.5463 64.0556 59.9004 64.4067 59.9004 64.4067L60.3574 65.4337Z" fill="#CF6F80"/>
<path opacity="0.1" d="M61.4415 54.8099L62.4023 52.753C62.4023 52.753 62.7845 54.3207 62.7845 55.1581C62.7845 55.9955 63.3189 56.0778 63.3189 56.0778C63.3189 56.0778 63.9046 56.8124 63.5958 57.3472C63.2871 57.882 63.1625 59.2131 63.1625 59.2131C63.1625 59.2131 63.2635 61.7533 62.8053 62.1045C62.347 62.4556 62.2514 63.2945 62.2514 63.2945C62.2514 63.2945 61.4096 64.8886 61.4359 65.2676C61.4622 65.6467 60.2646 68.2134 60.2646 68.2134C60.2646 68.2134 60.8502 65.0238 57.4373 63.6457C57.4373 63.6457 57.411 62.5629 57.6658 62.2661C57.9205 61.9693 58.3179 61.8341 58.0687 60.3341C57.8194 58.834 57.9967 57.0416 57.9967 56.6817C57.9967 56.3217 58.7609 54.0768 58.7609 54.0768L61.4415 54.8099Z" fill="black"/>
<path d="M61.8568 52.4592L62.6959 52.753C62.6959 52.753 63.0794 54.3206 63.0794 55.1581C63.0794 55.9955 63.6139 56.0778 63.6139 56.0778C63.6139 56.0778 64.1995 56.8124 63.8908 57.3472C63.582 57.882 63.4588 59.2131 63.4588 59.2131C63.4588 59.2131 63.5599 61.7533 63.1016 62.1045C62.6433 62.4556 62.5408 63.2945 62.5408 63.2945C62.5408 63.2945 61.7004 64.8886 61.7267 65.2676C61.753 65.6467 60.554 68.2134 60.554 68.2134C60.554 68.2134 61.141 65.0237 57.7267 63.6456C57.7267 63.6456 57.7018 62.5628 57.9565 62.2661C58.2113 61.9693 58.6086 61.8341 58.3594 60.3341C58.1102 58.834 58.2874 57.0416 58.2874 56.6816C58.2874 56.3217 59.0517 54.0768 59.0517 54.0768L61.8568 52.4592Z" fill="white"/>
<path opacity="0.1" d="M43.3244 105.772C43.3244 105.772 44.6619 104.88 45.5397 105.528C46.4175 106.176 43.3244 105.772 43.3244 105.772Z" fill="black"/>
<path opacity="0.1" d="M53.717 103.014C53.717 103.014 54.9008 102.853 55.8949 103.988C56.889 105.124 53.717 103.014 53.717 103.014Z" fill="black"/>
<g opacity="0.1">
<path d="M55.4491 31.9624C55.2788 32.1181 55.06 32.2298 54.9465 32.437C54.8496 32.6147 54.8468 32.8336 54.7693 33.0246C54.6917 33.2156 54.466 33.3714 54.3096 33.2509C54.2736 31.9286 53.6588 30.6871 52.9043 29.6293C52.6933 29.3101 52.4368 29.0276 52.1441 28.7919C51.8478 28.5555 51.479 28.4449 51.1099 28.4819C50.6945 28.5421 50.329 28.8418 49.9094 28.8786C49.3556 28.9285 48.8586 28.5215 48.3089 28.501C48.0855 28.5033 47.8652 28.5563 47.6627 28.6564C47.4602 28.7565 47.2802 28.9014 47.1348 29.0813C46.8457 29.4431 46.6311 29.8649 46.5048 30.3198C46.2872 31.0102 46.1687 31.7313 46.1531 32.459C46.1448 32.8689 46.1088 33.3802 45.7516 33.533C45.7599 33.6415 45.7599 33.7506 45.7516 33.8591C46.1116 33.7122 46.1476 33.1951 46.1559 32.7837C46.1713 32.0559 46.2899 31.3348 46.5076 30.6445C46.6339 30.1892 46.8485 29.7668 47.1375 29.4045C47.2833 29.2251 47.4634 29.0806 47.6658 28.9808C47.8683 28.881 48.0884 28.8281 48.3117 28.8257C48.8655 28.8462 49.3639 29.2517 49.9122 29.2032C50.3276 29.1665 50.6959 28.8653 51.1126 28.8066C51.4817 28.7696 51.8506 28.8802 52.1469 29.1166C52.4396 29.3523 52.696 29.6348 52.907 29.954C53.6616 31.0104 54.2764 32.2489 54.3124 33.5741C54.4688 33.6961 54.6945 33.5374 54.772 33.3493C54.8496 33.1613 54.8523 32.9409 54.9493 32.7616C55.0628 32.5545 55.2815 32.4443 55.4518 32.2886C55.8838 31.8933 55.9918 31.2278 55.9752 30.624C55.9752 30.6049 55.9752 30.5858 55.9752 30.5681C55.9489 31.0912 55.8174 31.6245 55.4491 31.9624Z" fill="black"/>
<path d="M45.2282 31.8581C44.9098 31.4864 44.475 31.2381 44.1829 30.8444C43.9369 30.4958 43.7964 30.0762 43.7799 29.6411C43.7364 30.1848 43.8795 30.727 44.1829 31.1676C44.475 31.5628 44.9098 31.8111 45.2282 32.1828C45.534 32.5464 45.7175 33.0073 45.7502 33.4933C45.7714 33.1975 45.7361 32.9002 45.6464 32.6192C45.5567 32.3382 45.4145 32.0794 45.2282 31.8581Z" fill="black"/>
<path d="M56.2452 27.4226C56.1635 27.7825 56.0181 28.1249 55.9517 28.4878C55.9123 28.7302 55.8979 28.9766 55.9088 29.2224C55.9134 29.0823 55.9277 28.9429 55.9517 28.8051C56.0181 28.4407 56.1635 28.0999 56.2452 27.7399C56.2928 27.5414 56.3083 27.3357 56.2909 27.1317C56.2823 27.2297 56.267 27.3269 56.2452 27.4226Z" fill="black"/>
</g>
<path opacity="0.1" d="M18.3773 111.746C25.8283 111.746 31.8685 110.716 31.8685 109.446C31.8685 108.177 25.8283 107.147 18.3773 107.147C10.9263 107.147 4.88611 108.177 4.88611 109.446C4.88611 110.716 10.9263 111.746 18.3773 111.746Z" fill="#005C29"/>
<path d="M18.8121 65.3999H17.944V86.1405H18.8121V65.3999Z" fill="#535461"/>
<path d="M24.2673 86.0774L24.2133 87.0118L24.1358 88.3341L24.1039 88.8835L24.0278 90.2058L23.9945 90.7553L23.917 92.0776L23.042 107.074C23.0039 107.719 22.7356 108.324 22.2917 108.767C21.8477 109.21 21.2614 109.456 20.6522 109.457H16.1025C15.4934 109.456 14.9073 109.21 14.4636 108.767C14.0198 108.324 13.7518 107.719 13.7141 107.074L12.8432 92.0673L12.7657 90.745L12.7339 90.1955L12.6563 88.8733L12.6245 88.3238L12.5469 87.0015L12.4916 86.0671C12.4819 85.8873 12.5071 85.7072 12.5654 85.538C12.6237 85.3689 12.7139 85.2141 12.8306 85.0833C12.9473 84.9524 13.0879 84.8483 13.2439 84.7772C13.3999 84.7061 13.5679 84.6696 13.7377 84.6699H23.0433C23.2125 84.6714 23.3795 84.7097 23.5341 84.7824C23.6887 84.8551 23.8277 84.9607 23.9424 85.0926C24.057 85.2245 24.1451 85.3799 24.2009 85.5493C24.2568 85.7186 24.2794 85.8984 24.2673 86.0774Z" fill="#3F3D56"/>
<path d="M24.2133 87.0118L24.1357 88.3297H12.6189L12.5414 87.0118H24.2133Z" fill="#9D9CB5"/>
<path d="M24.1039 88.8791L24.0277 90.1985H12.7283L12.6508 88.8791H24.1039Z" fill="#9D9CB5"/>
<path d="M23.9945 90.7494L23.9183 92.0673H12.8377L12.7601 90.7494H23.9945Z" fill="#9D9CB5"/>
<path d="M11.2164 73.1734C16.2714 77.055 18.3815 83.1258 18.3815 83.1258C18.3815 83.1258 12.2894 82.9039 7.23297 79.0223C2.17654 75.1407 0.0706177 69.0714 0.0706177 69.0714C0.0706177 69.0714 6.15993 69.2918 11.2164 73.1734Z" fill="#005C29"/>
<path d="M0.0664673 69.0714C0.0664673 69.0714 6.39116 72.7958 8.41955 75.8797C10.4479 78.9635 18.3815 83.1258 18.3815 83.1258" stroke="#535461" stroke-width="2" stroke-miterlimit="10"/>
<path d="M14.4798 65.3543C17.2309 67.4656 18.3815 70.7698 18.3815 70.7698C18.3815 70.7698 15.0654 70.6493 12.3129 68.5381C9.5604 66.4268 8.4126 63.1212 8.4126 63.1212C8.4126 63.1212 11.7272 63.2416 14.4798 65.3543Z" fill="#005C29"/>
<path d="M8.4126 63.1212C8.4126 63.1212 11.8546 65.1486 12.9581 66.8265C14.0616 68.5043 18.3815 70.7698 18.3815 70.7698" stroke="#535461" stroke-width="2" stroke-miterlimit="10"/>
<path d="M22.376 70.6023C19.215 74.2885 18.5463 79.106 18.5463 79.106C18.5463 79.106 23.0032 77.9454 26.1614 74.2577C29.3196 70.57 29.9911 65.754 29.9911 65.754C29.9911 65.754 25.5369 66.9161 22.376 70.6023Z" fill="#005C29"/>
<path d="M29.9939 65.7554C29.9939 65.7554 25.8762 69.5342 24.8294 72.1376C23.7827 74.741 18.5463 79.106 18.5463 79.106" stroke="#535461" stroke-width="2" stroke-miterlimit="10"/>
<path d="M138.411 69.305C138.411 69.305 136.125 57.237 137 55.7355C137 55.7355 137.032 54.3398 136.979 52.5606C136.979 52.493 136.979 52.4254 136.979 52.3563C137.133 52.4653 137.294 52.5634 137.46 52.6502C138.266 53.0897 139.191 53.2165 140.076 53.0087L139.384 52.1903C139.218 51.9949 139.045 51.7833 139.009 51.5248C138.973 51.2662 139.073 51.0355 139.158 50.8049C139.816 49.0418 139.851 46.8248 138.584 45.479C137.514 44.3477 137.253 42.8874 136.092 41.8545C135.243 41.0979 134.776 39.9886 134.336 38.9161C133.964 38.0096 133.588 37.0958 133.375 36.1349C133.209 35.3842 133.143 34.607 132.914 33.8738C132.686 33.1407 132.258 32.4281 131.589 32.1005C131.351 31.9844 131.086 31.9183 130.869 31.7641C130.584 31.5598 130.412 31.2278 130.206 30.9369C129.158 29.4677 125.648 30.3331 123.986 30.9296C123.535 31.0798 123.116 31.3257 122.757 31.6524L122.772 31.626C122.785 31.6039 122.8 31.5819 122.814 31.5598C122.632 31.7159 122.475 31.9019 122.348 32.1108C122.106 32.5178 122.005 32.9923 121.803 33.4331C121.559 33.9546 120.204 35.4106 120.787 35.9968C120.828 36.0362 120.874 36.068 120.925 36.0908C121.144 36.1875 121.385 36.213 121.617 36.1643L121.593 36.2275C121.393 36.7447 121.291 37.2981 121.292 37.8568C121.292 40.2707 123.168 42.2277 125.485 42.2277C125.92 42.2281 126.353 42.1573 126.768 42.0176C126.778 42.0734 126.786 42.1293 126.796 42.1851C126.796 42.2071 126.803 42.2292 126.805 42.2512L126.732 42.3599C126.728 42.3532 126.724 42.3468 126.72 42.3408L124.546 45.5642C124.213 45.8125 122.3 47.2817 122.192 48.3836C122.078 49.5898 121.965 51.0017 121.965 51.0017L121.95 51.3044C121.855 51.3886 121.744 51.45 121.624 51.4842C121.505 51.5185 121.379 51.5248 121.257 51.5027C120.579 51.3852 120.579 54.1473 120.579 54.1473C120.579 54.1473 120.128 54.588 119.817 54.2061C119.507 53.8241 118.688 55.1184 118.688 55.1184L113.551 55.3535L113.433 55.3608L113.156 54.4514C113.127 54.3555 113.062 54.2759 112.978 54.23C112.893 54.184 112.794 54.1754 112.704 54.2061C112.682 54.2135 112.661 54.2229 112.641 54.234L112.622 54.2457L112.586 54.2722L112.568 54.2898C112.558 54.2994 112.549 54.3097 112.54 54.3207L112.524 54.3412L112.515 54.35C112.483 54.3969 112.462 54.4511 112.453 54.5083C112.445 54.5655 112.449 54.624 112.465 54.6791L112.704 55.4593C111.712 55.6708 110.699 56.2673 111.525 57.9099L107.336 57.0886L108.691 58.2963L115.689 59.8287C115.596 60.005 115.657 60.2606 115.946 60.6206C117.192 62.1735 119.463 62.5952 120.377 62.7039C120.618 63.2767 120.92 63.8189 121.275 64.32L121.197 65.8671C121.197 65.8671 118.883 77.6589 118.459 78.2568C118.673 77.9997 118.869 77.7262 119.045 77.4385C118.373 79.8612 117.435 83.1772 117.188 83.6738C116.792 84.4671 116.425 87.6773 116.877 87.883C117.015 87.9462 117.411 87.9153 117.976 87.8698V88.1357L117.951 98.2129C117.951 98.2129 118.065 104.394 117.753 104.983C117.442 105.572 117.359 106.808 117.359 106.808C117.359 106.808 116.112 109.245 115.125 110.225C115.118 110.233 115.111 110.24 115.103 110.246L115.073 110.016C115.073 110.016 113.886 111.606 111.261 111.517C111.261 111.517 109.681 112.607 112.024 112.665C114.366 112.724 117.359 112.577 117.359 112.577C117.359 112.577 119.448 109.198 121.198 109.639V112.2H121.734V109.598C121.982 109.424 122.195 109.199 122.359 108.935C122.523 108.672 122.635 108.376 122.688 108.065C122.734 107.745 122.7 107.418 122.59 107.116C122.48 106.813 122.298 106.547 122.062 106.342C121.956 106.24 121.87 106.116 121.812 105.977C121.753 105.839 121.721 105.689 121.72 105.537L121.7 105.555C121.7 105.503 121.688 105.45 121.683 105.396C121.529 104.074 121.336 101.345 122.016 99.3266C122.948 96.5586 123.23 92.7034 122.552 90.4086C122.333 89.675 122.153 88.9289 122.013 88.1739C121.997 88.0784 121.982 87.9873 121.968 87.9021C122.431 87.9687 122.891 88.0668 123.343 88.196C124.914 88.6558 128.352 88.741 131.287 88.716C131.294 88.8013 131.302 88.8909 131.312 88.9805C131.364 89.6035 131.474 90.2195 131.639 90.8199C132.007 91.9953 132.176 97.1772 132.176 97.1772C132.176 97.1772 132.651 101.438 132.392 103.171C132.254 104.135 132.115 105.103 132.036 106.076V106.095C132.036 106.095 131.258 108.446 130.689 109.723C130.675 109.755 130.66 109.787 130.646 109.818C130.494 109.833 130.345 109.868 130.202 109.922C130.202 109.922 129.439 111.539 128.679 111.806C127.919 112.073 128.171 112.953 129.892 112.63C131.613 112.307 134.211 112.043 134.211 112.043L134.324 110.394L134.852 109.692L134.714 111.336L135.278 111.218L135.203 109.219L136.068 108.07C136.068 108.07 137.113 107.082 135.56 105.14V105.183C135.543 105.155 135.528 105.126 135.51 105.098V105.089C135.253 104.666 135.048 103.877 135.423 102.477C136.101 99.9466 136.496 97.6502 136.496 97.6502C136.496 97.6502 138.011 91.4987 136.19 88.5882H136.27C136.084 88.1787 135.952 87.7435 135.878 87.2953C135.869 87.2424 135.861 87.1881 135.854 87.1323C137.201 87.05 138.523 86.7914 139.602 86.2331C139.597 86.2272 138.948 71.6293 138.411 69.305ZM121.307 59.1235V59.1528L121.03 59.1675L121.307 59.1235ZM120.357 59.263C120.312 59.2737 120.269 59.2954 120.233 59.3262C120.114 59.505 120.039 59.7126 120.015 59.9301L119.583 59.8272C119.583 59.8272 119.28 59.7582 118.844 59.6803L118.638 59.4599C119.206 59.41 119.795 59.3365 120.357 59.263Z" fill="url(#paint1_linear_5_34)"/>
<path d="M134.65 109.239L134.486 111.321L135.038 111.204L134.955 108.945L134.65 109.239Z" fill="#1D2366"/>
<path d="M122.047 99.3545C121.381 101.367 121.569 104.084 121.718 105.403C121.774 105.891 121.825 106.188 121.825 106.188C121.825 106.188 120.83 108.594 120.747 108.685C120.663 108.776 117.817 110.62 117.817 110.62L115.827 111.853C115.827 111.853 113.808 110.914 114.776 110.591C114.974 110.507 115.152 110.378 115.298 110.213C116.267 109.236 117.484 106.808 117.484 106.808C117.484 106.808 117.568 105.575 117.872 104.989C118.177 104.403 118.066 98.2423 118.066 98.2423L118.09 88.2004V86.8913L121.876 86.9207C121.9 87.3651 121.955 87.807 122.04 88.243C122.176 88.9954 122.352 89.739 122.567 90.4703C123.235 92.7607 122.958 96.5968 122.047 99.3545Z" fill="#FFB0B1"/>
<path opacity="0.1" d="M121.825 106.188C121.825 106.188 120.83 108.594 120.747 108.685C120.663 108.776 117.817 110.62 117.817 110.62L115.827 111.853C115.827 111.853 113.808 110.914 114.776 110.591C114.974 110.507 115.152 110.378 115.298 110.213L115.384 110.855L116.047 110.826L121.724 105.406C121.774 105.891 121.825 106.188 121.825 106.188Z" fill="black"/>
<path d="M121.756 105.543L116.047 110.999L115.384 111.029L115.246 110C115.246 110 114.085 111.584 111.507 111.496C111.507 111.496 109.959 112.582 112.254 112.64C114.548 112.699 117.478 112.552 117.478 112.552C117.478 112.552 119.524 109.173 121.237 109.614V112.166H121.763V109.59C122.007 109.416 122.216 109.19 122.377 108.928C122.537 108.665 122.646 108.371 122.696 108.062C122.742 107.745 122.709 107.42 122.602 107.12C122.495 106.819 122.317 106.553 122.085 106.346C121.982 106.243 121.899 106.119 121.842 105.981C121.786 105.842 121.756 105.693 121.756 105.543Z" fill="#1D2366"/>
<path d="M135.176 102.493C134.808 103.888 135.009 104.674 135.261 105.096V105.105C135.584 105.626 135.809 106.208 135.923 106.82L135.945 106.952L133.347 110.97L131.938 111.558C131.938 111.558 129.671 110.736 130.085 110.501C130.189 110.444 130.351 110.138 130.537 109.717C131.091 108.446 131.855 106.101 131.855 106.101V106.082C131.935 105.114 132.063 104.149 132.204 103.188C132.457 101.458 131.992 97.2139 131.992 97.2139C131.992 97.2139 131.826 92.0526 131.466 90.8787C131.303 90.2819 131.195 89.6698 131.143 89.051C131.068 88.3164 131.052 87.7111 131.052 87.7111C131.052 87.7111 132.544 85.5073 135.28 87.8874C135.499 88.0773 135.692 88.2988 135.852 88.5456C137.742 91.3988 136.22 97.684 136.22 97.684C136.22 97.684 135.84 99.9701 135.176 102.493Z" fill="#FFB0B1"/>
<path opacity="0.1" d="M135.949 106.952L133.352 110.97L131.942 111.558C131.942 111.558 129.676 110.736 130.09 110.501C130.193 110.444 130.355 110.138 130.541 109.717C131.5 109.708 131.998 110.678 131.998 110.678L133.213 110.472C133.213 110.472 134.816 107.128 135.176 106.924C135.536 106.72 135.232 105.397 135.232 105.397V105.061C135.242 105.073 135.25 105.086 135.261 105.098V105.106C135.584 105.627 135.809 106.209 135.923 106.821L135.949 106.952Z" fill="black"/>
<path d="M132.081 110.764C132.081 110.764 131.388 109.416 130.062 109.914C130.062 109.914 129.316 111.53 128.569 111.791C127.823 112.053 128.072 112.934 129.759 112.613C131.445 112.291 133.987 112.025 133.987 112.025L134.098 110.381L135.812 108.064C135.812 108.064 136.834 107.081 135.314 105.146V105.483C135.314 105.483 135.618 106.805 135.258 107.009C134.898 107.213 133.3 110.559 133.3 110.559L132.081 110.764Z" fill="#1D2366"/>
<path opacity="0.1" d="M121.881 86.9178C121.904 87.3622 121.959 87.8041 122.044 88.24C120.485 87.9976 119.038 88.1181 118.09 88.1974V86.8884L121.881 86.9178Z" fill="black"/>
<path opacity="0.1" d="M136.006 88.9114C136.006 88.9114 133.791 89.026 131.149 89.0496C131.074 88.315 131.057 87.7096 131.057 87.7096C131.057 87.7096 132.55 85.5059 135.286 87.886C135.505 88.0758 135.697 88.2974 135.858 88.5442C135.901 88.6694 135.95 88.792 136.006 88.9114Z" fill="black"/>
<path d="M136.006 88.647C136.006 88.647 126.303 89.1451 123.345 88.265C120.388 87.385 117.457 88.1475 117.015 87.9433C116.573 87.739 116.932 84.5406 117.32 83.7487C117.707 82.9568 119.834 74.9482 119.834 74.9482L121.88 63.6266L124.036 62.9963L124.189 62.9507L127.945 61.8518L130.697 61.0452C130.697 61.0452 136.171 83.7193 135.701 85.3913C135.531 86.0315 135.503 86.705 135.621 87.3585C135.693 87.8048 135.822 88.2384 136.006 88.647Z" fill="#1D2366"/>
<path d="M114.747 55.8839C114.747 55.8839 112.809 58.0877 114.276 59.3159C115.744 60.5442 116.709 59.4335 116.709 59.4335L114.747 55.8839Z" fill="#C7DAF5"/>
<path opacity="0.1" d="M114.747 55.8839C114.747 55.8839 112.809 58.0877 114.276 59.3159C115.744 60.5442 116.709 59.4335 116.709 59.4335L114.747 55.8839Z" fill="black"/>
<path d="M130.408 41.3947C130.408 41.3947 130.181 41.6238 129.839 41.9618C129.352 42.4451 128.63 43.1518 127.991 43.7439C127.104 44.5622 126.373 45.1631 126.635 44.6504C126.897 44.1376 126.847 43.2444 126.717 42.4084C126.707 42.3526 126.699 42.2967 126.689 42.2424C126.581 41.6284 126.438 41.022 126.261 40.4265C126.261 40.4265 127.693 38.4636 128.485 37.6893C128.78 37.3955 128.986 37.275 128.999 37.4792C129.012 37.754 129.206 38.3608 129.447 39.0043C129.454 39.0248 129.461 39.0439 129.469 39.0645C129.63 39.5053 129.811 39.9578 129.97 40.3486C130.214 40.948 130.408 41.3947 130.408 41.3947Z" fill="#FFB0B1"/>
<path opacity="0.1" d="M129.469 39.0645C129.335 39.8324 129.008 40.5478 128.524 41.136C128.04 41.7242 127.416 42.1637 126.717 42.4084C126.607 41.7377 126.454 41.0756 126.261 40.4265C126.261 40.4265 128.957 36.7314 128.999 37.4792C129.008 37.7628 129.219 38.3916 129.469 39.0645Z" fill="black"/>
<path opacity="0.1" d="M126.448 43.3957L126.797 42.8741C126.797 42.8741 127.028 44.3698 127.878 43.7101C128.729 43.0504 128.77 48.6745 128.77 48.6745L127.858 63.1505L121.264 62.7318L121.451 55.737L122.198 52.2109L124.043 47.0849L125.141 45.3909L126.448 43.3957Z" fill="black"/>
<path d="M128.77 48.7642L127.939 61.8532L127.852 63.2402L124.176 63.0066L124.038 62.9977L121.269 62.8214L121.455 55.8251L122.202 52.299L124.047 47.173L125.145 45.479L126.452 43.4765L126.801 42.9564C126.801 42.9564 127.033 44.4521 127.883 43.7924L127.901 43.7792C128.731 43.2209 128.77 48.7642 128.77 48.7642Z" fill="#1D2366"/>
<path d="M122.295 51.0737C122.295 51.0737 121.964 51.8083 121.299 51.6893C120.634 51.5703 120.636 54.3339 120.636 54.3339C120.636 54.3339 120.194 54.7746 119.89 54.3926C119.585 54.0107 118.782 55.3021 118.782 55.3021L113.75 55.5372C113.75 55.5372 115.989 56.6229 115.55 59.908C115.55 59.908 123.152 59.4085 123.401 58.646C123.65 57.8835 122.295 51.0737 122.295 51.0737Z" fill="white"/>
<path opacity="0.03" d="M122.295 51.0737C122.295 51.0737 121.964 51.8083 121.299 51.6893C120.634 51.5703 120.636 54.3339 120.636 54.3339C120.636 54.3339 120.194 54.7746 119.89 54.3926C119.585 54.0107 118.782 55.3021 118.782 55.3021L113.75 55.5372C113.75 55.5372 115.989 56.6229 115.55 59.908C115.55 59.908 123.152 59.4085 123.401 58.646C123.65 57.8835 122.295 51.0737 122.295 51.0737Z" fill="black"/>
<path d="M107.672 57.2635L108.999 58.4653L119.917 60.8997L118.563 59.4335L107.672 57.2635Z" fill="white"/>
<path d="M126.469 43.8585C126.288 44.1523 125.768 45.6568 125.335 46.9702C124.974 48.0648 124.672 49.0271 124.672 49.0271C124.672 49.0271 123.967 53.896 123.607 54.7761C123.247 55.6561 123.442 59.0882 123.442 59.0882L122.101 67.564C122.101 67.564 121.493 71.9349 120.554 74.5456C119.628 77.1153 118.596 78.32 118.564 78.3582C118.98 77.7617 121.244 66.0169 121.244 66.0169L121.991 51.2045C121.991 51.2045 122.101 49.797 122.211 48.5937C122.322 47.3904 124.565 45.7479 124.565 45.7479L126.728 42.4848C126.945 42.7933 126.8 43.331 126.469 43.8585Z" fill="white"/>
<path d="M120.83 62.8949C120.83 62.8949 117.645 62.748 116.103 60.7822C114.56 58.8164 119.668 59.9976 119.668 59.9976L120.996 60.3209L120.83 62.8949Z" fill="#FFB0B1"/>
<path opacity="0.1" d="M135.701 85.3927C135.531 86.0329 135.503 86.7065 135.621 87.36C132.147 87.6215 128.431 86.6254 128.431 86.6254C127.739 87.3012 125.915 88.2973 125.915 88.2973L124.921 75.2215C124.286 73.4584 124.036 64.2216 124.036 64.2216C124.036 64.2216 124.093 63.7382 124.175 63.0139C124.175 62.9963 124.175 62.9772 124.182 62.9595C124.43 60.9365 124.921 57.1386 125.162 56.6258C125.494 55.9206 124.14 54.0444 124.14 54.0444L124.756 48.4688L124.831 47.7959C126.13 47.1804 127.125 45.2146 127.125 45.2146L127.89 43.7938C128.72 43.2282 128.763 48.7715 128.763 48.7715L127.932 61.8606L130.685 61.054C130.685 61.054 136.171 83.7208 135.701 85.3927Z" fill="black"/>
<path d="M139.266 86.2963C135.48 88.2915 128.597 86.4432 128.597 86.4432C127.905 87.119 126.081 88.1152 126.081 88.1152L125.086 75.0393C124.452 73.2762 124.202 64.0394 124.202 64.0394C124.202 64.0394 125.003 57.1474 125.335 56.4436C125.432 56.238 125.385 55.9324 125.27 55.6033C124.705 54.0368 124.497 52.3508 124.663 50.6829L124.929 48.2867L125.003 47.6152C126.303 46.9982 127.298 45.0324 127.298 45.0324L127.991 43.7454L129.264 41.3741L129.868 40.2516L129.97 40.3501L130.753 41.1023C130.753 41.1023 131.085 41.3961 131.584 41.8369C132.668 42.8066 134.541 44.5138 135.507 45.5584C136.357 46.4781 136.626 50.0556 136.704 52.7486C136.755 54.5219 136.724 55.9118 136.724 55.9118C135.867 57.4089 138.109 69.4284 138.109 69.4284C138.631 71.7512 139.266 86.2963 139.266 86.2963Z" fill="white"/>
<path opacity="0.03" d="M131.998 45.003C131.998 45.003 129.399 50.2524 129.701 52.2476C130.002 54.2428 130.861 56.5009 130.447 57.0284C130.305 57.2282 130.121 57.3904 129.91 57.5023C129.698 57.6142 129.466 57.6727 129.23 57.6734C128.814 57.7027 127.707 58.524 127.707 58.6122C127.707 58.7003 126.684 58.7003 125.768 59.1117C124.853 59.5231 123.502 59.7567 123.502 59.7567C123.502 59.7567 120.871 59.6685 120.626 59.933C120.381 60.1974 120.129 61.7798 120.654 63.0418C121.179 64.3039 121.761 65.2456 122.202 65.4175C122.642 65.5894 125.436 64.5962 127.703 64.3612C129.969 64.1261 132.43 62.2205 132.43 62.2205C132.43 62.2205 135.139 61.1921 135.614 59.4628C136.089 57.7336 135.034 48.2294 135.034 48.2294C135.034 48.2294 134.236 43.7997 131.998 45.003Z" fill="black"/>
<path opacity="0.03" d="M131.665 44.5622C131.665 44.5622 129.066 49.8132 129.371 51.8069C129.676 53.8006 130.531 56.0602 130.116 56.5891C129.974 56.7891 129.791 56.9515 129.58 57.0635C129.369 57.1754 129.136 57.2338 128.9 57.2341C128.485 57.2635 127.377 58.0847 127.377 58.1729C127.377 58.261 126.354 58.261 125.439 58.6709C124.524 59.0809 123.172 59.3159 123.172 59.3159C123.172 59.3159 120.542 59.2278 120.298 59.4922C120.054 59.7567 119.799 61.3405 120.326 62.6011C120.852 63.8616 121.433 64.8049 121.874 64.9767C122.314 65.1486 125.108 64.1555 127.374 63.9219C129.641 63.6883 132.101 61.7798 132.101 61.7798C132.101 61.7798 134.81 60.7513 135.279 59.0236C135.748 57.2958 134.699 47.7886 134.699 47.7886C134.699 47.7886 133.904 43.3604 131.665 44.5622Z" fill="black"/>
<path d="M131.916 44.7385C131.916 44.7385 129.317 49.9895 129.622 51.9832C129.926 53.9769 130.782 56.2365 130.368 56.7639C130.226 56.9644 130.042 57.1272 129.831 57.2394C129.62 57.3516 129.387 57.4101 129.151 57.4104C128.735 57.4398 127.628 58.261 127.628 58.3477C127.628 58.4344 126.606 58.4359 125.689 58.8473C124.773 59.2586 123.423 59.4922 123.423 59.4922C123.423 59.4922 120.792 59.4041 120.547 59.6685C120.302 59.933 120.05 61.5168 120.575 62.7774C121.1 64.0379 121.683 64.9811 122.123 65.153C122.563 65.3249 125.357 64.3318 127.624 64.0967C129.89 63.8616 132.351 61.9561 132.351 61.9561C132.351 61.9561 135.06 60.9276 135.535 59.1984C136.01 57.4691 134.962 47.9649 134.962 47.9649C134.962 47.9649 134.153 43.5426 131.916 44.7385Z" fill="white"/>
<path opacity="0.1" d="M131.859 58.8223C131.859 58.8223 129.782 58.3815 130.505 59.1161C131.228 59.8507 131.224 60.4942 132.108 60.4648C132.993 60.4355 131.859 58.8223 131.859 58.8223Z" fill="black"/>
<path opacity="0.1" d="M135.369 74.6279C135.369 74.6279 134.43 75.3023 136.226 76.8567C138.022 78.4111 135.369 74.6279 135.369 74.6279Z" fill="black"/>
<path opacity="0.1" d="M133.577 80.1712C133.577 80.2593 133.245 83.4034 134.488 84.1894C135.732 84.9755 133.577 80.1712 133.577 80.1712Z" fill="black"/>
<path d="M113.836 55.5298C112.834 55.5665 110.668 55.8912 111.791 58.1141C112.784 60.0814 114.452 58.7665 115.391 57.7689C115.162 56.8388 114.606 56.0374 113.836 55.5298Z" fill="#FFB0B1"/>
<path opacity="0.1" d="M131.584 41.9265C130.52 42.6978 129.629 43.3487 129.454 43.4838C128.978 43.8585 128.07 46.0579 127.484 47.1803C127.017 48.0839 125.501 48.316 124.929 48.3733L125.003 47.7019C126.303 47.0848 127.298 45.1191 127.298 45.1191L129.868 40.3383L130.753 41.1919C130.753 41.1919 131.085 41.4857 131.584 41.9265Z" fill="black"/>
<path d="M131.584 41.8384C130.52 42.6097 129.629 43.2605 129.454 43.3972C128.978 43.7704 128.07 45.9697 127.484 47.0922C127.017 47.9958 125.501 48.2279 124.929 48.2852L125.003 47.6138C126.303 46.9967 127.298 45.0309 127.298 45.0309L129.868 40.2502L130.753 41.1008C130.753 41.1008 131.085 41.3917 131.584 41.8384Z" fill="#DCE7FF"/>
<path d="M129.537 38.0948C129.538 38.9768 129.286 39.8381 128.814 40.5646C128.258 41.4235 127.43 42.0423 126.48 42.3086C125.53 42.5749 124.522 42.4712 123.638 42.0162C122.754 41.5611 122.053 40.785 121.663 39.8286C121.272 38.8721 121.217 37.7988 121.509 36.8033C121.8 35.8078 122.418 34.9561 123.25 34.4027C124.083 33.8493 125.075 33.6309 126.046 33.7872C127.017 33.9434 127.904 34.4639 128.544 35.2543C129.185 36.0446 129.537 37.0524 129.537 38.0948Z" fill="#FFB0B1"/>
<path opacity="0.1" d="M136.704 52.7501C136.141 52.3831 135.683 51.8611 135.379 51.2397C135.147 50.7549 134.994 50.1951 134.599 49.8513C134.243 49.5428 133.768 49.4679 133.325 49.3298C131.869 48.8729 130.648 47.4624 130.602 45.8522C130.58 45.0941 130.803 44.3374 130.702 43.5867C130.644 43.1618 130.485 42.7596 130.239 42.4187C130.117 42.2556 129.983 42.1028 129.839 41.9618C129.645 41.7678 129.442 41.5798 129.264 41.3741C129.153 41.2467 129.055 41.1062 128.974 40.9554C128.908 40.8319 128.854 40.7014 128.814 40.566C128.537 39.6669 128.789 38.6002 128.485 37.6908L128.468 37.6408C128.353 37.3176 128.119 36.9944 127.794 36.9694C127.469 36.9444 127.19 37.2309 126.88 37.3588C126.231 37.6261 125.53 37.1707 124.989 36.7064C124.447 36.2422 123.837 35.7118 123.149 35.8146C122.693 35.8837 122.333 36.2128 121.914 36.3832C121.819 36.4221 121.721 36.4521 121.622 36.4728C121.977 35.5333 122.629 34.7543 123.466 34.2696C124.304 33.785 125.274 33.625 126.211 33.8171C127.148 34.0092 127.992 34.5414 128.599 35.3223C129.206 36.1032 129.538 37.084 129.537 38.0963C129.538 38.402 129.507 38.7068 129.447 39.0057C129.454 39.0263 129.461 39.0454 129.469 39.066C129.63 39.5067 129.811 39.9592 129.971 40.35L130.753 41.1023C130.753 41.1023 131.085 41.3961 131.584 41.8369C132.668 42.8065 134.541 44.5138 135.507 45.5584C136.357 46.481 136.623 50.057 136.704 52.7501Z" fill="black"/>
<path d="M121.865 33.699C122.063 33.2715 122.162 32.7925 122.398 32.387C122.746 31.7993 123.352 31.4232 123.975 31.1955C125.602 30.6005 129.04 29.7366 130.067 31.1955C130.27 31.4893 130.437 31.8155 130.717 32.0182C130.93 32.1725 131.188 32.2386 131.422 32.3547C132.076 32.6808 132.495 33.3919 132.718 34.1177C132.94 34.8435 133.007 35.6222 133.17 36.37C133.379 37.3294 133.746 38.2388 134.112 39.1424C134.542 40.209 134.999 41.3153 135.83 42.069C136.964 43.0975 137.215 44.5534 138.267 45.6818C139.513 47.0217 139.473 49.2328 138.83 50.9885C138.746 51.2192 138.65 51.4601 138.684 51.7055C138.717 51.9508 138.889 52.1742 139.051 52.3696L139.732 53.185C138.12 53.5978 136.297 52.7045 135.546 51.1369C135.315 50.6521 135.161 50.0938 134.765 49.7485C134.411 49.44 133.935 49.3665 133.493 49.2284C132.036 48.77 130.815 47.3581 130.769 45.7479C130.747 44.9913 130.97 44.2346 130.869 43.4853C130.813 43.0576 130.653 42.6526 130.405 42.31C130.025 41.7825 129.45 41.4284 129.14 40.8408C128.615 39.8579 129.014 38.5811 128.636 37.5263C128.52 37.203 128.287 36.8798 127.962 36.8548C127.636 36.8299 127.358 37.1163 127.046 37.2442C126.398 37.5116 125.698 37.0576 125.156 36.5918C124.615 36.1261 124.004 35.5972 123.315 35.7015C122.859 35.7691 122.501 36.0982 122.081 36.2701C121.771 36.3964 121.143 36.5096 120.871 36.2319C120.298 35.6721 121.626 34.222 121.865 33.699Z" fill="#591D4B"/>
<path opacity="0.1" d="M135.931 50.6521C135.698 50.1672 135.546 49.6089 135.15 49.2651C134.796 48.9566 134.319 48.8817 133.876 48.7436C132.421 48.2867 131.2 46.8748 131.153 45.2645C131.131 44.5079 131.354 43.7498 131.254 43.0005C131.196 42.5755 131.036 42.1733 130.79 41.8325C130.408 41.305 129.833 40.951 129.525 40.3633C129 39.3818 129.399 38.1051 129.019 37.0488C128.904 36.727 128.67 36.4038 128.346 36.3773C128.022 36.3509 127.741 36.6403 127.431 36.7682C126.783 37.0355 126.081 36.5801 125.541 36.1158C125.001 35.6516 124.388 35.1212 123.7 35.224C123.244 35.2931 122.884 35.6222 122.466 35.7926C122.156 35.919 121.526 36.0335 121.255 35.7559C120.684 35.1682 122.012 33.721 122.25 33.2009C122.448 32.7719 122.546 32.2944 122.785 31.8889C122.797 31.8669 122.811 31.8449 122.825 31.8228C122.647 31.9794 122.493 32.1649 122.369 32.3723C122.132 32.7778 122.034 33.2538 121.836 33.6843C121.597 34.2044 120.269 35.656 120.841 36.2392C121.118 36.5184 121.741 36.4038 122.051 36.2774C122.466 36.1055 122.829 35.7764 123.284 35.7089C123.977 35.6045 124.586 36.1349 125.126 36.5992C125.666 37.0635 126.372 37.5189 127.017 37.2515C127.327 37.1237 127.599 36.8357 127.931 36.8622C128.263 36.8886 128.485 37.2104 128.605 37.5336C128.983 38.5885 128.585 39.8652 129.109 40.8481C129.419 41.4255 129.994 41.7869 130.375 42.3173C130.623 42.66 130.782 43.0649 130.839 43.4927C130.94 44.242 130.717 44.9986 130.739 45.7552C130.785 47.3713 132.006 48.7774 133.462 49.2358C133.901 49.3739 134.38 49.4473 134.735 49.7559C135.132 50.1011 135.289 50.6594 135.516 51.1442C136.266 52.7119 138.09 53.6052 139.701 53.1923L139.38 52.8074C137.983 52.8294 136.569 51.9861 135.931 50.6521Z" fill="black"/>
<path opacity="0.1" d="M126.386 43.9467C126.205 44.2405 125.685 45.7449 125.252 47.0584C124.846 46.8909 124.478 45.8228 124.478 45.8228L126.641 42.5583C126.862 42.8815 126.717 43.4177 126.386 43.9467Z" fill="black"/>
<path d="M126.469 43.8585C126.288 44.1523 125.768 45.6568 125.335 46.9703C124.929 46.8042 124.561 45.7347 124.561 45.7347L126.724 42.4716C126.945 42.7933 126.8 43.3311 126.469 43.8585Z" fill="#DCE7FF"/>
<path d="M113.894 58.8678L112.695 54.8554C112.681 54.8085 112.676 54.759 112.68 54.7098C112.684 54.6607 112.697 54.6128 112.718 54.569C112.739 54.5252 112.769 54.4862 112.804 54.4545C112.84 54.4227 112.881 54.3987 112.925 54.3838C113.014 54.3543 113.111 54.3633 113.194 54.409C113.277 54.4547 113.34 54.5333 113.368 54.6277L114.567 58.6357L114.448 59.4746L113.894 58.8678Z" fill="#BE8B87"/>
<path opacity="0.1" d="M112.809 54.5028C112.898 54.4728 112.995 54.4816 113.079 54.5274C113.162 54.5731 113.225 54.652 113.253 54.7467L114.452 58.7547L114.362 59.3835L114.45 59.4805L114.569 58.6416L113.363 54.6336C113.334 54.5392 113.271 54.4605 113.188 54.4149C113.105 54.3692 113.009 54.3601 112.92 54.3897C112.845 54.4156 112.78 54.4673 112.735 54.5366C112.759 54.5232 112.784 54.5119 112.809 54.5028Z" fill="white"/>
<path d="M113.894 58.8678L114.567 58.6416L114.469 59.3292L114.448 59.4805L114.252 59.263L113.894 58.8678Z" fill="#EFC8C4"/>
<path d="M114.252 59.263C114.263 59.2473 114.278 59.2343 114.294 59.2248C114.304 59.2183 114.315 59.2148 114.327 59.2148C114.339 59.2148 114.35 59.2183 114.36 59.2248C114.369 59.2369 114.377 59.2503 114.383 59.2645C114.392 59.2807 114.405 59.2945 114.42 59.305C114.434 59.3154 114.451 59.3222 114.469 59.3247L114.448 59.4717L114.252 59.263Z" fill="#727A9C"/>
<path d="M112.688 56.2806C112.688 56.2806 115.093 56.2659 114.527 57.3516C113.961 58.4374 113.076 58.5681 113.076 58.5681L112.688 56.2806Z" fill="#FFB0B1"/>
<path d="M97.7309 7.55461H97.6271C93.4955 7.55461 89.8417 9.87447 87.7399 13.2977C85.6381 9.87447 81.9843 7.55461 77.8527 7.55461H77.7489C74.6483 7.58597 71.6846 8.9145 69.5019 11.2515C67.3192 13.5885 66.0939 16.7452 66.0922 20.0354C66.0922 24.1213 67.7786 29.9187 71.067 34.6892C77.3321 43.7792 87.7399 51.7319 87.7399 51.7319C87.7399 51.7319 98.1477 43.7806 104.411 34.6892C107.701 29.9187 109.386 24.1213 109.386 20.0354C109.385 16.7454 108.159 13.589 105.977 11.252C103.795 8.91506 100.831 7.58635 97.7309 7.55461ZM96.2453 35.3886C95.7747 35.3867 95.3158 35.2338 94.9286 34.9501C94.5414 34.6664 94.2441 34.2651 94.0757 33.7989H91.6056C91.4429 33.7978 91.2847 33.7429 91.1529 33.6417C91.0211 33.5406 90.9223 33.3983 90.8704 33.2347L90.1117 30.8091L87.7108 39.7109C87.6641 39.8823 87.5662 40.033 87.4319 40.1402C87.2975 40.2475 87.134 40.3057 86.9659 40.306H86.9175C86.742 40.297 86.5748 40.2244 86.4438 40.1003C86.3128 39.9762 86.2258 39.8082 86.1975 39.6243L83.7233 23.8333L81.915 33.1774C81.8736 33.3549 81.7773 33.5126 81.6415 33.6252C81.5057 33.7379 81.3383 33.799 81.166 33.7989H77.6866C77.5823 33.8036 77.4782 33.7858 77.3805 33.7467C77.2828 33.7076 77.1936 33.6479 77.1183 33.5712C77.0429 33.4946 76.9829 33.4025 76.942 33.3006C76.901 33.1988 76.8799 33.0891 76.8799 32.9783C76.8799 32.8676 76.901 32.7579 76.942 32.6561C76.9829 32.5542 77.0429 32.4621 77.1183 32.3855C77.1936 32.3088 77.2828 32.2491 77.3805 32.21C77.4782 32.1709 77.5823 32.1531 77.6866 32.1578H80.5568L83.1182 19.5947C83.1603 19.4089 83.2618 19.2445 83.4055 19.1294C83.5492 19.0143 83.7261 18.9557 83.9059 18.9637C84.0858 18.9717 84.2575 19.0457 84.3916 19.1731C84.5257 19.3006 84.614 19.4735 84.6412 19.6623L87.1681 35.7706L89.3197 27.806C89.3645 27.6383 89.4592 27.4904 89.5897 27.3845C89.7202 27.2786 89.8795 27.2203 90.0438 27.2184H90.059C90.2218 27.2184 90.3803 27.273 90.5121 27.3743C90.6439 27.4756 90.7421 27.6185 90.7929 27.7825L92.165 32.1622H94.0452C94.1789 31.7312 94.4222 31.3478 94.7482 31.0543C95.0743 30.7608 95.4705 30.5686 95.893 30.4989C96.3155 30.4292 96.7479 30.4848 97.1425 30.6594C97.5372 30.834 97.8787 31.1209 98.1293 31.4885C98.38 31.8561 98.5301 32.29 98.563 32.7424C98.596 33.1947 98.5105 33.648 98.316 34.052C98.1215 34.4561 97.8256 34.7953 97.461 35.0322C97.0963 35.2691 96.677 35.3944 96.2494 35.3944L96.2453 35.3886Z" fill="#005C29"/>
</g>
<defs>
<linearGradient id="paint0_linear_5_34" x1="49.3362" y1="113.844" x2="49.3362" y2="23.4381" gradientUnits="userSpaceOnUse">
<stop stop-color="#808080" stop-opacity="0.25"/>
<stop offset="0.54" stop-color="#808080" stop-opacity="0.12"/>
<stop offset="1" stop-color="#808080" stop-opacity="0.1"/>
</linearGradient>
<linearGradient id="paint1_linear_5_34" x1="123.701" y1="112.701" x2="123.701" y2="30.1318" gradientUnits="userSpaceOnUse">
<stop stop-color="#808080" stop-opacity="0.25"/>
<stop offset="0.54" stop-color="#808080" stop-opacity="0.12"/>
<stop offset="1" stop-color="#808080" stop-opacity="0.1"/>
</linearGradient>
<clipPath id="clip0_5_34">
<rect width="153" height="115" fill="white"/>
</clipPath>
</defs>
</svg>
