<svg width="280" height="220" viewBox="0 0 280 220" fill="none" xmlns="http://www.w3.org/2000/svg">
<g clip-path="url(#clip0_15_772)">
<path d="M254.873 200.837C249.506 206.588 243.355 211.554 236.603 215.588C236.449 215.683 236.291 215.772 236.133 215.865L225.202 206.183C225.317 206.076 225.444 205.957 225.581 205.825C233.726 198.085 274.158 143.973 276.853 130.796C276.667 131.893 279.284 174.945 254.873 200.837Z" fill="#F0F0F0"/>
<path d="M238.713 217.456C238.506 217.505 238.296 217.551 238.085 217.593L229.884 210.33C230.044 210.274 230.232 210.208 230.446 210.134C233.964 208.887 244.444 205.123 254.872 200.836C266.078 196.228 277.23 191.021 279.629 187.686C279.114 188.461 263.266 211.961 238.713 217.456Z" fill="#F0F0F0"/>
<path d="M254.722 57.6174H253.554V25.6015C253.554 23.1681 253.075 20.7585 252.144 18.5104C251.214 16.2622 249.85 14.2195 248.131 12.4988C246.411 10.7782 244.37 9.41326 242.124 8.48204C239.877 7.55082 237.469 7.07153 235.038 7.07153H167.259C164.827 7.07153 162.42 7.55081 160.173 8.48202C157.927 9.41323 155.885 10.7781 154.166 12.4988C152.447 14.2195 151.083 16.2622 150.152 18.5103C149.222 20.7585 148.743 23.168 148.743 25.6014V201.243C148.743 203.677 149.222 206.086 150.152 208.334C151.083 210.582 152.447 212.625 154.166 214.346C155.885 216.067 157.927 217.431 160.173 218.363C162.419 219.294 164.827 219.773 167.259 219.773H235.038C237.469 219.773 239.877 219.294 242.124 218.363C244.37 217.431 246.411 216.067 248.131 214.346C249.85 212.625 251.214 210.582 252.144 208.334C253.075 206.086 253.554 203.677 253.554 201.243V80.4068H254.722V57.6174Z" fill="#3F3D56"/>
<path d="M249.612 25.7288V201.115C249.612 202.932 249.255 204.732 248.56 206.41C247.864 208.089 246.846 209.615 245.561 210.9C244.277 212.184 242.753 213.203 241.075 213.898C239.397 214.593 237.599 214.951 235.783 214.95H167.677C165.862 214.95 164.064 214.592 162.387 213.897C160.709 213.202 159.185 212.183 157.901 210.898C156.618 209.613 155.599 208.088 154.905 206.409C154.21 204.731 153.852 202.932 153.853 201.115V25.7288C153.852 23.9119 154.21 22.1128 154.905 20.4341C155.599 18.7555 156.618 17.2303 157.901 15.9456C159.185 14.6608 160.709 13.6418 162.387 12.9465C164.064 12.2513 165.862 11.8935 167.677 11.8937H175.942C175.537 12.892 175.382 13.9748 175.493 15.0468C175.603 16.1188 175.975 17.1472 176.576 18.0415C177.177 18.9359 177.988 19.6688 178.939 20.1757C179.889 20.6827 180.949 20.9482 182.026 20.9489H220.855C221.932 20.95 222.994 20.6856 223.945 20.1791C224.896 19.6726 225.708 18.9396 226.309 18.0447C226.911 17.1498 227.283 16.1206 227.392 15.0479C227.502 13.9752 227.346 12.8919 226.939 11.8937H235.783C237.599 11.893 239.397 12.2504 241.075 12.9454C242.753 13.6404 244.277 14.6593 245.561 15.9441C246.846 17.2289 247.864 18.7543 248.56 20.4332C249.255 22.112 249.612 23.9115 249.612 25.7288Z" fill="white"/>
<path d="M228.427 116.869H168.565C167.516 116.868 166.511 116.45 165.769 115.708C165.028 114.966 164.611 113.96 164.61 112.911V110.941C164.611 109.892 165.028 108.886 165.769 108.144C166.511 107.402 167.516 106.984 168.565 106.983H228.427C229.476 106.984 230.481 107.402 231.222 108.144C231.964 108.886 232.381 109.892 232.382 110.941V112.911C232.381 113.96 231.964 114.966 231.222 115.708C230.481 116.45 229.476 116.868 228.427 116.869Z" fill="#F0F0F0"/>
<path d="M228.427 133.851H168.565C167.516 133.849 166.511 133.432 165.769 132.69C165.028 131.948 164.611 130.942 164.61 129.893V127.923C164.611 126.873 165.028 125.867 165.769 125.125C166.511 124.384 167.516 123.966 168.565 123.965H228.427C229.476 123.966 230.481 124.384 231.222 125.125C231.964 125.867 232.381 126.873 232.382 127.923V129.893C232.381 130.942 231.964 131.948 231.222 132.69C230.481 133.432 229.476 133.849 228.427 133.851Z" fill="#F0F0F0"/>
<path d="M231.422 113.071H171.559C170.458 113.07 169.403 112.631 168.624 111.852C167.846 111.073 167.408 110.017 167.407 108.915V106.945C167.408 105.843 167.846 104.787 168.624 104.008C169.403 103.229 170.458 102.791 171.559 102.789H231.422C232.523 102.791 233.578 103.229 234.357 104.008C235.135 104.787 235.573 105.843 235.574 106.945V108.915C235.573 110.017 235.135 111.073 234.357 111.852C233.578 112.631 232.523 113.07 231.422 113.071ZM171.559 103.581C170.668 103.582 169.813 103.937 169.183 104.567C168.553 105.198 168.199 106.053 168.198 106.945V108.915C168.199 109.807 168.553 110.662 169.183 111.293C169.813 111.923 170.668 112.278 171.559 112.279H231.422C232.313 112.278 233.167 111.923 233.798 111.293C234.428 110.662 234.782 109.807 234.783 108.915V106.945C234.782 106.053 234.428 105.198 233.798 104.567C233.167 103.937 232.313 103.582 231.422 103.581H171.559Z" fill="#3F3D56"/>
<path d="M231.422 130.053H171.559C170.458 130.051 169.403 129.613 168.624 128.834C167.846 128.055 167.408 126.999 167.407 125.897V123.927C167.408 122.825 167.846 121.769 168.624 120.99C169.403 120.211 170.458 119.772 171.559 119.771H231.422C232.523 119.772 233.578 120.211 234.357 120.99C235.135 121.769 235.573 122.825 235.574 123.927V125.897C235.573 126.999 235.135 128.055 234.357 128.834C233.578 129.613 232.523 130.051 231.422 130.053ZM171.559 120.563C170.668 120.564 169.813 120.919 169.183 121.549C168.553 122.18 168.199 123.035 168.198 123.927V125.897C168.199 126.789 168.553 127.644 169.183 128.275C169.813 128.905 170.668 129.26 171.559 129.261H231.422C232.313 129.26 233.167 128.905 233.798 128.275C234.428 127.644 234.782 126.789 234.783 125.897V123.927C234.782 123.035 234.428 122.18 233.798 121.549C233.167 120.919 232.313 120.564 231.422 120.563H171.559Z" fill="#3F3D56"/>
<path d="M249.612 25.7288V63.8777C243.555 65.4725 237.213 65.6554 231.074 64.4125C224.935 63.1696 219.163 60.534 214.202 56.7084C209.241 52.8828 205.222 47.9691 202.456 42.3456C199.69 36.722 198.25 30.5383 198.246 24.2704C198.246 23.1516 198.291 22.0444 198.381 20.9489H220.855C221.932 20.95 222.994 20.6856 223.945 20.1791C224.896 19.6726 225.708 18.9396 226.31 18.0447C226.911 17.1498 227.283 16.1206 227.393 15.0479C227.502 13.9752 227.347 12.8919 226.939 11.8937H235.783C237.599 11.893 239.397 12.2504 241.075 12.9454C242.753 13.6404 244.277 14.6593 245.562 15.9441C246.846 17.2289 247.865 18.7543 248.56 20.4332C249.255 22.112 249.612 23.9115 249.612 25.7288Z" fill="#F0F0F0"/>
<path d="M188.265 212.568C188.265 213.372 188.235 214.166 188.17 214.95H167.677C165.862 214.95 164.064 214.592 162.387 213.897C160.709 213.202 159.185 212.183 157.901 210.898C156.618 209.613 155.599 208.088 154.905 206.41C154.21 204.731 153.852 202.932 153.853 201.115V182.355C158.148 181.796 162.513 182.16 166.657 183.422C170.801 184.684 174.629 186.815 177.885 189.674C181.142 192.533 183.752 196.053 185.541 200.001C187.331 203.949 188.259 208.233 188.265 212.568Z" fill="#005C29"/>
<path d="M22.9859 179.651C23.5617 179.904 24.2145 179.919 24.801 179.691C25.3875 179.464 25.8599 179.013 26.1145 178.437L44.5753 136.566C44.9978 135.608 45.1269 134.546 44.9463 133.514C44.7656 132.483 44.2833 131.528 43.5604 130.771C42.8375 130.013 41.9063 129.488 40.8848 129.26C39.8633 129.032 38.7973 129.113 37.8215 129.491C36.6942 129.922 35.7508 130.731 35.1519 131.779C35.0566 131.945 34.9702 132.116 34.8931 132.291L16.4323 174.162C16.3065 174.447 16.2381 174.754 16.231 175.066C16.2238 175.378 16.2782 175.688 16.3908 175.979C16.5034 176.27 16.6722 176.535 16.8875 176.761C17.1028 176.986 17.3603 177.167 17.6454 177.293L22.9859 179.651Z" fill="#005C29"/>
<path d="M43.8174 153.756L25.5574 149.695L30.0769 137.73C30.8468 134.806 32.6386 132.254 35.1273 130.538C37.616 128.823 40.6367 128.056 43.6415 128.379L43.8174 128.398L43.8174 153.756Z" fill="#2F2E41"/>
<path d="M80.6998 180.25C80.1627 180.249 79.6374 180.092 79.1874 179.799C78.7373 179.506 78.3819 179.088 78.164 178.597L59.7033 136.726C59.1162 135.394 59.0616 133.887 59.5508 132.516C60.04 131.144 61.0357 130.013 62.3331 129.354C63.6305 128.695 65.131 128.559 66.5257 128.973C67.9205 129.388 69.1035 130.321 69.8313 131.582C69.9336 131.76 70.0264 131.943 70.1092 132.131L88.5699 174.002C88.8663 174.674 88.8837 175.437 88.6183 176.122C88.3528 176.807 87.8264 177.358 87.1546 177.655L81.6332 180.093L81.6304 180.087C81.3319 180.194 81.0171 180.25 80.6998 180.25Z" fill="#005C29"/>
<path d="M55.1638 165.872C54.5347 165.872 53.9315 166.123 53.4867 166.568C53.0418 167.013 52.7916 167.617 52.7909 168.246V216.933C52.7916 217.562 53.0418 218.166 53.4867 218.611C53.9315 219.056 54.5347 219.306 55.1638 219.307H61.0009C61.63 219.306 62.2331 219.056 62.678 218.611C63.1228 218.166 63.3731 217.562 63.3738 216.933V168.246C63.3731 167.617 63.1228 167.013 62.678 166.568C62.2331 166.123 61.63 165.872 61.0009 165.872H55.1638Z" fill="#005C29"/>
<path d="M43.6187 165.872C42.9896 165.872 42.3865 166.123 41.9416 166.568C41.4968 167.013 41.2466 167.617 41.2458 168.246V216.933C41.2466 217.562 41.4968 218.166 41.9416 218.611C42.3865 219.056 42.9896 219.306 43.6187 219.307H49.4559C50.085 219.306 50.6882 219.056 51.133 218.611C51.5779 218.166 51.8281 217.562 51.8288 216.933V168.246C51.8281 167.617 51.5779 167.013 51.133 166.568C50.6882 166.123 50.085 165.872 49.4559 165.872H43.6187Z" fill="#005C29"/>
<path d="M52.1354 114.864C63.2747 114.864 72.3049 105.827 72.3049 94.6795C72.3049 83.5319 63.2747 74.4949 52.1354 74.4949C40.9961 74.4949 31.9659 83.5319 31.9659 94.6795C31.9659 105.827 40.9961 114.864 52.1354 114.864Z" fill="#005C29"/>
<path d="M58.8474 103.153C60.1549 103.116 61.782 103.071 63.0356 102.155C63.4089 101.871 63.7155 101.508 63.9342 101.093C64.1528 100.678 64.278 100.22 64.3011 99.7512C64.3238 99.4181 64.2692 99.0842 64.1416 98.7757C64.0139 98.4672 63.8167 98.1925 63.5654 97.9729C62.9107 97.4192 61.9546 97.2894 60.9243 97.5924L61.9918 89.7854L61.2082 89.678L59.9532 98.8561L60.6076 98.5555C61.3663 98.2073 62.4077 98.0301 63.0548 98.5774C63.2138 98.7205 63.3376 98.8983 63.4166 99.0971C63.4957 99.2958 63.5279 99.5101 63.5107 99.7234C63.4915 100.072 63.3975 100.413 63.235 100.722C63.0725 101.031 62.8453 101.302 62.569 101.515C61.5935 102.228 60.2965 102.32 58.8254 102.362L58.8474 103.153Z" fill="#2F2E41"/>
<path d="M70.1271 90.4587H65.8672V91.2503H70.1271V90.4587Z" fill="#2F2E41"/>
<path d="M56.6807 90.4587H52.4208V91.2503H56.6807V90.4587Z" fill="#2F2E41"/>
<path d="M72.1205 180.496L64.861 127.461C64.7832 126.893 64.5021 126.372 64.0699 125.994C63.6377 125.617 63.0835 125.409 62.51 125.409H57.0304C57.0532 125.278 57.0651 125.146 57.0659 125.013V123.034C57.0659 122.405 56.8159 121.801 56.3709 121.355C55.9259 120.91 55.3224 120.66 54.6931 120.66H49.9473C49.318 120.66 48.7144 120.91 48.2694 121.355C47.8244 121.801 47.5744 122.405 47.5744 123.034V125.013C47.5752 125.146 47.5871 125.278 47.6099 125.409H42.1304C41.5568 125.409 41.0027 125.617 40.5705 125.994C40.1382 126.372 39.8572 126.893 39.7793 127.461L32.5199 180.496C32.4739 180.832 32.5003 181.174 32.5974 181.498C32.6945 181.823 32.8599 182.124 33.0827 182.379C33.3054 182.635 33.5802 182.839 33.8886 182.98C34.1971 183.12 34.5319 183.193 34.8707 183.193H69.7696C70.1084 183.193 70.4433 183.12 70.7517 182.98C71.0601 182.839 71.3349 182.635 71.5577 182.379C71.7804 182.124 71.9458 181.823 72.0429 181.498C72.14 181.174 72.1664 180.832 72.1205 180.496Z" fill="#2F2E41"/>
<path d="M60.823 153.756V128.398L60.9989 128.379C64.0074 128.057 67.0315 128.825 69.5217 130.545C72.012 132.265 73.8032 134.822 74.57 137.751L79.083 149.695L60.823 153.756Z" fill="#2F2E41"/>
<path d="M51.1197 115.494L37.169 110.075C34.8878 109.189 32.5938 108.33 30.3246 107.413C29.3526 107.074 28.4572 106.546 27.6901 105.859C27.0222 105.152 26.567 104.27 26.3767 103.316C25.8928 101.269 25.9803 99.0314 26.0148 96.9427C26.0416 94.6578 26.2295 92.3777 26.5771 90.1193C27.1863 85.8753 28.617 81.791 30.789 78.0954C34.7014 71.6713 41.4422 66.838 49.1958 67.2237C52.7855 67.4023 56.3958 68.6914 59.0628 71.1475C59.341 71.4802 59.6532 71.783 59.9942 72.0508C60.2313 72.1398 60.4892 72.1571 60.736 72.1007C61.0615 72.0797 61.3872 72.0637 61.7132 72.0527C62.8443 72.0049 63.9775 72.0525 65.1007 72.1949C67.1475 72.4162 69.0875 73.2223 70.6889 74.517C72.0218 75.6644 73.1062 77.2842 73.2178 79.0843C73.2717 79.9106 73.1352 80.7383 72.8188 81.5034C72.5024 82.2686 72.0146 82.9508 71.393 83.4974C69.7286 84.9012 67.3539 84.4078 65.3574 84.3019L58.0435 83.9142L54.3378 83.7177C53.5748 83.6772 53.577 84.8647 54.3378 84.905L64.1872 85.4272C65.77 85.5111 67.4012 85.7168 68.9853 85.6218C70.2025 85.5667 71.3647 85.0988 72.2809 84.295C73.1177 83.5258 73.741 82.5526 74.0901 81.4705C74.4392 80.3884 74.5022 79.2342 74.2728 78.1205C73.765 75.6913 71.9585 73.6819 69.8408 72.4865C66.9593 70.8599 63.5179 70.7041 60.2936 70.9446L60.7131 71.1184C57.0659 67.201 51.4792 65.5469 46.2345 66.1258C40.6968 66.7369 35.7716 69.8286 32.2328 74.0562C28.2874 78.7697 26.1373 84.647 25.3014 90.6907C24.8665 93.9537 24.7233 97.249 24.8735 100.538C24.8673 101.988 25.1153 103.428 25.6061 104.793C26.166 106.121 27.1785 107.207 28.4635 107.858C29.9366 108.57 31.4511 109.193 32.9988 109.723L38.1385 111.719L48.2345 115.641L50.8043 116.639C51.5165 116.916 51.8251 115.768 51.1197 115.494Z" fill="#2F2E41"/>
<path d="M29.1846 75.1453C27.9722 75.1453 26.7871 74.7856 25.779 74.1115C24.7709 73.4374 23.9853 72.4793 23.5213 71.3584C23.0573 70.2374 22.9359 69.004 23.1725 67.814C23.409 66.624 23.9928 65.5309 24.8501 64.673C25.7074 63.8151 26.7997 63.2308 27.9887 62.9941C29.1778 62.7574 30.4104 62.8789 31.5305 63.3432C32.6506 63.8075 33.6079 64.5938 34.2815 65.6026C34.9551 66.6114 35.3146 67.7975 35.3146 69.0108C35.3128 70.6372 34.6663 72.1965 33.5171 73.3465C32.3679 74.4966 30.8098 75.1435 29.1846 75.1453ZM29.1846 64.0636C28.2069 64.0636 27.2511 64.3537 26.4382 64.8973C25.6252 65.4409 24.9916 66.2136 24.6174 67.1176C24.2433 68.0215 24.1454 69.0163 24.3361 69.9759C24.5269 70.9356 24.9977 71.8171 25.6891 72.509C26.3804 73.2009 27.2613 73.6721 28.2202 73.8629C29.1792 74.0538 30.1731 73.9559 31.0764 73.5814C31.9797 73.207 32.7518 72.5729 33.295 71.7593C33.8382 70.9457 34.1281 69.9892 34.1281 69.0108C34.1267 67.6991 33.6054 66.4417 32.6786 65.5142C31.7518 64.5867 30.4953 64.065 29.1846 64.0636Z" fill="#2F2E41"/>
<path d="M131.655 113.162L118.387 103.006L108.24 116.284L121.507 126.44L131.655 113.162Z" fill="#F0F0F0"/>
<path d="M56.6705 22.5069C58.7669 22.5052 60.8345 22.9948 62.7077 23.9366C64.581 24.8783 66.2079 26.2459 67.4582 27.9299L75.2055 17.7925L51.9597 0L34.1807 23.2634L44.1995 30.932C45.2022 28.4435 46.9252 26.3118 49.1474 24.8105C51.3695 23.3093 53.9894 22.507 56.6705 22.5069Z" fill="#F0F0F0"/>
<path d="M279.605 220H0.39548C0.290592 220 0.19 219.958 0.115833 219.884C0.0416662 219.81 0 219.709 0 219.604C0 219.499 0.0416662 219.399 0.115833 219.324C0.19 219.25 0.290592 219.208 0.39548 219.208H279.605C279.709 219.208 279.81 219.25 279.884 219.324C279.958 219.399 280 219.499 280 219.604C280 219.709 279.958 219.81 279.884 219.884C279.81 219.958 279.709 220 279.605 220Z" fill="#3F3D56"/>
<path d="M211.458 154.328H183.038C181.99 154.327 180.985 153.91 180.243 153.168C179.502 152.426 179.085 151.42 179.083 150.371V148.401C179.085 147.351 179.502 146.345 180.243 145.603C180.985 144.861 181.99 144.444 183.038 144.443H211.458C212.507 144.444 213.512 144.861 214.253 145.603C214.995 146.345 215.412 147.351 215.413 148.401V150.371C215.412 151.42 214.995 152.426 214.253 153.168C213.512 153.91 212.507 154.327 211.458 154.328Z" fill="#005C29"/>
<path d="M214.453 150.531H186.033C184.932 150.529 183.876 150.091 183.098 149.312C182.319 148.533 181.882 147.477 181.88 146.375V144.405C181.882 143.303 182.319 142.247 183.098 141.468C183.876 140.689 184.932 140.251 186.033 140.249H214.453C215.554 140.251 216.609 140.689 217.388 141.468C218.166 142.247 218.604 143.303 218.605 144.405V146.375C218.604 147.477 218.166 148.533 217.388 149.312C216.609 150.091 215.554 150.529 214.453 150.531ZM186.033 141.041C185.142 141.042 184.287 141.397 183.657 142.027C183.027 142.658 182.672 143.513 182.671 144.405V146.375C182.672 147.267 183.027 148.122 183.657 148.753C184.287 149.383 185.142 149.738 186.033 149.739H214.453C215.344 149.738 216.199 149.383 216.829 148.753C217.459 148.122 217.813 147.267 217.814 146.375V144.405C217.813 143.513 217.459 142.658 216.829 142.027C216.199 141.397 215.344 141.042 214.453 141.041H186.033Z" fill="#3F3D56"/>
</g>
<defs>
<clipPath id="clip0_15_772">
<rect width="280" height="220" fill="white"/>
</clipPath>
</defs>
</svg>
