<svg width="343" height="222" viewBox="0 0 343 222" fill="none" xmlns="http://www.w3.org/2000/svg">
<g clip-path="url(#clip0_11_340)">
<path d="M312.852 221.343L303.056 191.832C303.056 191.832 313.831 202.588 313.831 211.414L311.897 191.004C311.897 191.004 317.423 198.451 316.87 209.759C316.318 221.068 312.852 221.343 312.852 221.343Z" fill="#E6E6E6"/>
<path d="M102.475 194.472L92.9138 165.669C92.9138 165.669 103.43 176.167 103.43 184.781L101.543 164.862C101.543 164.862 106.936 172.13 106.396 183.166C105.857 194.202 102.475 194.472 102.475 194.472Z" fill="#E6E6E6"/>
<path d="M251.704 207.763C251.72 226.709 214.076 220.881 167.99 220.921C121.905 220.961 84.8299 226.853 84.8135 207.906C84.7971 188.96 122.428 184.806 168.513 184.767C214.599 184.727 251.687 188.816 251.704 207.763Z" fill="#E6E6E6"/>
<path d="M343 220.91H0V221.777H343V220.91Z" fill="#3F3D56"/>
<path d="M219.405 182.175H213.38L210.513 158.976H219.405V182.175Z" fill="#A0616A"/>
<path d="M208.408 180.457H220.697V187.76H201.761V187.092C201.761 185.332 202.461 183.644 203.708 182.4C204.954 181.156 206.645 180.457 208.408 180.457Z" fill="#2F2E41"/>
<path d="M263.691 216.415H257.666L254.799 193.216H263.691V216.415Z" fill="#A0616A"/>
<path d="M252.694 214.697H264.983V222H246.047V221.332C246.047 219.572 246.747 217.884 247.994 216.64C249.24 215.396 250.931 214.697 252.694 214.697Z" fill="#2F2E41"/>
<path d="M291.483 147.496C291.899 146.992 292.2 146.402 292.364 145.769C292.527 145.136 292.55 144.475 292.43 143.833C292.31 143.19 292.051 142.582 291.67 142.05C291.289 141.518 290.796 141.077 290.225 140.756L276.232 83.8512L267.284 87.6941L283.929 142.716C283.452 143.708 283.357 144.841 283.661 145.899C283.966 146.956 284.648 147.866 285.579 148.455C286.51 149.044 287.625 149.272 288.713 149.095C289.801 148.919 290.787 148.35 291.483 147.496Z" fill="#A0616A"/>
<path d="M280.569 32.4905C280.069 31.9694 279.461 31.5639 278.788 31.3025C278.115 31.0412 277.392 30.9305 276.671 30.9781C275.95 31.0257 275.249 31.2306 274.616 31.5782C273.982 31.9258 273.434 32.4077 273.007 32.99L251.348 35.4722L254.643 43.8118L274.341 40.1317C275.368 40.7817 276.599 41.0329 277.799 40.8377C279 40.6425 280.087 40.0144 280.855 39.0725C281.622 38.1307 282.017 36.9404 281.964 35.7273C281.912 34.5142 281.415 33.3625 280.569 32.4905Z" fill="#A0616A"/>
<path d="M244.876 141.595L254.327 212.404L266.091 209.986C266.091 209.986 264.361 158.417 270.242 152.201C276.124 145.984 262.677 135.093 262.677 135.093L244.876 141.595Z" fill="#2F2E41"/>
<path d="M248.784 122.091L244.442 128.592C244.442 128.592 211.01 114.723 211.01 136.827C211.01 158.931 209.097 173.932 208.405 174.968C207.713 176.004 216.41 178.692 220.562 178.002C220.562 178.002 225.684 142.367 225.338 140.294C225.338 140.294 258.133 156.345 264.361 154.964C270.588 153.582 272.06 148.692 273.098 145.929C274.136 143.166 272.663 121.224 272.663 121.224L251.905 114.9L248.784 122.091Z" fill="#2F2E41"/>
<path d="M249.369 83.057L248.132 81.5745C248.132 81.5745 234.271 50.4429 239.716 42.0423C245.162 33.6418 268.922 32.4064 269.665 32.9005C270.407 33.3947 267.891 39.8104 269.624 42.7753C269.624 42.7753 251.217 46.759 249.98 47.2531C248.742 47.7473 259.517 66.0087 259.517 66.0087L258.279 77.1271L249.369 83.057Z" fill="#CCCCCC"/>
<path d="M273.625 67.7382C273.625 67.7382 260.755 69.2207 260.26 69.2207C259.765 69.2207 259.517 66.0087 259.517 66.0087L248.132 81.5745C248.132 81.5745 242.523 126.733 244.008 125.992C245.493 125.25 272.883 129.507 273.13 127.531C273.378 125.554 272.883 115.671 273.625 115.177C274.368 114.683 286.496 84.0453 286.496 84.0453C286.496 84.0453 285.258 77.6213 281.05 75.3976C276.843 73.1739 273.625 67.7382 273.625 67.7382Z" fill="#CCCCCC"/>
<path d="M282.536 79.845L286.496 84.0453C286.496 84.0453 292.38 132.311 289.162 133.793C285.944 135.275 279.61 135.093 279.61 135.093L273.378 112.212L282.536 79.845Z" fill="#CCCCCC"/>
<path d="M261.257 64.6817C267.549 64.6817 272.65 59.5901 272.65 53.3093C272.65 47.0285 267.549 41.937 261.257 41.937C254.966 41.937 249.865 47.0285 249.865 53.3093C249.865 59.5901 254.966 64.6817 261.257 64.6817Z" fill="#A0616A"/>
<path d="M258.584 55.0839C258.43 52.7241 255.448 52.6433 253.079 52.6209C250.71 52.5986 247.879 52.683 246.538 50.7332C245.652 49.4447 245.822 47.6558 246.553 46.2743C247.285 44.8928 248.489 43.8303 249.673 42.8081C252.73 40.1691 255.881 37.551 259.551 35.8619C263.222 34.1727 267.523 33.4902 271.33 34.8462C276.006 36.5118 282.327 45.086 282.873 50.0122C283.419 54.9384 281.447 59.9602 278.122 63.6414C274.798 67.3226 267.189 65.8373 262.4 67.1469C265.312 63.0339 263.393 55.5605 258.729 53.6399L258.584 55.0839Z" fill="#2F2E41"/>
<path d="M157.051 202.187C172.156 202.187 184.4 189.964 184.4 174.886C184.4 159.808 172.156 147.585 157.051 147.585C141.947 147.585 129.703 159.808 129.703 174.886C129.703 189.964 141.947 202.187 157.051 202.187Z" fill="#005C29"/>
<path d="M138.788 145.645C134.997 145.646 131.288 144.549 128.109 142.489C124.93 140.428 122.417 137.492 120.875 134.036L77.4784 36.4771C76.0409 33.2455 75.2806 29.7545 75.2443 26.2188C75.208 22.683 75.8964 19.1772 77.2673 15.9168C78.6382 12.6565 80.6626 9.71041 83.216 7.25976C85.7694 4.80911 88.7979 2.90564 92.1154 1.66635C95.4328 0.427061 98.9691 -0.121866 102.507 0.0533149C106.045 0.228496 109.509 1.12408 112.687 2.68502C115.866 4.24596 118.691 6.43928 120.989 9.13016C123.287 11.821 125.009 14.9526 126.05 18.3324L157.475 120.364C158.374 123.285 158.575 126.375 158.061 129.387C157.547 132.399 156.333 135.249 154.516 137.708C152.698 140.166 150.329 142.165 147.597 143.544C144.866 144.922 141.848 145.642 138.788 145.645Z" fill="#005C29"/>
</g>
<defs>
<clipPath id="clip0_11_340">
<rect width="343" height="222" fill="white"/>
</clipPath>
</defs>
</svg>
