<svg width="310" height="175" viewBox="0 0 310 175" fill="none" xmlns="http://www.w3.org/2000/svg">
<g clip-path="url(#clip0_11_364)">
<path d="M101.022 174.329H0V175H101.022V174.329Z" fill="#3F3D56"/>
<path d="M307.194 144.269H55.9116C55.1677 144.268 54.4545 143.984 53.9284 143.479C53.4024 142.974 53.1065 142.289 53.1057 141.575V2.69382C53.1065 1.97961 53.4024 1.29488 53.9284 0.789863C54.4545 0.284842 55.1677 0.000779588 55.9116 0H307.194C307.938 0.000779588 308.651 0.284842 309.177 0.789863C309.703 1.29488 309.999 1.97961 310 2.69382V141.575C309.999 142.289 309.703 142.974 309.177 143.479C308.651 143.984 307.938 144.268 307.194 144.269ZM55.9116 0.598627C55.333 0.599275 54.7783 0.820225 54.3692 1.21301C53.9601 1.60579 53.7299 2.13834 53.7292 2.69382V141.575C53.7299 142.131 53.9601 142.663 54.3692 143.056C54.7783 143.449 55.333 143.67 55.9116 143.67H307.194C307.773 143.67 308.327 143.449 308.736 143.056C309.146 142.663 309.376 142.131 309.376 141.575V2.69382C309.376 2.13835 309.146 1.60582 308.736 1.21304C308.327 0.820258 307.773 0.599299 307.194 0.598627H55.9116Z" fill="#3F3D56"/>
<path d="M155.403 104.834H76.0205C75.3179 104.834 74.6443 104.565 74.1475 104.088C73.6507 103.612 73.3713 102.965 73.3705 102.29V55.2981C73.3713 54.6236 73.6507 53.977 74.1475 53.5C74.6443 53.023 75.3179 52.7547 76.0205 52.754H155.403C156.106 52.7547 156.78 53.023 157.276 53.5C157.773 53.9769 158.053 54.6236 158.053 55.2981V102.29C158.053 102.965 157.773 103.612 157.276 104.088C156.78 104.565 156.106 104.834 155.403 104.834Z" fill="#E6E6E6"/>
<path d="M48.0437 114.67C47.705 114.67 47.3715 114.589 47.0737 114.434C46.776 114.279 46.5234 114.055 46.3392 113.782L43.8389 110.073C43.5476 109.64 43.4471 109.113 43.5597 108.609C43.6722 108.105 43.9885 107.664 44.4391 107.383L76.6349 87.3758C77.0863 87.0961 77.6349 86.9998 78.1602 87.1078C78.6855 87.2159 79.1447 87.5195 79.4372 87.9522L81.9375 91.6609C82.0821 91.8754 82.1814 92.1151 82.2295 92.3664C82.2776 92.6177 82.2736 92.8756 82.2179 93.1254C82.1622 93.3753 82.0557 93.6121 81.9046 93.8224C81.7535 94.0328 81.5607 94.2124 81.3373 94.3512L49.1416 114.358C48.8148 114.562 48.4334 114.67 48.0437 114.67Z" fill="#005C29"/>
<path d="M49.0472 114.111L62.5059 106.896C62.9256 106.671 63.239 106.299 63.381 105.858C63.523 105.417 63.4827 104.941 63.2685 104.527L60.1506 98.5134C60.0275 98.2758 59.851 98.0674 59.6339 97.9031C59.4168 97.7388 59.1645 97.6228 58.8951 97.5634C58.6257 97.5039 58.346 97.5025 58.076 97.5592C57.806 97.616 57.5524 97.7295 57.3335 97.8916L44.512 107.386C44.0963 107.645 43.8045 108.052 43.7005 108.517C43.5965 108.983 43.6888 109.469 43.9572 109.869L46.458 113.578C46.7281 113.978 47.1525 114.259 47.6379 114.359C48.1233 114.458 48.6302 114.369 49.0472 114.111Z" fill="#CCCCCC"/>
<path d="M62.4167 8.15328C63.622 8.15328 64.5991 7.21523 64.5991 6.05808C64.5991 4.90094 63.622 3.96289 62.4167 3.96289C61.2114 3.96289 60.2344 4.90094 60.2344 6.05808C60.2344 7.21523 61.2114 8.15328 62.4167 8.15328Z" fill="#005C29"/>
<path d="M68.652 8.15328C69.8572 8.15328 70.8343 7.21523 70.8343 6.05808C70.8343 4.90094 69.8572 3.96289 68.652 3.96289C67.4467 3.96289 66.4696 4.90094 66.4696 6.05808C66.4696 7.21523 67.4467 8.15328 68.652 8.15328Z" fill="#005C29"/>
<path d="M74.8873 8.15328C76.0926 8.15328 77.0697 7.21523 77.0697 6.05808C77.0697 4.90094 76.0926 3.96289 74.8873 3.96289C73.682 3.96289 72.705 4.90094 72.705 6.05808C72.705 7.21523 73.682 8.15328 74.8873 8.15328Z" fill="#005C29"/>
<path d="M309.688 11.0746H53.4175V12.5712H309.688V11.0746Z" fill="#3F3D56"/>
<path d="M81.7492 49.4615C81.1293 49.4622 80.535 49.6989 80.0966 50.1198C79.6583 50.5406 79.4117 51.1112 79.411 51.7064V98.6986C79.4117 99.2938 79.6583 99.8644 80.0966 100.285C80.535 100.706 81.1293 100.943 81.7492 100.943H161.132C161.752 100.943 162.347 100.706 162.785 100.285C163.223 99.8644 163.47 99.2938 163.47 98.6986V51.7064C163.47 51.1112 163.223 50.5406 162.785 50.1198C162.347 49.6989 161.752 49.4622 161.132 49.4615H81.7492Z" fill="#3F3D56"/>
<path d="M195.426 49.9105C194.972 49.9105 194.535 50.084 194.214 50.3927C193.892 50.7014 193.712 51.1201 193.712 51.5567C193.712 51.9934 193.892 52.4121 194.214 52.7208C194.535 53.0295 194.972 53.203 195.426 53.203H288.021C288.475 53.203 288.911 53.0295 289.233 52.7208C289.555 52.4121 289.735 51.9934 289.735 51.5567C289.735 51.1201 289.555 50.7014 289.233 50.3927C288.911 50.084 288.475 49.9105 288.021 49.9105H195.426Z" fill="#005C29"/>
<path d="M195.426 60.3865C194.972 60.3865 194.535 60.5599 194.214 60.8686C193.892 61.1774 193.712 61.5961 193.712 62.0327C193.712 62.4693 193.892 62.888 194.214 63.1968C194.535 63.5055 194.972 63.6789 195.426 63.6789H288.021C288.475 63.6789 288.911 63.5055 289.233 63.1968C289.555 62.888 289.735 62.4693 289.735 62.0327C289.735 61.5961 289.555 61.1774 289.233 60.8686C288.911 60.5599 288.475 60.3865 288.021 60.3865H195.426Z" fill="#005C29"/>
<path d="M195.426 70.8624C194.972 70.8624 194.535 71.0359 194.214 71.3446C193.892 71.6533 193.712 72.072 193.712 72.5087C193.712 72.9453 193.892 73.364 194.214 73.6727C194.535 73.9814 194.972 74.1549 195.426 74.1549H288.021C288.475 74.1549 288.911 73.9814 289.233 73.6727C289.555 73.364 289.735 72.9453 289.735 72.5087C289.735 72.072 289.555 71.6533 289.233 71.3446C288.911 71.0359 288.475 70.8624 288.021 70.8624H195.426Z" fill="#005C29"/>
<path d="M195.426 81.3384C194.972 81.3384 194.535 81.5118 194.214 81.8206C193.892 82.1293 193.712 82.548 193.712 82.9846C193.712 83.4212 193.892 83.8399 194.214 84.1487C194.535 84.4574 194.972 84.6308 195.426 84.6308H288.021C288.475 84.6308 288.911 84.4574 289.233 84.1487C289.555 83.8399 289.735 83.4212 289.735 82.9846C289.735 82.548 289.555 82.1293 289.233 81.8206C288.911 81.5118 288.475 81.3384 288.021 81.3384H195.426Z" fill="#E6E6E6"/>
<path d="M195.426 91.8143C194.972 91.8143 194.535 91.9878 194.214 92.2965C193.892 92.6052 193.712 93.0239 193.712 93.4606C193.712 93.8972 193.892 94.3159 194.214 94.6246C194.535 94.9333 194.972 95.1068 195.426 95.1068H288.021C288.475 95.1068 288.911 94.9333 289.233 94.6246C289.555 94.3159 289.735 93.8972 289.735 93.4606C289.735 93.0239 289.555 92.6052 289.233 92.2965C288.911 91.9878 288.475 91.8143 288.021 91.8143H195.426Z" fill="#E6E6E6"/>
<path d="M195.426 102.29C194.972 102.29 194.535 102.464 194.214 102.773C193.892 103.081 193.712 103.5 193.712 103.937C193.712 104.373 193.892 104.792 194.214 105.101C194.535 105.409 194.972 105.583 195.426 105.583H288.021C288.475 105.583 288.911 105.409 289.233 105.101C289.555 104.792 289.735 104.373 289.735 103.937C289.735 103.5 289.555 103.081 289.233 102.773C288.911 102.464 288.475 102.29 288.021 102.29H195.426Z" fill="#E6E6E6"/>
<path d="M47.7378 90.9294C56.9528 90.9294 64.4231 83.7575 64.4231 74.9104C64.4231 66.0634 56.9528 58.8914 47.7378 58.8914C38.5227 58.8914 31.0524 66.0634 31.0524 74.9104C31.0524 83.7575 38.5227 90.9294 47.7378 90.9294Z" fill="#005C29"/>
<path d="M45.1088 174.685H40.5072C39.9699 174.685 39.4548 174.48 39.0749 174.115C38.695 173.75 38.4813 173.256 38.4807 172.74V135.92C38.4813 135.404 38.695 134.91 39.0749 134.545C39.4548 134.18 39.9699 133.975 40.5072 133.974H45.1088C45.646 133.975 46.1611 134.18 46.541 134.545C46.9209 134.91 47.1346 135.404 47.1352 135.92V172.74C47.1346 173.256 46.9209 173.75 46.541 174.115C46.1611 174.48 45.646 174.685 45.1088 174.685Z" fill="#2F2E41"/>
<path d="M54.2098 174.685H49.6083C49.071 174.685 48.5559 174.48 48.176 174.115C47.7961 173.75 47.5824 173.256 47.5818 172.74V135.92C47.5824 135.404 47.7961 134.91 48.176 134.545C48.5559 134.18 49.071 133.975 49.6083 133.974H54.2098C54.7471 133.975 55.2622 134.18 55.6421 134.545C56.022 134.91 56.2357 135.404 56.2363 135.92V172.74C56.2357 173.256 56.022 173.75 55.6421 174.115C55.2622 174.48 54.7471 174.685 54.2098 174.685Z" fill="#2F2E41"/>
<path d="M58.0021 140.099H37.0943C36.5571 140.098 36.042 139.893 35.6621 139.528C35.2822 139.164 35.0685 138.669 35.0679 138.153V104.301C35.0712 101.454 36.2508 98.7248 38.3476 96.7117C40.4445 94.6985 43.2876 93.5661 46.253 93.5629H58.0021C58.5393 93.5635 59.0544 93.7686 59.4343 94.1334C59.8142 94.4981 60.0279 94.9926 60.0286 95.5084V138.153C60.0279 138.669 59.8142 139.164 59.4343 139.528C59.0544 139.893 58.5393 140.098 58.0021 140.099Z" fill="#CCCCCC"/>
<path d="M62.3019 79.361L62.2845 78.7623C63.4445 78.7314 64.4672 78.6615 65.2357 78.1225C65.4535 77.961 65.6326 77.7564 65.7607 77.5225C65.8888 77.2886 65.9629 77.031 65.9781 76.7671C65.9916 76.6059 65.9662 76.4439 65.9038 76.2936C65.8415 76.1433 65.7439 76.0089 65.6187 75.9008C65.1087 75.4869 64.2879 75.6207 63.6895 75.8844L63.1736 76.1115L64.1629 69.1703L64.7806 69.2515L63.9391 75.156C64.7522 74.9265 65.5053 75.025 66.0212 75.4436C66.2192 75.6096 66.3747 75.8174 66.4753 76.0506C66.5759 76.2839 66.619 76.5363 66.6011 76.7882C66.5829 77.1427 66.4842 77.4891 66.3119 77.8031C66.1395 78.1171 65.8977 78.3911 65.6034 78.606C64.6161 79.2987 63.3329 79.3332 62.3019 79.361Z" fill="#2F2E41"/>
<path d="M60.5939 69.7607H57.2357V70.3594H60.5939V69.7607Z" fill="#2F2E41"/>
<path d="M67.0432 137.458C66.6748 137.457 66.3133 137.361 65.9976 137.179C65.6818 136.996 65.4235 136.735 65.2504 136.423L47.2725 103.899C47.0213 103.443 46.9686 102.91 47.1262 102.417C47.2837 101.924 47.6385 101.511 48.1128 101.269L52.1773 99.1978C52.6522 98.9567 53.2073 98.9061 53.721 99.0573C54.2346 99.2085 54.6649 99.549 54.9174 100.004L72.8952 132.528C73.1465 132.984 73.1991 133.517 73.0416 134.01C72.8841 134.503 72.5293 134.916 72.055 135.159L67.9904 137.23C67.6989 137.379 67.3736 137.457 67.0432 137.458Z" fill="#005C29"/>
<path d="M45.979 103.83L53.8612 117.327C54.0584 117.748 54.4169 118.08 54.8622 118.254C55.3075 118.427 55.8055 118.43 56.2528 118.261L62.7631 115.799C63.0203 115.701 63.2518 115.551 63.441 115.357C63.6302 115.164 63.7724 114.933 63.8574 114.68C63.9424 114.428 63.9681 114.16 63.9325 113.897C63.897 113.634 63.8011 113.381 63.6519 113.158L54.9079 99.4753C54.6748 99.0552 54.2779 98.741 53.804 98.6013C53.3301 98.4616 52.8179 98.5079 52.3794 98.7299L46.7552 101.4C46.3169 101.624 45.989 102.005 45.8434 102.461C45.6979 102.917 45.7467 103.409 45.979 103.83Z" fill="#CCCCCC"/>
<path d="M57.6421 63.198C59.6546 63.0184 61.3395 61.7389 62.233 60.0268C62.6893 59.1405 62.9287 58.166 62.933 57.1774C62.9373 56.1889 62.7064 55.2124 62.2579 54.3226C61.3096 52.4567 59.7273 50.9568 57.7719 50.0701C55.4975 49.0125 52.929 48.7197 50.4272 48.8167C45.7129 48.9995 40.519 50.2701 37.6209 54.1294C36.2577 55.8796 35.6652 58.0739 35.9713 60.2395C36.338 62.5122 37.7788 64.4804 39.3171 66.177C40.9294 67.955 42.7899 69.5565 44.0641 71.5935C45.1667 73.356 45.7598 75.5755 45.0223 77.5756C44.8464 78.0497 44.5854 78.4905 44.2509 78.878C43.8696 79.3199 44.5277 79.9585 44.9123 79.513C46.2391 77.9758 46.5074 75.9466 46.0895 74.034C45.6296 71.9282 44.3026 70.148 42.8516 68.5576C40.0283 65.4631 35.8235 62.0841 37.0102 57.4611C37.5674 55.4573 38.8353 53.703 40.5954 52.5005C42.4825 51.1869 44.7232 50.4642 47.0001 50.0717C51.357 49.3207 56.6333 49.3992 59.9252 52.6583C61.2933 54.0129 62.2343 55.9056 61.9823 57.8265C61.755 59.5586 60.603 61.2575 58.9188 61.98C58.5142 62.1526 58.083 62.2607 57.6421 62.3001C57.0478 62.3531 57.042 63.2516 57.6421 63.198Z" fill="#2F2E41"/>
</g>
<defs>
<clipPath id="clip0_11_364">
<rect width="310" height="175" fill="white"/>
</clipPath>
</defs>
</svg>
