<svg width="347" height="202" viewBox="0 0 347 202" fill="none" xmlns="http://www.w3.org/2000/svg">
<g clip-path="url(#clip0_11_364)">
<path d="M113.079 201.226H0V202H113.079V201.226Z" fill="#3F3D56"/>
<path d="M343.859 166.528H62.585C61.7523 166.527 60.9539 166.199 60.3651 165.616C59.7763 165.033 59.4451 164.243 59.4442 163.418V3.10944C59.4451 2.28504 59.7763 1.49467 60.3651 0.911727C60.9539 0.32879 61.7523 0.000899867 62.585 0H343.859C344.692 0.000899867 345.49 0.32879 346.079 0.911727C346.668 1.49467 346.999 2.28504 347 3.10944V163.418C346.999 164.243 346.668 165.033 346.079 165.616C345.49 166.199 344.692 166.527 343.859 166.528ZM62.585 0.690986C61.9373 0.691734 61.3164 0.946774 60.8585 1.40016C60.4005 1.85355 60.1429 2.46825 60.1422 3.10944V163.418C60.1429 164.059 60.4005 164.674 60.8585 165.128C61.3164 165.581 61.9373 165.836 62.585 165.837H343.859C344.507 165.836 345.128 165.581 345.586 165.127C346.044 164.674 346.301 164.059 346.302 163.418V3.10944C346.301 2.46826 346.044 1.85357 345.586 1.40019C345.128 0.946812 344.507 0.691762 343.859 0.690986H62.585Z" fill="#3F3D56"/>
<path d="M173.952 121.009H85.0939C84.3074 121.008 83.5535 120.698 82.9974 120.148C82.4413 119.597 82.1285 118.851 82.1276 118.072V63.8299C82.1285 63.0513 82.4413 62.3049 82.9974 61.7543C83.5535 61.2038 84.3074 60.8941 85.0939 60.8932H173.952C174.738 60.8941 175.492 61.2038 176.048 61.7543C176.604 62.3049 176.917 63.0513 176.918 63.8299V118.072C176.917 118.851 176.604 119.597 176.048 120.148C175.492 120.698 174.738 121.008 173.952 121.009Z" fill="#E6E6E6"/>
<path d="M53.7779 132.362C53.3987 132.362 53.0254 132.269 52.6921 132.09C52.3588 131.911 52.0762 131.652 51.87 131.337L49.0712 127.056C48.7451 126.556 48.6327 125.948 48.7586 125.366C48.8846 124.784 49.2386 124.275 49.7431 123.95L85.7816 100.857C86.2869 100.534 86.9009 100.423 87.4889 100.547C88.0769 100.672 88.591 101.023 88.9183 101.522L91.7171 105.803C91.879 106.05 91.99 106.327 92.0439 106.617C92.0977 106.907 92.0933 107.205 92.0309 107.493C91.9685 107.782 91.8494 108.055 91.6802 108.298C91.5111 108.541 91.2953 108.748 91.0452 108.908L55.0068 132.002C54.641 132.237 54.2141 132.362 53.7779 132.362Z" fill="#005C29"/>
<path d="M54.9011 131.716L69.9662 123.388C70.436 123.128 70.7868 122.699 70.9458 122.19C71.1047 121.681 71.0596 121.131 70.8198 120.654L67.3298 113.713C67.192 113.438 66.9944 113.198 66.7514 113.008C66.5084 112.819 66.226 112.685 65.9245 112.616C65.6229 112.547 65.3098 112.546 65.0076 112.611C64.7053 112.677 64.4215 112.808 64.1765 112.995L49.8247 123.954C49.3593 124.253 49.0327 124.723 48.9163 125.26C48.7999 125.797 48.9032 126.358 49.2036 126.82L52.003 131.102C52.3053 131.563 52.7803 131.887 53.3236 132.002C53.867 132.118 54.4343 132.015 54.9011 131.716Z" fill="#CCCCCC"/>
<path d="M69.8664 9.41118C71.2155 9.41118 72.3092 8.32841 72.3092 6.99273C72.3092 5.65706 71.2155 4.57428 69.8664 4.57428C68.5173 4.57428 67.4236 5.65706 67.4236 6.99273C67.4236 8.32841 68.5173 9.41118 69.8664 9.41118Z" fill="#005C29"/>
<path d="M76.8459 9.41118C78.195 9.41118 79.2887 8.32841 79.2887 6.99273C79.2887 5.65706 78.195 4.57428 76.8459 4.57428C75.4968 4.57428 74.4031 5.65706 74.4031 6.99273C74.4031 8.32841 75.4968 9.41118 76.8459 9.41118Z" fill="#005C29"/>
<path d="M83.8255 9.41118C85.1747 9.41118 86.2683 8.32841 86.2683 6.99273C86.2683 5.65706 85.1747 4.57428 83.8255 4.57428C82.4764 4.57428 81.3827 5.65706 81.3827 6.99273C81.3827 8.32841 82.4764 9.41118 83.8255 9.41118Z" fill="#005C29"/>
<path d="M346.651 12.7833H59.7932V14.5107H346.651V12.7833Z" fill="#3F3D56"/>
<path d="M91.5065 57.0927C90.8126 57.0935 90.1473 57.3667 89.6566 57.8525C89.1659 58.3383 88.8899 58.9969 88.8892 59.6839V113.926C88.8899 114.613 89.1659 115.272 89.6566 115.758C90.1473 116.244 90.8126 116.517 91.5065 116.518H180.364C181.058 116.517 181.723 116.244 182.214 115.758C182.705 115.272 182.981 114.613 182.982 113.926V59.6839C182.981 58.9969 182.705 58.3383 182.214 57.8525C181.723 57.3667 181.058 57.0935 180.364 57.0927H91.5065Z" fill="#3F3D56"/>
<path d="M218.752 57.611C218.242 57.611 217.754 57.8112 217.394 58.1675C217.034 58.5239 216.832 59.0072 216.832 59.5112C216.832 60.0151 217.034 60.4985 217.394 60.8548C217.754 61.2112 218.242 61.4114 218.752 61.4114H322.397C322.906 61.4114 323.394 61.2112 323.754 60.8548C324.114 60.4985 324.317 60.0151 324.317 59.5112C324.317 59.0072 324.114 58.5239 323.754 58.1675C323.394 57.8112 322.906 57.611 322.397 57.611H218.752Z" fill="#005C29"/>
<path d="M218.752 69.7032C218.242 69.7032 217.754 69.9035 217.394 70.2598C217.034 70.6162 216.832 71.0995 216.832 71.6035C216.832 72.1074 217.034 72.5908 217.394 72.9471C217.754 73.3035 218.242 73.5037 218.752 73.5037H322.397C322.906 73.5037 323.394 73.3035 323.754 72.9471C324.114 72.5908 324.317 72.1074 324.317 71.6035C324.317 71.0995 324.114 70.6162 323.754 70.2598C323.394 69.9035 322.906 69.7032 322.397 69.7032H218.752Z" fill="#005C29"/>
<path d="M218.752 81.7955C218.242 81.7955 217.754 81.9957 217.394 82.352C217.034 82.7084 216.832 83.1917 216.832 83.6957C216.832 84.1997 217.034 84.683 217.394 85.0393C217.754 85.3957 218.242 85.5959 218.752 85.5959H322.397C322.906 85.5959 323.394 85.3957 323.754 85.0393C324.114 84.683 324.317 84.1997 324.317 83.6957C324.317 83.1917 324.114 82.7084 323.754 82.352C323.394 81.9957 322.906 81.7955 322.397 81.7955H218.752Z" fill="#005C29"/>
<path d="M218.752 93.8878C218.242 93.8878 217.754 94.088 217.394 94.4443C217.034 94.8007 216.832 95.284 216.832 95.788C216.832 96.2919 217.034 96.7753 217.394 97.1316C217.754 97.488 218.242 97.6882 218.752 97.6882H322.397C322.906 97.6882 323.394 97.488 323.754 97.1316C324.114 96.7753 324.317 96.2919 324.317 95.788C324.317 95.284 324.114 94.8007 323.754 94.4443C323.394 94.088 322.906 93.8878 322.397 93.8878H218.752Z" fill="#E6E6E6"/>
<path d="M218.752 105.98C218.242 105.98 217.754 106.18 217.394 106.537C217.034 106.893 216.832 107.376 216.832 107.88C216.832 108.384 217.034 108.867 217.394 109.224C217.754 109.58 218.242 109.78 218.752 109.78H322.397C322.906 109.78 323.394 109.58 323.754 109.224C324.114 108.867 324.317 108.384 324.317 107.88C324.317 107.376 324.114 106.893 323.754 106.537C323.394 106.18 322.906 105.98 322.397 105.98H218.752Z" fill="#E6E6E6"/>
<path d="M218.752 118.072C218.242 118.072 217.754 118.272 217.394 118.629C217.034 118.985 216.832 119.469 216.832 119.972C216.832 120.476 217.034 120.96 217.394 121.316C217.754 121.672 218.242 121.873 218.752 121.873H322.397C322.906 121.873 323.394 121.672 323.754 121.316C324.114 120.96 324.317 120.476 324.317 119.972C324.317 119.469 324.114 118.985 323.754 118.629C323.394 118.272 322.906 118.072 322.397 118.072H218.752Z" fill="#E6E6E6"/>
<path d="M53.4354 104.959C63.7504 104.959 72.1123 96.6801 72.1123 86.468C72.1123 76.256 63.7504 67.9775 53.4354 67.9775C43.1205 67.9775 34.7585 76.256 34.7585 86.468C34.7585 96.6801 43.1205 104.959 53.4354 104.959Z" fill="#005C29"/>
<path d="M50.4926 201.637H45.3418C44.7404 201.636 44.1639 201.399 43.7386 200.978C43.3134 200.557 43.0742 199.986 43.0735 199.391V156.89C43.0742 156.295 43.3134 155.724 43.7386 155.303C44.1639 154.882 44.7404 154.645 45.3418 154.645H50.4926C51.094 154.645 51.6706 154.882 52.0958 155.303C52.5211 155.724 52.7603 156.295 52.761 156.89V199.391C52.7603 199.986 52.5211 200.557 52.0958 200.978C51.6706 201.399 51.094 201.636 50.4926 201.637Z" fill="#2F2E41"/>
<path d="M60.6801 201.637H55.5293C54.9279 201.636 54.3514 201.399 53.9261 200.978C53.5009 200.557 53.2617 199.986 53.261 199.391V156.89C53.2617 156.295 53.5009 155.724 53.9261 155.303C54.3514 154.882 54.9279 154.645 55.5293 154.645H60.6801C61.2815 154.645 61.8581 154.882 62.2833 155.303C62.7086 155.724 62.9478 156.295 62.9485 156.89V199.391C62.9478 199.986 62.7086 200.557 62.2833 200.978C61.8581 201.399 61.2815 201.636 60.6801 201.637Z" fill="#2F2E41"/>
<path d="M64.9249 161.714H41.5218C40.9204 161.713 40.3438 161.477 39.9186 161.056C39.4933 160.635 39.2541 160.064 39.2534 159.468V120.394C39.2572 117.107 40.5775 113.957 42.9247 111.633C45.2718 109.309 48.4542 108.002 51.7736 107.998H64.9249C65.5263 107.999 66.1029 108.236 66.5281 108.657C66.9534 109.078 67.1926 109.649 67.1933 110.244V159.468C67.1926 160.064 66.9534 160.635 66.5281 161.056C66.1029 161.477 65.5263 161.713 64.9249 161.714Z" fill="#CCCCCC"/>
<path d="M69.7379 91.6052L69.7185 90.9143C71.0169 90.8785 72.1617 90.7979 73.0218 90.1757C73.2657 89.9893 73.4661 89.7531 73.6095 89.4831C73.7529 89.2131 73.8359 88.9158 73.8529 88.6112C73.868 88.4251 73.8396 88.2381 73.7698 88.0646C73.7 87.8912 73.5908 87.736 73.4506 87.6112C72.8797 87.1334 71.9609 87.2879 71.2911 87.5923L70.7136 87.8544L71.821 79.8423L72.5125 79.9361L71.5706 86.7515C72.4806 86.4866 73.3236 86.6003 73.9011 87.0835C74.1228 87.2751 74.2968 87.5149 74.4094 87.7842C74.522 88.0534 74.5703 88.3448 74.5503 88.6355C74.5299 89.0447 74.4194 89.4446 74.2265 89.807C74.0336 90.1695 73.7629 90.4858 73.4335 90.7338C72.3283 91.5334 70.892 91.5732 69.7379 91.6052Z" fill="#2F2E41"/>
<path d="M67.8261 80.5239H64.0671V81.2149H67.8261V80.5239Z" fill="#2F2E41"/>
<path d="M75.0452 158.665C74.6328 158.665 74.2282 158.554 73.8747 158.343C73.5213 158.133 73.2322 157.831 73.0384 157.471L52.9147 119.929C52.6335 119.403 52.5746 118.788 52.7509 118.219C52.9273 117.649 53.3244 117.173 53.8553 116.893L58.405 114.503C58.9365 114.224 59.5579 114.166 60.1329 114.34C60.7078 114.515 61.1895 114.908 61.4721 115.433L81.5956 152.975C81.8769 153.501 81.9358 154.117 81.7595 154.686C81.5832 155.255 81.1861 155.732 80.6552 156.012L76.1054 158.402C75.7791 158.575 75.415 158.665 75.0452 158.665Z" fill="#005C29"/>
<path d="M51.4668 119.85L60.2898 135.429C60.5105 135.914 60.9118 136.298 61.4102 136.498C61.9087 136.699 62.4661 136.702 62.9668 136.507L70.2541 133.665C70.542 133.553 70.8012 133.378 71.013 133.155C71.2248 132.932 71.384 132.665 71.4791 132.373C71.5742 132.082 71.6029 131.773 71.5632 131.47C71.5234 131.166 71.4161 130.875 71.249 130.617L61.4614 114.823C61.2005 114.338 60.7562 113.975 60.2257 113.814C59.6953 113.653 59.1219 113.706 58.6312 113.963L52.3356 117.044C51.845 117.303 51.478 117.743 51.3151 118.269C51.1522 118.795 51.2067 119.364 51.4668 119.85Z" fill="#CCCCCC"/>
<path d="M64.522 72.9485C66.7747 72.7412 68.6607 71.2643 69.6608 69.288C70.1715 68.2651 70.4395 67.1401 70.4443 65.9991C70.4492 64.858 70.1907 63.7309 69.6887 62.7037C68.6272 60.55 66.856 58.8187 64.6672 57.7952C62.1214 56.5744 59.2463 56.2364 56.4459 56.3484C51.1689 56.5593 45.3551 58.026 42.1112 62.4808C40.5852 64.501 39.922 67.0338 40.2646 69.5335C40.6751 72.1569 42.2879 74.4288 44.0098 76.3871C45.8145 78.4395 47.897 80.288 49.3234 82.6393C50.5576 84.6737 51.2215 87.2357 50.3959 89.5443C50.1991 90.0916 49.9068 90.6004 49.5325 91.0478C49.1056 91.5577 49.8423 92.2949 50.2728 91.7807C51.758 90.0063 52.0582 87.664 51.5906 85.4563C51.0757 83.0257 49.5903 80.9708 47.9662 79.1351C44.8058 75.5631 40.0992 71.6627 41.4275 66.3264C42.0512 64.0135 43.4705 61.9885 45.4406 60.6006C47.553 59.0843 50.0612 58.2501 52.6098 57.797C57.4868 56.9301 63.3928 57.0207 67.0775 60.7827C68.609 62.3463 69.6623 64.5309 69.3802 66.7482C69.1258 68.7476 67.8363 70.7086 65.951 71.5426C65.4981 71.7418 65.0154 71.8666 64.522 71.9121C63.8568 71.9733 63.8503 73.0103 64.522 72.9485Z" fill="#2F2E41"/>
</g>
<defs>
<clipPath id="clip0_11_364">
<rect width="347" height="202" fill="white"/>
</clipPath>
</defs>
</svg>
