<svg width="369" height="215" viewBox="0 0 369 215" fill="none" xmlns="http://www.w3.org/2000/svg">
<g clip-path="url(#clip0_14_315)">
<path d="M184.482 191.297C286.368 191.297 368.964 188.703 368.964 185.504C368.964 182.304 286.368 179.71 184.482 179.71C82.5953 179.71 0 182.304 0 185.504C0 188.703 82.5953 191.297 184.482 191.297Z" fill="#E6E6E6"/>
<path d="M282.798 122.731C282.565 122.734 282.332 122.738 282.096 122.738C281.859 122.738 281.626 122.734 281.394 122.731C269.044 122.415 260.094 113.753 262.372 104.665L267.927 82.4935L269.332 76.8835L294.221 77.36L295.734 82.8481L301.688 104.45C304.209 113.588 295.258 122.415 282.798 122.731Z" fill="#3F3D56"/>
<path opacity="0.2" d="M295.734 82.8481C291.49 85.5716 286.676 86.9745 281.788 86.9121C276.9 86.8498 272.115 85.3245 267.927 82.4935L269.331 76.8835L294.221 77.36L295.734 82.8481Z" fill="black"/>
<path d="M294.683 105.4C295.759 100.902 299.292 94.4121 309.203 86.5876C326.487 72.9396 316.176 62.7063 315.729 62.2776C314.792 61.3782 314.93 60.3684 316.051 60.0233C316.702 59.8772 317.373 59.8891 318.02 60.058C318.667 60.227 319.274 60.5492 319.8 61.003C320.36 61.5227 333.271 73.9002 313.767 89.2985C296.215 103.159 299.947 112.206 299.99 112.293C300.46 113.261 299.706 114.035 298.304 114.024C296.901 114.014 295.382 113.222 294.911 112.255C294.811 112.051 293.682 109.588 294.683 105.4Z" fill="#3F3D56"/>
<path d="M270.608 125.962C270.231 125.962 269.857 125.878 269.509 125.716C269.16 125.554 268.844 125.317 268.577 125.017C268.31 124.718 268.099 124.363 267.955 123.972C267.81 123.58 267.736 123.161 267.736 122.738V108.766C267.736 107.911 268.039 107.091 268.577 106.487C269.116 105.882 269.846 105.542 270.608 105.542C271.37 105.542 272.1 105.882 272.639 106.487C273.177 107.091 273.48 107.911 273.48 108.766V122.738C273.48 123.161 273.406 123.58 273.261 123.972C273.117 124.363 272.905 124.718 272.639 125.017C272.372 125.317 272.055 125.554 271.707 125.716C271.359 125.878 270.985 125.962 270.608 125.962Z" fill="#3F3D56"/>
<path d="M273.126 92.7935C272.968 93.1782 272.745 93.5242 272.468 93.8118C272.191 94.0995 271.867 94.3231 271.513 94.4699C271.159 94.6168 270.783 94.684 270.406 94.6677C270.029 94.6514 269.659 94.5519 269.317 94.3749L258.011 88.5353C257.32 88.1774 256.783 87.526 256.52 86.7244C256.256 85.9228 256.287 85.0365 256.605 84.2602C256.923 83.4839 257.503 82.8812 258.216 82.5844C258.93 82.2876 259.72 82.321 260.412 82.6774L271.717 88.5169C272.06 88.6939 272.368 88.9449 272.624 89.2556C272.881 89.5663 273.08 89.9306 273.211 90.3277C273.341 90.7248 273.401 91.147 273.387 91.5701C273.372 91.9931 273.284 92.4089 273.126 92.7935Z" fill="#3F3D56"/>
<path d="M291.065 92.7935C291.223 93.1781 291.446 93.5241 291.723 93.8118C292 94.0994 292.324 94.3231 292.678 94.4699C293.032 94.6168 293.408 94.6839 293.785 94.6676C294.162 94.6513 294.532 94.5518 294.875 94.3749L306.18 88.5353C306.872 88.1779 307.409 87.5266 307.674 86.7245C307.938 85.9225 307.907 85.0355 307.589 84.2587C307.271 83.4819 306.69 82.8789 305.976 82.5823C305.262 82.2858 304.472 82.3199 303.78 82.6773L292.474 88.5169C292.131 88.6939 291.823 88.9448 291.567 89.2555C291.311 89.5662 291.111 89.9305 290.981 90.3277C290.85 90.7248 290.79 91.1469 290.804 91.57C290.819 91.9931 290.908 92.4088 291.065 92.7935Z" fill="#3F3D56"/>
<path d="M293.583 125.962C293.96 125.962 294.334 125.878 294.682 125.716C295.031 125.554 295.347 125.317 295.614 125.017C295.881 124.718 296.092 124.363 296.237 123.972C296.381 123.58 296.455 123.161 296.455 122.738V108.766C296.455 107.911 296.153 107.091 295.614 106.487C295.075 105.882 294.345 105.542 293.583 105.542C292.822 105.542 292.091 105.882 291.552 106.487C291.014 107.091 290.711 107.911 290.711 108.766V122.738C290.711 123.161 290.786 123.58 290.93 123.972C291.074 124.363 291.286 124.718 291.552 125.017C291.819 125.317 292.136 125.554 292.484 125.716C292.833 125.878 293.206 125.962 293.583 125.962Z" fill="#3F3D56"/>
<path d="M305.585 35.5125C305.833 35.1616 306.013 34.7556 306.111 34.3212C306.209 33.8869 306.224 33.4341 306.155 32.9928L304.592 22.67L303.029 12.3472C302.945 11.7899 302.731 11.2673 302.41 10.832C302.089 10.3966 301.671 10.064 301.199 9.86733C300.727 9.6707 300.217 9.61706 299.72 9.71181C299.224 9.80655 298.758 10.0463 298.37 10.4071L291.189 17.0881L286.862 21.1132C283.976 20.5371 281.027 20.4872 278.128 20.9653L273.96 17.0881L266.778 10.4071C266.39 10.0463 265.925 9.80656 265.428 9.71182C264.932 9.61707 264.422 9.67071 263.95 9.86734C263.478 10.064 263.06 10.3967 262.739 10.832C262.417 11.2673 262.204 11.7899 262.119 12.3472L260.556 22.67L258.993 32.9928C258.91 33.5353 258.953 34.0929 259.118 34.6111C256.44 39.2212 254.91 44.5528 254.689 50.0513C254.468 55.5499 255.563 61.0145 257.861 65.8768C260.159 70.7391 263.575 74.8214 267.754 77.6991C271.934 80.5767 276.724 82.1447 281.626 82.2398C286.528 82.3349 291.363 80.9536 295.629 78.2397C299.894 75.5259 303.434 71.5785 305.88 66.8082C308.326 62.038 309.589 56.6191 309.537 51.1152C309.485 45.6114 308.12 40.2237 305.585 35.5125Z" fill="#3F3D56"/>
<path d="M266.058 14.6372C265.888 14.6375 265.719 14.6719 265.56 14.7388C265.325 14.8347 265.117 14.999 264.958 15.2147C264.799 15.4305 264.693 15.69 264.653 15.9666L262.758 28.4849C262.716 28.7609 262.74 29.0443 262.826 29.3067C262.913 29.5691 263.06 29.8013 263.252 29.9799C263.444 30.1585 263.674 30.2772 263.92 30.3241C264.166 30.371 264.418 30.3444 264.652 30.2471L275.256 25.8307C275.49 25.7333 275.697 25.5686 275.856 25.3532C276.015 25.1377 276.121 24.879 276.163 24.6031C276.204 24.3272 276.181 24.0438 276.094 23.7814C276.007 23.519 275.861 23.2868 275.669 23.1082L266.96 15.0061C266.707 14.7684 266.388 14.6379 266.058 14.6372Z" fill="#E6E6E6"/>
<path d="M299.09 14.6372C298.76 14.6379 298.441 14.7685 298.189 15.0061L289.48 23.1082C289.288 23.2868 289.141 23.519 289.054 23.7814C288.968 24.0438 288.944 24.3272 288.986 24.6031C289.028 24.879 289.133 25.1377 289.292 25.3532C289.451 25.5686 289.658 25.7333 289.892 25.8307L300.496 30.2471C300.73 30.3444 300.983 30.371 301.228 30.3241C301.474 30.2772 301.705 30.1585 301.897 29.9799C302.089 29.8013 302.235 29.5691 302.322 29.3067C302.409 29.0443 302.433 28.7609 302.391 28.4849L300.495 15.9666C300.455 15.69 300.35 15.4305 300.19 15.2147C300.031 14.999 299.823 14.8347 299.589 14.7388C299.429 14.6719 299.26 14.6375 299.09 14.6372Z" fill="#E6E6E6"/>
<path d="M282.096 60.0464C284.21 60.0464 285.925 58.1217 285.925 55.7476C285.925 53.3734 284.21 51.4487 282.096 51.4487C279.981 51.4487 278.266 53.3734 278.266 55.7476C278.266 58.1217 279.981 60.0464 282.096 60.0464Z" fill="#E6E6E6"/>
<path d="M282.096 54.6728C283.505 54.6728 284.648 54.1917 284.648 53.5981C284.648 53.0046 283.505 52.5234 282.096 52.5234C280.686 52.5234 279.543 53.0046 279.543 53.5981C279.543 54.1917 280.686 54.6728 282.096 54.6728Z" fill="#3F3D56"/>
<path d="M280.181 58.2552H283.691V63.0914C283.691 63.3502 283.646 63.6064 283.557 63.8454C283.469 64.0845 283.34 64.3017 283.177 64.4846C283.014 64.6676 282.821 64.8127 282.608 64.9118C282.395 65.0108 282.166 65.0617 281.936 65.0617C281.47 65.0617 281.024 64.8541 280.695 64.4846C280.366 64.1151 280.181 63.614 280.181 63.0914L280.181 58.2552Z" fill="#FF6584"/>
<path d="M282.309 9.49463C282.125 9.92314 281.946 10.3563 281.778 10.7983C279.797 15.9833 279.13 21.6811 279.848 27.2647C280.207 26.6795 280.585 26.0698 280.969 25.4534C280.146 20.0946 280.609 14.5865 282.309 9.49463Z" fill="#3F3D56"/>
<path d="M285.181 13.4353C284.996 13.8638 284.818 14.297 284.65 14.739C282.669 19.9239 282.001 25.6218 282.72 31.2054C283.079 30.6202 283.456 30.0105 283.84 29.3941C283.018 24.0353 283.48 18.5272 285.181 13.4353Z" fill="#3F3D56"/>
<path d="M294.035 90.7971L293.63 85.021L293.226 79.2448C293.204 78.9329 293.109 78.633 292.951 78.3752C292.794 78.1173 292.578 77.9107 292.327 77.776C292.075 77.6413 291.796 77.5833 291.519 77.6078C291.241 77.6323 290.974 77.7385 290.744 77.9157L286.49 81.1971L283.384 83.5933C283.186 83.3324 282.939 83.1229 282.662 82.9792C282.384 82.8355 282.082 82.7611 281.776 82.7611C281.471 82.7611 281.169 82.8355 280.891 82.9792C280.614 83.1229 280.367 83.3324 280.168 83.5933L277.062 81.1971L272.809 77.9157C272.579 77.7385 272.312 77.6323 272.034 77.6078C271.756 77.5833 271.478 77.6413 271.226 77.776C270.975 77.9106 270.759 78.1173 270.601 78.3751C270.444 78.633 270.349 78.9329 270.327 79.2448L269.923 85.0209L269.518 90.7971C269.496 91.109 269.548 91.4218 269.668 91.7042C269.788 91.9865 269.972 92.2284 270.202 92.4056C270.431 92.5828 270.698 92.689 270.976 92.7135C271.254 92.738 271.533 92.68 271.784 92.5453L276.442 90.0506L280.27 88.0007C280.467 88.2248 280.701 88.4026 280.96 88.524C281.219 88.6455 281.496 88.708 281.776 88.708C282.057 88.708 282.334 88.6455 282.593 88.524C282.852 88.4026 283.086 88.2248 283.283 88.0007L287.111 90.0506L291.769 92.5453C292.02 92.68 292.299 92.738 292.577 92.7135C292.854 92.689 293.122 92.5828 293.351 92.4056C293.581 92.2284 293.765 91.9865 293.885 91.7042C294.005 91.4218 294.057 91.109 294.035 90.7971Z" fill="#005C29"/>
<path d="M276.99 52.1652C277.519 52.1652 277.947 51.684 277.947 51.0905C277.947 50.4969 277.519 50.0157 276.99 50.0157C276.461 50.0157 276.033 50.4969 276.033 51.0905C276.033 51.684 276.461 52.1652 276.99 52.1652Z" fill="#E6E6E6"/>
<path d="M287.201 52.1652C287.73 52.1652 288.158 51.684 288.158 51.0905C288.158 50.4969 287.73 50.0157 287.201 50.0157C286.672 50.0157 286.244 50.4969 286.244 51.0905C286.244 51.684 286.672 52.1652 287.201 52.1652Z" fill="#E6E6E6"/>
<path d="M96.8708 113.236C97.1038 113.239 97.3367 113.243 97.5729 113.243C97.809 113.243 98.0419 113.239 98.2749 113.236C110.624 112.921 119.575 104.258 117.297 95.17L111.741 72.9988L110.337 67.3888L85.447 67.8652L83.9345 73.3534L77.98 94.9551C75.4591 104.094 84.4099 112.921 96.8708 113.236Z" fill="#3F3D56"/>
<path opacity="0.2" d="M83.9344 73.3534C88.1783 76.0768 92.9926 77.4798 97.8806 77.4174C102.769 77.3551 107.553 75.8297 111.741 72.9988L110.337 67.3888L85.447 67.8652L83.9344 73.3534Z" fill="black"/>
<path d="M81.9618 93.2779C79.2754 89.7284 73.6079 85.5605 61.6683 83.2492C40.8449 79.2165 46.2633 65.0145 46.5037 64.4123C47.008 63.1492 46.498 62.303 45.3536 62.5295C44.7095 62.7102 44.1072 63.0433 43.5872 63.5067C43.0672 63.97 42.6414 64.5528 42.3384 65.2159C42.0307 65.9544 35.0793 83.3437 58.576 87.8922C79.7231 91.9875 79.7985 101.958 79.7929 102.057C79.7366 103.157 80.7134 103.495 81.9768 102.812C83.2403 102.129 84.3112 100.683 84.3693 99.5825C84.381 99.35 84.4633 96.5819 81.9618 93.2779Z" fill="#3F3D56"/>
<path d="M109.061 116.467C109.438 116.467 109.811 116.384 110.16 116.222C110.508 116.06 110.825 115.822 111.091 115.523C111.358 115.224 111.57 114.868 111.714 114.477C111.858 114.086 111.932 113.666 111.932 113.243V99.2719C111.932 98.4175 111.629 97.5984 111.09 96.9946C110.552 96.3908 109.822 96.0516 109.061 96.0516C108.299 96.0516 107.569 96.3908 107.031 96.9946C106.492 97.5984 106.19 98.4175 106.189 99.2719V113.243C106.189 113.666 106.263 114.086 106.407 114.477C106.552 114.868 106.763 115.224 107.03 115.523C107.296 115.822 107.613 116.06 107.961 116.222C108.31 116.384 108.683 116.467 109.061 116.467Z" fill="#3F3D56"/>
<path d="M106.542 83.2988C106.7 83.6835 106.924 84.0295 107.2 84.3171C107.477 84.6048 107.802 84.8284 108.155 84.9752C108.509 85.1221 108.885 85.1893 109.262 85.173C109.639 85.1567 110.009 85.0572 110.352 84.8802L121.658 79.0407C122.001 78.864 122.309 78.6131 122.566 78.3024C122.822 77.9918 123.022 77.6274 123.153 77.2301C123.284 76.8328 123.344 76.4103 123.33 75.9869C123.315 75.5636 123.227 75.1475 123.069 74.7626C122.911 74.3777 122.687 74.0315 122.41 73.7438C122.133 73.456 121.809 73.2324 121.455 73.0856C121.101 72.9389 120.724 72.8719 120.347 72.8886C119.97 72.9052 119.6 73.0052 119.257 73.1827L107.951 79.0222C107.608 79.1992 107.3 79.4502 107.044 79.7609C106.788 80.0716 106.589 80.4359 106.458 80.833C106.327 81.2301 106.267 81.6523 106.282 82.0754C106.296 82.4984 106.385 82.9142 106.542 83.2988Z" fill="#3F3D56"/>
<path d="M88.6033 83.2988C88.4457 83.6835 88.2221 84.0295 87.9454 84.3171C87.6686 84.6048 87.3441 84.8284 86.9903 84.9752C86.6366 85.1221 86.2606 85.1893 85.8837 85.173C85.5068 85.1567 85.1365 85.0572 84.7939 84.8802L73.4881 79.0407C73.1451 78.864 72.8365 78.6131 72.5799 78.3024C72.3233 77.9918 72.1237 77.6274 71.9926 77.2301C71.8615 76.8328 71.8015 76.4103 71.8159 75.9869C71.8304 75.5636 71.919 75.1475 72.0767 74.7626C72.2345 74.3777 72.4583 74.0315 72.7353 73.7438C73.0123 73.456 73.3371 73.2324 73.6911 73.0856C74.0452 72.9389 74.4215 72.8719 74.7986 72.8886C75.1757 72.9052 75.5462 73.0052 75.8889 73.1827L87.1947 79.0222C87.5373 79.1992 87.8455 79.4502 88.1017 79.7609C88.358 80.0716 88.5572 80.4359 88.688 80.833C88.8188 81.2301 88.8786 81.6523 88.8641 82.0754C88.8496 82.4984 88.7609 82.9142 88.6033 83.2988Z" fill="#3F3D56"/>
<path d="M86.0852 116.467C85.7081 116.467 85.3346 116.384 84.9862 116.222C84.6377 116.06 84.3211 115.822 84.0544 115.523C83.7877 115.224 83.5762 114.868 83.4319 114.477C83.2876 114.086 83.2133 113.666 83.2133 113.243V99.2719C83.2142 98.4175 83.5172 97.5984 84.0557 96.9946C84.5942 96.3908 85.3241 96.0516 86.0852 96.0516C86.8463 96.0516 87.5762 96.3908 88.1147 96.9946C88.6532 97.5984 88.9562 98.4175 88.9571 99.2719V113.243C88.9571 113.666 88.8828 114.086 88.7385 114.477C88.5942 114.868 88.3826 115.224 88.116 115.523C87.8493 115.822 87.5327 116.06 87.1842 116.222C86.8358 116.384 86.4623 116.467 86.0852 116.467Z" fill="#3F3D56"/>
<path d="M120.55 25.1164C120.716 24.5981 120.759 24.0406 120.675 23.498L119.112 13.1753L117.549 2.8525C117.465 2.29514 117.251 1.77254 116.93 1.33723C116.608 0.901914 116.191 0.56923 115.719 0.372601C115.246 0.175972 114.736 0.122328 114.24 0.217071C113.744 0.311814 113.278 0.551605 112.89 0.912333L105.709 7.59336L101.541 11.4706C98.6412 10.9925 95.6919 11.0424 92.8064 11.6184L88.4797 7.59334L81.298 0.912319C80.9102 0.55159 80.4447 0.311801 79.9483 0.217057C79.4518 0.122314 78.9419 0.175951 78.4697 0.37258C77.9975 0.569208 77.5798 0.901899 77.2585 1.33721C76.9372 1.77253 76.7236 2.29513 76.6392 2.85249L75.0761 13.1753L73.5131 23.498C73.4441 23.9394 73.4592 24.3922 73.5575 24.8265C73.6557 25.2608 73.8349 25.6668 74.0831 26.0177C71.5446 30.73 70.1775 36.1199 70.124 41.6265C70.0704 47.1332 71.3325 52.5553 73.7787 57.3286C76.2249 62.102 79.766 66.0521 84.0334 68.7679C88.3007 71.4837 93.1384 72.866 98.0431 72.7708C102.948 72.6757 107.74 71.1066 111.921 68.2269C116.103 65.3472 119.52 61.2621 121.818 56.3968C124.116 51.5314 125.21 46.0636 124.987 40.5623C124.764 35.0611 123.232 29.7274 120.55 25.1164Z" fill="#3F3D56"/>
<path d="M112.709 5.51136L104 13.6131C103.808 13.7917 103.661 14.0242 103.574 14.2866C103.488 14.549 103.464 14.8324 103.506 15.1083C103.547 15.3842 103.653 15.6429 103.812 15.8584C103.971 16.0739 104.178 16.2386 104.412 16.3359L115.016 20.7523C115.25 20.8497 115.503 20.8762 115.748 20.8293C115.994 20.7824 116.225 20.6637 116.417 20.4851C116.609 20.3066 116.755 20.0744 116.842 19.812C116.929 19.5495 116.953 19.2661 116.911 18.9902L115.015 6.47184C114.975 6.19527 114.87 5.93577 114.71 5.71999C114.551 5.50422 114.343 5.33995 114.109 5.24409C113.949 5.17715 113.78 5.14273 113.61 5.14246C113.28 5.14315 112.961 5.2737 112.709 5.51136Z" fill="#E6E6E6"/>
<path d="M80.0796 5.24409C79.845 5.33995 79.6374 5.50421 79.4781 5.71999C79.3188 5.93576 79.2135 6.19527 79.1731 6.47184L77.2777 18.9902C77.2359 19.2661 77.2596 19.5495 77.3463 19.812C77.433 20.0744 77.5797 20.3066 77.7717 20.4851C77.9637 20.6637 78.1942 20.7824 78.44 20.8293C78.6858 20.8762 78.9383 20.8497 79.172 20.7523L89.7765 16.3359C90.0103 16.2386 90.217 16.0739 90.3761 15.8584C90.5352 15.6429 90.6409 15.3842 90.6827 15.1083C90.7245 14.8324 90.7008 14.549 90.6141 14.2866C90.5274 14.0242 90.3808 13.7921 90.1888 13.6135L81.4797 5.51136C81.227 5.2737 80.908 5.14315 80.5784 5.14246C80.4081 5.14273 80.2392 5.17715 80.0796 5.24409Z" fill="#E6E6E6"/>
<path d="M97.5728 50.5516C99.6876 50.5516 101.402 48.627 101.402 46.2528C101.402 43.8786 99.6876 41.954 97.5728 41.954C95.458 41.954 93.7436 43.8786 93.7436 46.2528C93.7436 48.627 95.458 50.5516 97.5728 50.5516Z" fill="#E6E6E6"/>
<path d="M97.5728 45.1782C98.9827 45.1782 100.126 44.6971 100.126 44.1035C100.126 43.51 98.9827 43.0288 97.5728 43.0288C96.163 43.0288 95.02 43.51 95.02 44.1035C95.02 44.6971 96.163 45.1782 97.5728 45.1782Z" fill="#3F3D56"/>
<path d="M97.7324 55.567C97.5019 55.567 97.2737 55.516 97.0607 55.417C96.8478 55.318 96.6543 55.1729 96.4914 54.9899C96.3284 54.807 96.1991 54.5898 96.1109 54.3507C96.0227 54.1117 95.9773 53.8554 95.9773 53.5967V48.7605H99.4874V53.5967C99.4874 53.8554 99.442 54.1117 99.3538 54.3507C99.2656 54.5898 99.1364 54.807 98.9734 54.9899C98.8104 55.1729 98.6169 55.318 98.404 55.417C98.1911 55.516 97.9628 55.567 97.7324 55.567Z" fill="#FF6584"/>
<path d="M97.3597 0C97.5438 0.428509 97.7225 0.861652 97.8906 1.30365C99.871 6.48863 100.539 12.1864 99.8207 17.7701C99.4614 17.1849 99.0838 16.5752 98.6998 15.9588C99.5223 10.5999 99.0598 5.0919 97.3597 0Z" fill="#3F3D56"/>
<path d="M94.4879 3.94055C94.6719 4.36907 94.8506 4.8022 95.0187 5.2442C96.9991 10.4292 97.6669 16.127 96.9488 21.7106C96.5895 21.1254 96.2119 20.5157 95.8279 19.8993C96.6504 14.5405 96.1879 9.03245 94.4879 3.94055Z" fill="#3F3D56"/>
<path d="M85.6336 18.6111L86.0382 12.8349L86.4427 7.05874C86.4646 6.74687 86.5592 6.44694 86.717 6.18911C86.8748 5.93127 87.0903 5.72462 87.3418 5.58992C87.5933 5.45522 87.872 5.39722 88.1498 5.42175C88.4276 5.44627 88.6948 5.55246 88.9244 5.72964L93.178 9.01107L96.2841 11.4073C96.4826 11.1463 96.7291 10.9368 97.0067 10.7931C97.2843 10.6495 97.5863 10.5751 97.892 10.5751C98.1976 10.5751 98.4997 10.6495 98.7773 10.7931C99.0549 10.9368 99.3014 11.1463 99.4999 11.4073L102.606 9.01107L106.86 5.72964C107.089 5.55246 107.356 5.44627 107.634 5.42175C107.912 5.39722 108.191 5.45522 108.442 5.58992C108.694 5.72462 108.909 5.93127 109.067 6.18911C109.225 6.44694 109.319 6.74687 109.341 7.05874L109.746 12.8349L110.15 18.6111C110.172 18.9229 110.121 19.2358 110.001 19.5181C109.881 19.8005 109.697 20.0424 109.467 20.2196C109.237 20.3967 108.97 20.5029 108.692 20.5275C108.414 20.552 108.136 20.494 107.884 20.3593L103.226 17.8645L99.3987 15.8147C99.2018 16.0387 98.9672 16.2166 98.7085 16.338C98.4499 16.4594 98.1723 16.5219 97.892 16.5219C97.6116 16.5219 97.334 16.4594 97.0754 16.338C96.8167 16.2166 96.5821 16.0387 96.3852 15.8147L92.5578 17.8645L87.8997 20.3593C87.6482 20.494 87.3695 20.552 87.0917 20.5275C86.8139 20.503 86.5468 20.3968 86.3171 20.2196C86.0874 20.0424 85.9034 19.8005 85.7834 19.5181C85.6634 19.2358 85.6117 18.9229 85.6336 18.6111Z" fill="#005C29"/>
<path d="M101.721 41.5958C101.721 42.1893 102.15 41.5958 102.679 41.5958C103.207 41.5958 103.636 42.1893 103.636 41.5958C103.635 41.3111 103.534 41.0384 103.355 40.8373C103.175 40.6362 102.932 40.5233 102.679 40.5233C102.425 40.5233 102.182 40.6362 102.002 40.8373C101.823 41.0384 101.722 41.3111 101.721 41.5958Z" fill="#E6E6E6"/>
<path d="M93.4245 41.5958C93.4245 42.1893 92.9959 41.5958 92.4672 41.5958C91.9385 41.5958 91.5099 42.1893 91.5099 41.5958C91.5104 41.3111 91.6115 41.0384 91.791 40.8373C91.9705 40.6362 92.2137 40.5233 92.4672 40.5233C92.7208 40.5233 92.964 40.6362 93.1434 40.8373C93.3229 41.0384 93.424 41.3111 93.4245 41.5958Z" fill="#E6E6E6"/>
<path d="M199.634 122.74V115.908H169.209V116.335V122.74V177.817V184.648H175.294H199.634V177.817H175.294V122.74H199.634Z" fill="#3F3D56"/>
<path d="M214.466 115.908V184.648H244.892V115.908H214.466ZM238.807 177.817H220.551V122.74H238.807V177.817Z" fill="#005C29"/>
<path d="M130.037 177.817V116.335H123.952V177.817V184.648H130.037H154.377V177.817H130.037Z" fill="#005C29"/>
<path d="M110.261 122.74V115.908H79.8355V116.335V122.74V146.649V153.481V177.817V184.648H85.9206H110.261V177.817H85.9206V153.481H110.261V146.649H85.9206V122.74H110.261Z" fill="#3F3D56"/>
<path d="M348.337 122.74V115.908H317.912V116.335V122.74V146.649V153.481V177.817V184.648H323.997H348.337V177.817H323.997V153.481H348.337V146.649H323.997V122.74H348.337Z" fill="#005C29"/>
<path d="M59.2985 116.335V172.795L43.2543 154.783L43.2178 154.825L43.1838 154.786L26.7819 173.2V116.122H20.6968V184.435H26.7819V182.861L43.2207 164.406L59.2985 182.456V184.648H65.3836V116.335H59.2985Z" fill="#3F3D56"/>
<path d="M297.755 116.335V117.909L281.316 136.364L265.238 118.315V116.122H259.153V184.435H265.238V127.975L281.282 145.987L281.319 145.946L281.353 145.983L297.755 127.57V184.648H303.84V116.335H297.755Z" fill="#3F3D56"/>
<path d="M139.055 74.2536C141.118 74.2536 142.79 72.3763 142.79 70.0606C142.79 67.7448 141.118 65.8676 139.055 65.8676C136.993 65.8676 135.32 67.7448 135.32 70.0606C135.32 72.3763 136.993 74.2536 139.055 74.2536Z" fill="#005C29"/>
<path d="M46.926 120.843C48.9888 120.843 50.661 118.965 50.661 116.65C50.661 114.334 48.9888 112.457 46.926 112.457C44.8633 112.457 43.1911 114.334 43.1911 116.65C43.1911 118.965 44.8633 120.843 46.926 120.843Z" fill="#005C29"/>
<path d="M120.795 214.021C122.858 214.021 124.53 212.144 124.53 209.828C124.53 207.512 122.858 205.635 120.795 205.635C118.733 205.635 117.06 207.512 117.06 209.828C117.06 212.144 118.733 214.021 120.795 214.021Z" fill="#005C29"/>
<path d="M214.585 86.8327C216.648 86.8327 218.32 84.9554 218.32 82.6397C218.32 80.3239 216.648 78.4467 214.585 78.4467C212.522 78.4467 210.85 80.3239 210.85 82.6397C210.85 84.9554 212.522 86.8327 214.585 86.8327Z" fill="#005C29"/>
<path d="M324.559 210.294C326.622 210.294 328.294 208.417 328.294 206.101C328.294 203.785 326.622 201.908 324.559 201.908C322.496 201.908 320.824 203.785 320.824 206.101C320.824 208.417 322.496 210.294 324.559 210.294Z" fill="#005C29"/>
<path d="M328.294 100.344C330.357 100.344 332.029 98.4663 332.029 96.1505C332.029 93.8348 330.357 91.9575 328.294 91.9575C326.231 91.9575 324.559 93.8348 324.559 96.1505C324.559 98.4663 326.231 100.344 328.294 100.344Z" fill="#005C29"/>
<path d="M280.984 175.818C283.047 175.818 284.719 173.941 284.719 171.625C284.719 169.309 283.047 167.432 280.984 167.432C278.921 167.432 277.249 169.309 277.249 171.625C277.249 173.941 278.921 175.818 280.984 175.818Z" fill="#005C29"/>
</g>
<defs>
<clipPath id="clip0_14_315">
<rect width="368.964" height="214.021" fill="white"/>
</clipPath>
</defs>
</svg>
