<svg width="368" height="286" viewBox="0 0 368 286" fill="none" xmlns="http://www.w3.org/2000/svg">
<g clip-path="url(#clip0_15_552)">
<path opacity="0.1" d="M360.883 76.0958C357.239 67.6449 352.316 59.8049 346.286 52.851L143.768 50.857L310.508 27.4512C299.737 23.164 288.269 20.89 276.676 20.7423C260.726 8.00027 241.086 0.744528 220.678 0.0543573C200.27 -0.635814 180.184 5.27646 163.409 16.9117C150.002 10.0238 135.14 6.44423 120.066 6.47256C75.0687 6.47256 37.572 37.6183 29.1614 78.9239L360.883 76.0958Z" fill="#005C29"/>
<path opacity="0.1" d="M368.004 110.736C368.013 99.5349 365.87 88.4365 361.692 78.0433L10.7031 114.863C7.08367 121.406 4.31506 128.384 2.4644 135.627L111.154 151.823L-0.0179443 163.637C3.32767 210.395 43.4357 247.319 92.4307 247.319C117.093 247.319 139.506 237.96 156.108 222.703C172.769 238.25 195.393 247.809 220.32 247.809C257.308 247.809 289.231 226.762 304.097 196.329C333.924 186.871 357.093 163.114 365.023 133.397L227.588 112.075H368.004C367.996 111.627 368.004 111.183 368.004 110.736Z" fill="#005C29"/>
<path d="M102.69 286C147.597 286 184.002 280.036 184.002 272.679C184.002 265.322 147.597 259.358 102.69 259.358C57.7822 259.358 21.3776 265.322 21.3776 272.679C21.3776 280.036 57.7822 286 102.69 286Z" fill="#005C29"/>
<path d="M186.785 186.867C183.128 187.784 179.374 186.001 179.374 186.001C179.374 186.001 176.171 182.296 173.471 181.794C170.77 181.293 169.724 185.679 168.119 186.806C167.009 187.597 158.999 187.032 154.149 186.609L153.315 186.534C153.232 186.473 153.15 186.409 153.06 186.352C153.06 186.352 148.404 184.92 147.433 183.652C146.462 182.385 139.975 180.04 137.962 180.176C135.949 180.312 129.999 180.634 129.999 180.634C129.999 180.634 127.667 177.982 126.614 178.257C125.561 178.533 121.9 178.236 121.9 178.236C121.9 178.236 120.894 175.651 119.887 171.946C119.418 170.217 117.856 169.003 116.327 168.205C117.702 163.551 115.252 150.276 107.644 147.681C105.985 147.115 105.136 145.236 103.725 144.205C102.46 143.285 100.39 141.115 101.404 137.195C102.837 131.707 106.39 123.065 106.39 123.065L109.037 117.781C108.79 118.155 108.51 118.506 108.199 118.83C108.557 118.372 108.915 117.921 109.223 117.541C111.865 118.875 114.746 119.668 117.698 119.875C120.686 121.082 123.67 122.145 124.83 122.106C127.485 122.012 134.255 125.399 134.255 125.399C134.255 125.399 150.542 130.053 153.927 130.429C157.312 130.805 158.96 126.405 158.96 126.405C158.96 126.405 160.719 117.731 157.595 115.432C154.472 113.134 152.655 123.666 152.655 123.666L131.346 115.991L130.031 115.3C131.052 114.221 131.862 112.96 132.421 111.584C132.75 110.764 133.051 109.826 133.835 109.418C134.047 109.313 134.275 109.247 134.509 109.221C134.703 109.209 134.898 109.209 135.093 109.221C138.789 109.447 141.967 112.354 145.671 112.368C145.807 112.368 145.943 112.368 146.079 112.368C146.785 112.366 147.474 112.154 148.06 111.759C148.39 111.491 148.662 111.157 148.858 110.779C149.054 110.401 149.17 109.986 149.199 109.561C149.145 109.676 149.085 109.789 149.02 109.898C149.116 109.371 149.116 108.831 149.02 108.305C148.79 107.048 148.135 105.921 147.547 104.786C147.381 104.521 147.288 104.217 147.275 103.905C147.292 103.742 147.341 103.584 147.421 103.441C147.5 103.297 147.608 103.172 147.737 103.071C147.743 103.105 147.75 103.138 147.759 103.171C148.038 102.909 148.348 102.681 148.683 102.494C149.588 101.901 150.362 101.128 150.956 100.223C151.55 99.3188 151.952 98.3018 152.136 97.2355C152.047 97.5004 151.939 97.7618 151.824 98.0195C152.375 96.2022 152.242 94.2462 151.448 92.5207C151.243 92.0296 150.915 91.5994 150.495 91.2713C149.159 90.3333 147.365 91.3322 145.735 91.4396C144.302 91.5326 142.912 90.8918 141.619 90.2438C139.413 89.1376 137.217 87.9419 135.379 86.3059C133.291 84.4336 131.74 82.0457 129.856 79.9729C127.972 77.9001 125.554 76.0529 122.749 75.8452C117.652 75.4514 112.845 80.4992 107.998 78.8524C105.634 78.0541 104.08 75.8703 102.435 73.9944C100.791 72.1185 98.531 70.3177 96.0665 70.7223C94.3543 71.0087 92.8714 72.3368 91.1377 72.2867C90.2314 72.2581 89.3896 71.8535 88.5299 71.5707C86.4488 70.8726 83.5975 71.2127 82.856 73.282C82.7103 73.7034 82.6589 74.1517 82.7053 74.5952C82.7517 75.0387 82.8949 75.4666 83.1247 75.8488C83.015 76.0025 82.9169 76.164 82.8309 76.3321C82.6529 76.66 82.591 77.0385 82.6554 77.4061C81.1823 78.7276 80.0907 80.4198 79.4944 82.3064C78.8982 84.1929 78.8191 86.2048 79.2654 88.1323C79.7117 90.0597 80.6671 91.8323 82.0319 93.2653C83.3968 94.6983 85.1212 95.7392 87.0255 96.2797C87.0935 96.541 87.1616 96.8023 87.2261 97.0673C87.921 99.9921 88.2828 103.286 87.2547 105.505C87.1903 105.641 87.1222 105.774 87.047 105.903L86.9574 105.942L86.8285 105.81L86.0476 104.993C86.0046 104.141 85.5246 101.857 82.1862 97.6186C77.791 92.0374 76.9671 82.8011 76.9671 82.8011C76.9671 82.8011 75.871 78.0469 76.9671 76.6758C78.0632 75.3046 79.8972 60.2079 79.8972 60.2079L82.9276 51.7091C82.9276 51.7091 97.6605 36.709 91.5245 34.8832C87.3586 33.641 82.3903 40.042 79.6322 44.2735C78.2774 46.3513 77.4014 48.7039 77.0674 51.1613L68.7392 73.9335C68.7392 73.9335 67.9153 76.6793 68.7392 81.4335C69.5631 86.1877 71.3935 94.6042 71.3935 94.6042L76.0501 106.4C76.0501 106.4 77.7659 111.495 77.6155 113.707C77.4113 113.839 76.6949 115.257 76.0752 116.546L75.6203 117.262L75.5881 117.552C75.2836 118.2 75.0722 118.665 75.0722 118.665C75.0722 118.665 72.4788 126.316 74.646 131.009C76.8131 135.702 76.8991 137.879 76.8991 137.879L78.5146 144.831L79.188 150.917L84.998 165.276L90.3496 172.912C90.3496 172.912 89.8481 178.537 88.7484 179.313C87.6488 180.09 88.1538 184.114 88.1538 184.114L87.4661 194.675C87.4661 194.675 85.3169 197.833 85.1807 202.952C85.0446 208.071 84.2637 209.539 84.2637 209.539C84.2637 209.539 83.9055 213.835 84.9049 215.804C85.9043 217.773 83.3038 219.828 83.3038 219.828L85.5354 227.485L84.6649 237.18C84.6649 237.18 85.0697 237.291 85.7395 237.459L85.6034 238.154L81.9641 256.519C81.9641 256.519 79.9975 261.552 79.908 262.737L73.5463 274.218C73.5463 274.218 68.2377 279.477 70.7559 279.979C73.2741 280.48 80.5957 275.955 80.5957 275.955C80.5957 275.955 86.635 269.461 89.0135 268.87C91.392 268.279 94.0284 266.579 93.269 264.112C92.5096 261.645 90.7615 257.894 92.4451 253.913C93.5197 251.407 95.805 244.605 97.374 239.858C97.4599 239.596 97.5423 239.346 97.6247 239.102C98.0397 239.065 98.45 238.987 98.8498 238.87C102.693 237.681 104.706 238.512 104.706 238.512L111.57 210.756L113.078 196.83L122.688 204.842C124.59 206.427 126.95 207.36 129.422 207.502C133.209 207.724 139.115 208.272 143.392 209.593L145.183 202.139C145.183 202.139 150.306 202.325 151.405 200.586C151.853 199.87 152.294 199.261 152.655 198.796L153.486 198.667L176.157 195.162C180.366 195.162 186.133 192.323 186.133 192.323L189.658 191.639C189.658 191.639 194.916 190.587 195.389 189.717C195.862 188.847 190.449 185.958 186.785 186.867Z" fill="url(#paint0_linear_15_552)"/>
<path d="M83.9126 75.0755C84.629 73.0564 87.4302 72.7163 89.4684 73.4001C90.3066 73.6793 91.134 74.0767 92.0188 74.1161C93.7167 74.1662 95.1674 72.8631 96.8438 72.5875C99.2545 72.1865 101.465 73.9478 103.073 75.7844C104.681 77.6209 106.207 79.7581 108.521 80.5421C113.26 82.1388 117.967 77.2128 122.953 77.5958C125.69 77.807 128.054 79.6078 129.899 81.6376C131.744 83.6675 133.262 86.0016 135.304 87.8345C137.095 89.4455 139.244 90.6162 141.411 91.7009C142.676 92.3345 144.026 92.961 145.438 92.868C147.035 92.7641 148.79 91.794 150.094 92.7033C150.505 93.0249 150.825 93.4465 151.026 93.9276C152.63 97.2642 151.337 101.707 148.196 103.669C147.648 104.009 146.981 104.385 146.949 105.04C146.959 105.346 147.051 105.644 147.214 105.903C147.787 107.012 148.432 108.119 148.647 109.347C148.862 110.574 148.572 111.989 147.572 112.733C146.92 113.167 146.145 113.379 145.362 113.338C141.737 113.32 138.628 110.474 135.01 110.256C134.547 110.203 134.079 110.275 133.653 110.464C132.886 110.861 132.578 111.781 132.266 112.583C130.59 116.768 126.428 119.678 121.986 120.477C117.544 121.275 112.906 120.151 108.93 118.017C108.639 117.878 108.372 117.695 108.138 117.473C107.806 117.07 107.572 116.596 107.454 116.088C106.236 112.239 104.588 108.212 101.214 105.989C99.0252 104.557 96.0557 103.751 95.0635 101.335C94.4402 99.8059 94.8307 98.0697 94.6731 96.4229C94.5179 95.011 93.9674 93.6714 93.0847 92.5582C92.2021 91.4449 91.0231 90.603 89.6833 90.1293C89.0958 89.9324 88.4511 89.7928 88.0212 89.3453C87.6722 88.9059 87.4494 88.38 87.3765 87.8238C86.8427 85.4002 86.4881 82.8405 85.7431 80.4741C85.1735 78.6197 83.1497 77.1984 83.9126 75.0755Z" fill="#663D5B"/>
<g opacity="0.1">
<path d="M147.992 111.62C147.337 112.048 146.562 112.255 145.781 112.211C142.16 112.211 139.051 109.347 135.433 109.132C134.97 109.078 134.502 109.148 134.075 109.336C133.305 109.733 133.001 110.653 132.689 111.455C131.013 115.644 126.847 118.554 122.405 119.353C117.963 120.151 113.325 119.027 109.352 116.893C109.062 116.754 108.795 116.57 108.561 116.349C108.229 115.946 107.995 115.472 107.876 114.964C106.659 111.111 105.011 107.088 101.637 104.861C99.4443 103.411 96.4748 102.627 95.4862 100.207C94.8593 98.6747 95.2498 96.9384 95.0958 95.2952C94.9411 93.8826 94.3904 92.5424 93.507 91.4289C92.6235 90.3155 91.4434 89.4741 90.1024 89.0016C89.5149 88.8047 88.8702 88.6615 88.4403 88.2176C88.0909 87.7775 87.8691 87.25 87.7992 86.6925C87.2619 84.2725 86.9108 81.7092 86.1657 79.3464C85.6643 77.7641 84.0846 76.4825 84.1634 74.7927C84.117 74.8819 84.0763 74.974 84.0416 75.0684C83.2751 77.1913 85.3025 78.6125 85.8792 80.4383C86.6243 82.8011 86.9753 85.3644 87.5126 87.7844C87.5826 88.3419 87.8044 88.8694 88.1538 89.3095C88.5836 89.7534 89.2284 89.8966 89.8158 90.0935C91.1573 90.5662 92.3378 91.4082 93.2213 92.5223C94.1047 93.6364 94.6552 94.9774 94.8092 96.3907C94.9632 98.0339 94.5728 99.7702 95.1996 101.302C96.1883 103.733 99.1578 104.524 101.35 105.956C104.717 108.187 106.365 112.207 107.59 116.059C107.709 116.567 107.943 117.041 108.274 117.444C108.508 117.666 108.775 117.849 109.066 117.989C113.038 120.137 117.663 121.243 122.119 120.448C126.575 119.653 130.715 116.739 132.403 112.551C132.725 111.749 133.022 110.829 133.789 110.431C134.215 110.243 134.684 110.173 135.146 110.227C138.764 110.446 141.874 113.292 145.495 113.306C146.277 113.347 147.052 113.136 147.705 112.705C148.029 112.442 148.295 112.116 148.487 111.747C148.68 111.377 148.794 110.972 148.823 110.557C148.642 110.977 148.355 111.343 147.992 111.62Z" fill="black"/>
<path d="M148.615 102.545C148.067 102.903 147.397 103.261 147.365 103.916C147.362 104.047 147.382 104.178 147.426 104.302C147.698 104.045 148.001 103.823 148.328 103.64C149.214 103.06 149.972 102.304 150.553 101.419C151.134 100.534 151.526 99.5389 151.706 98.4957C151.177 100.163 150.084 101.594 148.615 102.545Z" fill="black"/>
</g>
<path d="M93.2868 251.829C91.6284 255.724 93.3334 259.39 94.0928 261.81C94.8522 264.23 92.2588 265.881 89.9305 266.464C87.6022 267.048 81.6918 273.399 81.6918 273.399C81.6918 273.399 74.5277 277.827 72.0633 277.336C69.5989 276.846 74.7928 271.698 74.7928 271.698L81.0184 260.464C81.1079 259.304 83.0315 254.378 83.0315 254.378L86.592 236.407L87.0649 234.019L99.6879 233.256C99.6879 233.256 99.0253 235.304 98.1118 238.071C96.5751 242.725 94.3256 249.398 93.2868 251.829Z" fill="#CC818C"/>
<path d="M194.031 189.012C193.584 189.864 188.436 190.891 188.436 190.891L184.987 191.56C184.987 191.56 179.345 194.339 175.226 194.339L153.039 197.772L150.062 198.234V185.654C150.062 185.654 151.559 185.811 153.68 186.012C158.419 186.427 166.26 186.978 167.345 186.205C168.914 185.088 169.942 180.792 172.582 181.286C175.222 181.78 178.36 185.403 178.36 185.403C178.36 185.403 182.032 187.146 185.614 186.251C189.196 185.356 194.479 188.16 194.031 189.012Z" fill="#CC818C"/>
<path opacity="0.1" d="M153.823 196.798C153.823 196.798 153.504 197.156 153.039 197.768L150.062 198.23V185.654C150.062 185.654 151.559 185.811 153.68 186.012C157.24 188.822 153.823 196.798 153.823 196.798Z" fill="black"/>
<path d="M110.975 193.891L122.892 203.829C124.754 205.38 127.064 206.292 129.483 206.432C133.187 206.65 138.969 207.183 143.167 208.479L144.915 201.183C144.915 201.183 149.93 201.362 151.004 199.662C151.635 198.658 152.338 197.701 153.107 196.798C153.107 196.798 156.735 188.342 152.616 185.747C152.616 185.747 148.049 184.358 147.107 183.105C146.165 181.852 139.81 179.571 137.84 179.704C135.87 179.836 130.049 180.151 130.049 180.151C130.049 180.151 127.764 177.556 126.736 177.824C125.708 178.093 122.122 177.824 122.122 177.824C122.122 177.824 121.137 175.293 120.152 171.667C119.167 168.04 113.303 166.744 113.303 166.744L110.975 193.891Z" fill="#565987"/>
<path opacity="0.1" d="M110.975 193.891L122.892 203.829C124.754 205.38 127.064 206.292 129.483 206.432C133.187 206.65 138.969 207.183 143.167 208.479L144.915 201.183C144.915 201.183 149.93 201.362 151.004 199.662C151.635 198.658 152.338 197.701 153.107 196.798C153.107 196.798 156.735 188.342 152.616 185.747C152.616 185.747 148.049 184.358 147.107 183.105C146.165 181.852 139.81 179.571 137.84 179.704C135.87 179.836 130.049 180.151 130.049 180.151C130.049 180.151 127.764 177.556 126.736 177.824C125.708 178.093 122.122 177.824 122.122 177.824C122.122 177.824 121.137 175.293 120.152 171.667C119.167 168.04 113.303 166.744 113.303 166.744L110.975 193.891Z" fill="black"/>
<path d="M105.645 104.793L104.327 105.04H104.244L104.051 105.076L101.794 105.494L101.099 106.318L101.071 106.346L98.839 108.989L96.9585 110.832L96.9405 110.854L95.3501 112.4L92.66 115.074L92.2087 116.188L91.2272 118.654L90.9729 119.281L88.2864 122.145L86.5706 125.814L82.5587 128.141L78.2423 125.904L76.2722 123.04L76.72 118.937L76.8095 118.117L78.1241 116.009L79.3169 114.09L81.6453 110.778L86.1228 107.736L86.9252 107.524L87.8243 107.288C87.893 107.19 87.9564 107.088 88.0141 106.984C88.0899 106.858 88.1581 106.728 88.2183 106.594C89.2248 104.424 88.8702 101.199 88.1896 98.3381C87.668 96.1983 86.9769 94.1034 86.1228 92.0732L97.9435 90.3727C97.9435 90.3727 97.8289 92.6639 97.8289 96.2367C97.8289 97.1317 97.8289 98.1018 97.854 99.14C97.9113 102.362 100.906 103.758 103.166 104.352C103.748 104.507 104.339 104.627 104.936 104.71C105.373 104.778 105.645 104.793 105.645 104.793Z" fill="#CC818C"/>
<path d="M87.0183 106.483C87.0183 106.483 87.5556 104.335 83.2572 98.8751C78.9587 93.4156 78.1528 84.3762 78.1528 84.3762C78.1528 84.3762 77.0781 79.7223 78.1528 78.3798C79.2274 77.0373 81.0184 62.2699 81.0184 62.2699L83.9736 53.9465C83.9736 53.9465 98.3912 39.2686 92.3913 37.4786C88.315 36.2615 83.4363 42.53 80.7533 46.6684C79.4281 48.702 78.5717 51.0046 78.2459 53.4095L70.0932 75.6948C70.0932 75.6948 69.2872 78.3798 70.0932 83.0337C70.8991 87.6877 72.6902 95.9216 72.6902 95.9216L77.2573 107.478C77.2573 107.478 79.6608 114.673 78.4143 115.551L81.1975 111.437L87.0183 106.483Z" fill="#CC818C"/>
<path d="M158.39 127.078C158.39 127.078 156.778 131.374 153.465 131.016C150.152 130.658 134.212 126.094 134.212 126.094C134.212 126.094 127.585 122.782 124.988 122.872C122.391 122.961 110.481 117.412 110.481 117.412C110.481 117.412 109.642 118.515 108.708 119.675C107.69 120.946 106.558 122.288 106.272 122.335C105.734 122.424 97.4062 123.588 97.4062 123.588L91.7645 120.992L91.2272 118.654L90.9729 117.58L92.223 116.188L93.8672 114.358L96.9513 110.843L96.9692 110.821L101.085 106.35L101.114 106.321L103.75 105.247L104.259 105.04H104.341C104.656 104.986 105.867 104.875 107.49 105.792C108.62 106.431 109.874 106.819 111.168 106.93C113.744 107.114 116.183 108.158 118.092 109.894L131.346 116.864L152.211 124.382C152.211 124.382 154.002 114.09 157.047 116.327C160.092 118.565 158.39 127.078 158.39 127.078Z" fill="#CC818C"/>
<path opacity="0.1" d="M108.708 119.675C107.69 120.946 106.558 122.288 106.272 122.335C105.734 122.424 97.4062 123.588 97.4062 123.588L91.7645 120.992L91.2272 118.654L90.9729 119.281L88.2864 122.145L86.5706 125.814L82.5587 128.141L78.2423 125.904L76.2722 123.04L76.72 118.937C76.9456 118.45 77.5618 117.126 78.1241 116.009C78.3898 115.393 78.7239 114.81 79.1199 114.269C79.4781 114.033 79.8542 111.495 79.8542 111.495C81.4805 106.808 86.9288 106.089 86.9288 106.089L87.7992 106.905L88.1789 107.299C88.0249 107.274 88.2075 106.941 88.0105 106.995C87.6953 107.084 87.5556 107.56 87.1508 107.821C84.9479 109.253 81.5056 112.594 80.1444 114.18C79.8148 114.563 79.4746 114.938 79.1271 115.304C77.1606 117.384 77.5223 120.14 77.5223 120.14C77.0316 122.288 81.373 123.899 81.373 123.899C82.5838 121.887 90.7759 116.338 90.7759 116.338L96.2922 110.163C97.9829 107.22 101.307 105.276 103.163 104.367C103.983 103.966 104.52 103.765 104.52 103.765L106.583 104.646C106.039 104.5 105.462 104.525 104.932 104.718C104.628 104.812 104.332 104.932 104.047 105.076C103.94 105.129 103.832 105.187 103.732 105.247C103.168 105.575 102.637 105.957 102.149 106.389L97.5137 111.448C93.971 115.311 96.6396 121.558 101.88 121.647H101.927C105.129 122.385 107.425 120.903 108.708 119.675Z" fill="black"/>
<path opacity="0.1" d="M99.6879 233.267C99.6879 233.267 99.0253 235.315 98.1119 238.082C94.6086 238.343 88.8236 236.99 86.592 236.417L87.0649 234.03L99.6879 233.267Z" fill="black"/>
<path d="M88.1824 107.299L87.0362 106.125C87.0362 106.125 82.8989 106.69 80.3306 111.108C80.3306 111.108 79.1306 114.419 78.7617 114.656C78.3927 114.892 76.2722 119.521 76.2722 119.521C76.2722 119.521 73.7361 127.007 75.8531 131.603C77.97 136.2 78.0632 138.316 78.0632 138.316L79.6464 145.118L80.3019 151.082L85.9902 165.133L91.2271 172.59C91.2271 172.59 90.7364 178.093 89.6618 178.855C88.5872 179.618 89.0779 183.552 89.0779 183.552L88.4081 193.891C88.4081 193.891 86.3019 196.977 86.1693 201.989C86.0368 207.001 85.2738 208.433 85.2738 208.433C85.2738 208.433 84.9156 212.639 85.9007 214.565C86.8857 216.491 84.3317 218.503 84.3317 218.503L86.5275 225.975L85.675 235.462C85.675 235.462 95.7942 238.283 99.5554 237.119C103.316 235.956 105.287 236.761 105.287 236.761L112.003 209.586L114.331 188.242C114.331 188.242 114.467 173.117 116.48 168.506C118.207 164.568 115.943 150.538 108.167 147.888C106.544 147.337 105.72 145.497 104.334 144.488C103.094 143.589 101.071 141.466 102.063 137.628C103.453 132.258 106.945 123.802 106.945 123.802L109.531 118.654C109.531 118.654 106.719 123.201 101.572 122.038H101.525C96.285 121.944 93.6164 115.697 97.159 111.838L101.794 106.776C101.794 106.776 104.348 104.424 106.229 105.018L104.169 104.138C104.169 104.138 98.3697 106.286 95.9304 110.535L90.414 116.711C90.414 116.711 82.2291 122.234 81.0184 124.261C81.0184 124.261 76.6769 122.65 77.1677 120.502C77.1677 120.502 76.8095 117.742 78.7724 115.662C79.1306 115.304 79.4602 114.924 79.7897 114.541C81.5557 112.479 86.438 107.009 88.1824 107.299Z" fill="#565987"/>
<path opacity="0.1" d="M88.8559 144.172C88.8559 144.172 87.5556 153.616 88.5406 155.539L88.8559 144.172Z" fill="black"/>
<path opacity="0.1" d="M89.7048 147.842L91.0947 153.258C91.0947 153.258 91.5854 149.947 89.7048 147.842Z" fill="black"/>
<path opacity="0.1" d="M81.4662 146.578C81.4662 146.578 84.2423 160.361 87.287 164.525L81.4662 146.578Z" fill="black"/>
<path opacity="0.1" d="M101.035 163.193C101.035 163.193 96.2886 167.668 94.451 167.342C94.451 167.342 101.751 167.657 104.033 163.809C104.033 163.819 102.557 162.745 101.035 163.193Z" fill="black"/>
<path opacity="0.1" d="M107.615 162.835C107.615 162.835 101.526 167.263 100.318 167.668C100.318 167.668 106.899 165.788 107.615 162.835Z" fill="black"/>
<path opacity="0.1" d="M87.0183 129.942C87.0183 129.942 83.9735 133.837 82.4512 133.39C82.4512 133.39 86.1693 133.522 87.0183 129.942Z" fill="black"/>
<path opacity="0.1" d="M90.4678 134.954C90.4678 134.954 97.0945 125.961 100.229 126.319C100.229 126.319 92.7065 132.853 90.4678 134.954Z" fill="black"/>
<path opacity="0.1" d="M99.6449 131.682C99.6449 131.682 95.4361 133.79 95.8838 134.406C96.3316 135.022 99.6449 131.682 99.6449 131.682Z" fill="black"/>
<path opacity="0.1" d="M102.69 200.736C102.69 200.736 88.6302 208.927 87.3335 209.328C87.3335 209.328 89.7514 211.164 92.0331 210.269C94.3149 209.374 102.69 200.736 102.69 200.736Z" fill="black"/>
<path opacity="0.1" d="M90.9155 217.787C90.9155 217.787 85.2738 217.204 85.4959 219.04C85.718 220.877 90.9155 217.787 90.9155 217.787Z" fill="black"/>
<path opacity="0.1" d="M97.9435 90.3727C97.9435 90.3727 97.8289 92.6639 97.8289 96.2367C96.5025 97.323 94.9373 98.0796 93.2617 98.4442C91.5861 98.8089 89.8479 98.7713 88.1896 98.3345C87.668 96.1947 86.9769 94.0998 86.1228 92.0696L97.9435 90.3727Z" fill="black"/>
<path d="M90.9586 97.9945C96.9429 97.9945 101.794 93.146 101.794 87.1651C101.794 81.1842 96.9429 76.3357 90.9586 76.3357C84.9742 76.3357 80.1229 81.1842 80.1229 87.1651C80.1229 93.146 84.9742 97.9945 90.9586 97.9945Z" fill="#CC818C"/>
<path opacity="0.1" d="M93.799 93.7737C94.1035 98.2021 95.0348 103.268 98.882 105.495C101.662 107.102 105.165 106.679 108.242 105.763C111.319 104.847 114.331 103.479 117.534 103.325C119.994 103.207 122.427 103.812 124.88 103.966C127.334 104.12 130.021 103.737 131.772 102.011C134.28 99.5553 133.821 95.0911 131.446 92.51C129.071 89.9288 125.357 88.9909 121.839 89.0875C117.541 89.2057 112.741 90.5195 109.341 87.9133C107.06 86.1591 106.196 83.1161 104.276 80.9717C101.071 77.3918 86.8929 72.2223 83.8911 78.0576C82.4834 80.7892 88.8809 82.7402 90.3639 84.7164C92.7065 87.8345 93.5196 89.6854 93.799 93.7737Z" fill="black"/>
<path d="M94.1322 93.3906C94.4402 97.8226 95.368 102.888 99.2151 105.111C101.995 106.719 105.498 106.296 108.575 105.384C111.652 104.471 114.664 103.1 117.87 102.946C120.328 102.827 122.76 103.429 125.217 103.586C127.674 103.744 130.354 103.357 132.105 101.632C134.613 99.1723 134.154 94.7116 131.779 92.1305C129.404 89.5493 125.69 88.6114 122.176 88.708C117.877 88.8226 113.074 90.14 109.675 87.5302C107.393 85.776 106.53 82.7367 104.61 80.5887C101.404 77.0087 87.226 71.8428 84.2243 77.6782C82.8165 80.4061 89.214 82.3572 90.7006 84.3369C93.0396 87.4515 93.8528 89.2987 94.1322 93.3906Z" fill="#663D5B"/>
<path opacity="0.1" d="M81.1008 123.895C81.2671 122.483 81.733 121.121 82.4674 119.903C83.2018 118.684 84.1879 117.636 85.3599 116.829" fill="black"/>
<path opacity="0.1" d="M121.728 179.972C121.695 180.323 121.609 180.667 121.474 180.992C121.004 182.398 120.44 183.77 119.783 185.099C120.739 185.016 121.528 184.264 121.932 183.398C122.286 182.507 122.481 181.561 122.509 180.602C122.544 180.303 122.553 180.001 122.534 179.7C122.509 179.421 122.33 178.354 121.868 178.544C121.495 178.701 121.735 179.689 121.728 179.972Z" fill="black"/>
<path opacity="0.1" d="M132.75 100.511C130.995 102.237 128.315 102.623 125.858 102.466C123.401 102.308 120.958 101.707 118.511 101.829C115.288 101.982 112.3 103.35 109.22 104.266C106.139 105.183 102.639 105.605 99.8563 103.998C96.0127 101.771 95.0814 96.7056 94.7769 92.2772C94.4975 88.1889 93.6808 86.338 91.3418 83.2198C89.9269 81.3332 84.0523 79.4716 84.7258 76.937C84.5311 77.1656 84.3629 77.4154 84.2243 77.6816C82.8165 80.4096 89.214 82.3607 90.7006 84.3404C93.0396 87.455 93.8528 89.3094 94.1322 93.3941C94.4402 97.8261 95.368 102.892 99.2151 105.115C101.995 106.722 105.498 106.3 108.575 105.387C111.652 104.474 114.664 103.103 117.87 102.949C120.328 102.831 122.76 103.432 125.217 103.59C127.674 103.747 130.354 103.361 132.105 101.635C132.603 101.142 132.998 100.556 133.269 99.9097C133.112 100.123 132.938 100.324 132.75 100.511Z" fill="black"/>
<path d="M80.3235 133.064L79.0089 135.928L83.1891 135.094L80.3235 133.064Z" fill="#CC818C"/>
<path opacity="0.1" d="M80.3235 133.064L79.2417 135.928H79.0089L80.3235 133.064Z" fill="black"/>
<path opacity="0.1" d="M183.765 263.056C191.876 263.056 198.452 262.154 198.452 261.04C198.452 259.927 191.876 259.025 183.765 259.025C175.654 259.025 169.079 259.927 169.079 261.04C169.079 262.154 175.654 263.056 183.765 263.056Z" fill="#005C29"/>
<path opacity="0.1" d="M240.021 268.755C248.132 268.755 254.707 267.853 254.707 266.74C254.707 265.627 248.132 264.724 240.021 264.724C231.91 264.724 225.335 265.627 225.335 266.74C225.335 267.853 231.91 268.755 240.021 268.755Z" fill="#005C29"/>
<path opacity="0.1" d="M306.285 261.04C314.396 261.04 320.972 260.138 320.972 259.025C320.972 257.912 314.396 257.009 306.285 257.009C298.174 257.009 291.599 257.912 291.599 259.025C291.599 260.138 298.174 261.04 306.285 261.04Z" fill="#005C29"/>
<path opacity="0.1" d="M217.505 284.403C223.269 284.403 227.943 283.762 227.943 282.971C227.943 282.18 223.269 281.539 217.505 281.539C211.74 281.539 207.067 282.18 207.067 282.971C207.067 283.762 211.74 284.403 217.505 284.403Z" fill="#005C29"/>
<path opacity="0.1" d="M275.892 282.971C281.656 282.971 286.33 282.33 286.33 281.539C286.33 280.749 281.656 280.107 275.892 280.107C270.127 280.107 265.454 280.749 265.454 281.539C265.454 282.33 270.127 282.971 275.892 282.971Z" fill="#005C29"/>
<path d="M240.34 266.289C240.34 266.289 219.743 198.806 243.564 171.778C261.381 151.558 281.609 153.978 290.668 156.477C293.012 157.101 295.192 158.226 297.057 159.776C298.923 161.326 300.429 163.263 301.471 165.452C304.637 172.282 304.068 183.352 281.713 196.3C244.28 217.959 241.952 247.673 241.952 247.673L240.34 266.289Z" fill="#005C29"/>
<path d="M287.444 166.05C287.444 166.05 226.728 185.023 240.34 266.289" stroke="#565987" stroke-miterlimit="10"/>
<path d="M251.982 172.852C251.982 172.852 260.338 178.483 257.684 186.942" stroke="#565987" stroke-miterlimit="10"/>
<path d="M281.354 177.864C281.354 177.864 276.243 172.665 270.021 175.533" stroke="#565987" stroke-miterlimit="10"/>
<path d="M257.355 203.997C257.355 203.997 248.378 199.444 246.057 205.146" stroke="#565987" stroke-miterlimit="10"/>
<path d="M235.146 213.484C235.146 213.484 241.884 212.947 242.006 216.169" stroke="#565987" stroke-miterlimit="10"/>
<path d="M239.523 266.826C239.523 266.826 263.645 217.78 270.271 218.854C273.42 219.363 274.871 222.459 275.526 225.567C276.336 229.589 275.87 233.764 274.194 237.509C270.773 245.353 261.578 260.256 239.523 266.826Z" fill="#005C29"/>
<path d="M270.074 228.162C270.074 228.162 244.757 264.857 239.864 266.468" stroke="#565987" stroke-miterlimit="10"/>
<path d="M272.403 233.89H266.492" stroke="#565987" stroke-miterlimit="10"/>
<path d="M265.325 247.315L256.062 247.712" stroke="#565987" stroke-miterlimit="10"/>
<path d="M259.687 236.575L260.693 241.397" stroke="#565987" stroke-miterlimit="10"/>
<path d="M249.836 251.253L250.015 255.635" stroke="#565987" stroke-miterlimit="10"/>
<path d="M240.24 266.826C240.24 266.826 216.118 217.78 209.491 218.854C206.343 219.363 204.892 222.459 204.237 225.567C203.416 229.585 203.869 233.76 205.533 237.509C208.954 245.353 218.149 260.256 240.24 266.826Z" fill="#005C29"/>
<path d="M209.653 228.162C209.653 228.162 234.971 264.857 239.864 266.468" stroke="#565987" stroke-miterlimit="10"/>
<path d="M207.321 233.89H213.231" stroke="#565987" stroke-miterlimit="10"/>
<path d="M214.402 247.315L223.666 247.712" stroke="#565987" stroke-miterlimit="10"/>
<path d="M220.037 236.575L219.034 241.397" stroke="#565987" stroke-miterlimit="10"/>
<path d="M229.888 251.253L229.708 255.635" stroke="#565987" stroke-miterlimit="10"/>
<path d="M281.641 278.278C282.299 277.744 282.779 277.022 283.016 276.209C283.192 275.385 282.841 274.401 282.056 274.1C281.175 273.764 280.233 274.372 279.52 274.988C278.807 275.604 277.987 276.309 277.052 276.177C277.532 275.741 277.891 275.189 278.094 274.573C278.297 273.958 278.337 273.3 278.209 272.665C278.171 272.401 278.059 272.153 277.887 271.949C277.4 271.426 276.511 271.651 275.924 272.063C274.061 273.373 273.542 275.901 273.535 278.178C273.345 277.354 273.502 276.499 273.499 275.672C273.495 274.845 273.262 273.882 272.553 273.445C272.115 273.203 271.621 273.079 271.12 273.087C270.282 273.058 269.351 273.141 268.778 273.753C268.061 274.512 268.251 275.79 268.871 276.617C269.491 277.444 270.429 277.977 271.292 278.557C271.988 278.968 272.581 279.533 273.026 280.208C273.079 280.301 273.122 280.399 273.155 280.501H278.403C279.577 279.909 280.667 279.161 281.641 278.278Z" fill="#005C29"/>
<path d="M189.733 258.527C190.391 257.992 190.869 257.269 191.105 256.455C191.284 255.631 190.933 254.665 190.145 254.346C189.264 254.009 188.325 254.618 187.609 255.237C186.892 255.857 186.076 256.555 185.144 256.426C185.624 255.988 185.982 255.433 186.184 254.816C186.385 254.199 186.423 253.54 186.294 252.903C186.254 252.64 186.143 252.392 185.972 252.187C185.481 251.665 184.596 251.887 184.009 252.298C182.146 253.608 181.627 256.136 181.616 258.413C181.43 257.593 181.588 256.737 181.584 255.907C181.58 255.076 181.348 254.117 180.635 253.677C180.195 253.44 179.701 253.324 179.202 253.34C178.367 253.308 177.432 253.39 176.863 254.002C176.146 254.765 176.336 256.039 176.952 256.866C177.568 257.693 178.511 258.227 179.377 258.807C180.071 259.22 180.662 259.784 181.108 260.457C181.161 260.551 181.204 260.651 181.236 260.754H186.488C187.664 260.16 188.756 259.411 189.733 258.527Z" fill="#005C29"/>
<path d="M220.356 278.278C221.014 277.744 221.494 277.022 221.731 276.209C221.907 275.385 221.556 274.401 220.771 274.1C219.89 273.764 218.948 274.372 218.235 274.988C217.523 275.604 216.702 276.309 215.767 276.177C216.248 275.741 216.608 275.189 216.811 274.574C217.015 273.958 217.055 273.3 216.928 272.665C216.889 272.401 216.778 272.153 216.606 271.949C216.118 271.426 215.23 271.651 214.643 272.063C212.78 273.373 212.26 275.901 212.253 278.178C212.063 277.354 212.221 276.499 212.218 275.672C212.214 274.845 211.981 273.882 211.272 273.445C210.834 273.203 210.34 273.079 209.839 273.087C209.001 273.058 208.07 273.141 207.496 273.753C206.78 274.512 206.97 275.79 207.59 276.617C208.209 277.444 209.148 277.977 210.011 278.557C210.707 278.968 211.3 279.533 211.745 280.208C211.798 280.301 211.841 280.399 211.874 280.501H217.121C218.295 279.909 219.383 279.161 220.356 278.278Z" fill="#005C29"/>
<path d="M307.224 238.351C307.224 238.351 309.194 240.921 306.317 244.795C303.441 248.668 301.07 251.954 302.019 254.375C302.019 254.375 306.36 247.164 309.899 247.064C313.439 246.964 311.125 242.686 307.224 238.351Z" fill="#005C29"/>
<path opacity="0.1" d="M307.224 238.351C307.396 238.598 307.531 238.869 307.625 239.156C311.074 243.201 312.908 246.978 309.595 247.075C306.511 247.161 302.811 252.678 301.922 254.07C301.951 254.177 301.986 254.282 302.026 254.385C302.026 254.385 306.368 247.175 309.907 247.075C313.446 246.975 311.124 242.686 307.224 238.351Z" fill="black"/>
<path d="M310.895 241.626C310.895 242.532 310.795 243.266 310.67 243.266C310.544 243.266 310.448 242.521 310.448 241.626C310.448 240.731 310.573 241.15 310.698 241.15C310.824 241.15 310.895 240.731 310.895 241.626Z" fill="#FFD037"/>
<path d="M312.153 242.707C311.357 243.141 310.662 243.402 310.605 243.295C310.548 243.187 311.139 242.743 311.934 242.31C312.729 241.877 312.418 242.192 312.475 242.31C312.532 242.428 312.955 242.274 312.153 242.707Z" fill="#FFD037"/>
<path d="M296.836 238.351C296.836 238.351 294.866 240.921 297.742 244.795C300.618 248.668 302.99 251.954 302.04 254.375C302.04 254.375 297.703 247.164 294.16 247.064C290.617 246.964 292.96 242.686 296.836 238.351Z" fill="#005C29"/>
<path opacity="0.1" d="M296.836 238.351C296.663 238.598 296.527 238.87 296.431 239.156C292.985 243.201 291.151 246.978 294.461 247.075C297.549 247.161 301.267 252.678 302.137 254.07C302.108 254.178 302.072 254.283 302.03 254.385C302.03 254.385 297.692 247.175 294.149 247.075C290.607 246.975 292.96 242.686 296.836 238.351Z" fill="black"/>
<path d="M293.186 241.626C293.186 242.532 293.29 243.266 293.415 243.266C293.54 243.266 293.641 242.532 293.641 241.626C293.641 240.721 293.515 241.15 293.39 241.15C293.264 241.15 293.186 240.731 293.186 241.626Z" fill="#FFD037"/>
<path d="M291.932 242.707C292.727 243.141 293.419 243.402 293.479 243.295C293.54 243.187 292.946 242.743 292.151 242.31C291.355 241.877 291.667 242.192 291.606 242.31C291.545 242.428 291.137 242.274 291.932 242.707Z" fill="#FFD037"/>
<path d="M293.812 254.049C293.812 254.049 299.315 253.881 300.977 252.699C302.639 251.518 309.441 250.111 309.853 252.005C310.265 253.898 318.12 261.416 311.909 261.466C305.698 261.517 297.477 260.5 295.822 259.49C294.167 258.481 293.812 254.049 293.812 254.049Z" fill="#A8A8A8"/>
<path opacity="0.2" d="M312.016 260.808C305.805 260.858 297.581 259.841 295.926 258.832C294.669 258.066 294.164 255.313 293.999 254.042H293.812C293.812 254.042 294.171 258.477 295.818 259.483C297.466 260.489 305.694 261.509 311.905 261.459C313.696 261.459 314.316 260.808 314.284 259.863C314.029 260.439 313.349 260.797 312.016 260.808Z" fill="black"/>
</g>
<defs>
<linearGradient id="paint0_linear_15_552" x1="131.898" y1="280.007" x2="131.898" y2="34.715" gradientUnits="userSpaceOnUse">
<stop stop-color="#808080" stop-opacity="0.25"/>
<stop offset="0.54" stop-color="#808080" stop-opacity="0.12"/>
<stop offset="1" stop-color="#808080" stop-opacity="0.1"/>
</linearGradient>
<clipPath id="clip0_15_552">
<rect width="368" height="286" fill="white"/>
</clipPath>
</defs>
</svg>
