<svg width="25" height="15" viewBox="0 0 25 15" fill="none" xmlns="http://www.w3.org/2000/svg">
<path d="M25 10.1914C25 12.7656 22.9492 14.6602 20.4102 14.6602C13.9297 14.6602 12.7305 4.90625 6.35938 4.90625C0.621094 4.90625 0.613281 13.1953 6.57812 13.1953C8.23828 13.1953 10.1289 12.5 11.4727 11.5352C11.6914 11.375 12.1328 10.8984 12.3633 10.8984C12.5938 10.8984 12.7891 11.0938 12.7891 11.3242C12.7891 11.6289 12.2773 12.0703 12.0586 12.2656C10.4609 13.6562 8.14062 14.6562 6.01562 14.6562C2.75781 14.6602 0 12.3516 0 8.99609C0 5.64063 2.63672 3.17188 5.96875 3.17188C13.207 3.17188 14.6602 12.7773 20.1055 12.7773C24.0078 12.7773 23.8086 7.32031 20.2383 7.32031C19.5547 7.32031 18.8711 7.77344 18.4062 7.77344C18.0781 7.77344 17.7852 7.49219 17.7852 7.16406C17.7852 6.71094 17.9922 6.23828 17.9922 5.74609C17.9922 3.14453 16.0039 1.26562 13.4258 1.26562C11.3516 1.26562 10.3008 2.70703 9.95703 2.70703C9.71484 2.70703 9.51953 2.51172 9.51953 2.26953C9.51953 2.05078 9.67969 1.86719 9.82422 1.70703C10.8125 0.582031 12.3516 0 13.8398 0C16.9414 0 19.2734 2.28125 19.2734 5.38281C19.2734 5.65234 19.2617 5.91797 19.2266 6.1875C19.6914 6.06641 20.168 6.00391 20.6289 6.00391C23 6.00391 25 7.77344 25 10.1914Z" fill="#005C29"/>
</svg>
