<svg width="25" height="24" viewBox="0 0 25 24" fill="none" xmlns="http://www.w3.org/2000/svg">
<path d="M22.6562 4.6875H18.75V2.34375C18.75 1.0498 17.7002 0 16.4062 0H8.59375C7.2998 0 6.25 1.0498 6.25 2.34375V4.6875H2.34375C1.0498 4.6875 0 5.7373 0 7.03125V21.0938C0 22.3877 1.0498 23.4375 2.34375 23.4375H22.6562C23.9502 23.4375 25 22.3877 25 21.0938V7.03125C25 5.7373 23.9502 4.6875 22.6562 4.6875ZM9.375 3.125H15.625V4.6875H9.375V3.125ZM17.1875 15.2344C17.1875 15.4492 17.0117 15.625 16.7969 15.625H14.0625V18.3594C14.0625 18.5742 13.8867 18.75 13.6719 18.75H11.3281C11.1133 18.75 10.9375 18.5742 10.9375 18.3594V15.625H8.20312C7.98828 15.625 7.8125 15.4492 7.8125 15.2344V12.8906C7.8125 12.6758 7.98828 12.5 8.20312 12.5H10.9375V9.76562C10.9375 9.55078 11.1133 9.375 11.3281 9.375H13.6719C13.8867 9.375 14.0625 9.55078 14.0625 9.76562V12.5H16.7969C17.0117 12.5 17.1875 12.6758 17.1875 12.8906V15.2344Z" fill="#005C29"/>
</svg>
