<svg width="26" height="23" viewBox="0 0 26 23" fill="none" xmlns="http://www.w3.org/2000/svg">
<path d="M11.9488 10.8733C12.2526 11.1945 12.7474 11.1945 13.0556 10.8733L17.7821 5.91673C19.1536 4.47576 19.0755 2.08861 17.5391 0.760484C16.2023 -0.39837 14.2101 -0.190037 12.9861 1.09469L12.5 1.6025L12.0182 1.09903C10.7943 -0.190037 8.80208 -0.39837 7.46528 0.760484C5.93316 2.08861 5.85069 4.47576 7.22222 5.91673L11.9488 10.8733ZM24.5356 14.2414C24.0234 13.777 23.2248 13.8074 22.6866 14.2414L18.6762 17.4489C18.1858 17.8438 17.5738 18.0565 16.9401 18.0565H11.8056C11.4236 18.0565 11.1111 17.744 11.1111 17.362C11.1111 16.9801 11.4236 16.6676 11.8056 16.6676H15.204C15.8941 16.6676 16.5365 16.1945 16.6493 15.5131C16.7925 14.645 16.1241 13.8898 15.2778 13.8898H8.33333C7.16146 13.8898 6.02865 14.2935 5.11719 15.0313L3.09896 16.6676H0.694444C0.3125 16.6676 0 16.9801 0 17.362V21.5287C0 21.9107 0.3125 22.2232 0.694444 22.2232H16.1806C16.8099 22.2232 17.4219 22.0105 17.9167 21.6155L24.4792 16.3638C25.1389 15.8386 25.191 14.8317 24.5356 14.2414Z" fill="#005C29"/>
</svg>
