<svg width="22" height="25" viewBox="0 0 22 25" fill="none" xmlns="http://www.w3.org/2000/svg">
<path d="M2.82129 14.0625H6.84277C7.94189 15.0234 9.36328 15.625 10.9375 15.625C12.5117 15.625 13.9331 15.0234 15.0322 14.0625H19.0537C19.1869 14.0623 19.3179 14.0281 19.4341 13.9631C19.5504 13.8981 19.6481 13.8044 19.718 13.691C19.7878 13.5776 19.8275 13.4482 19.8333 13.3151C19.8391 13.1821 19.8108 13.0497 19.751 12.9307C19.0073 11.4731 18.2236 9.89209 17.6929 8.26562C17.3232 7.1333 17.1875 5.93701 17.1875 4.74609V2.34375L10.9375 0L4.6875 2.34375V4.74609C4.6875 5.93701 4.55322 7.1333 4.18311 8.26562C3.65137 9.89209 2.86768 11.4746 2.12402 12.9307C2.06425 13.0497 2.0359 13.1821 2.04168 13.3151C2.04746 13.4482 2.08716 13.5776 2.15703 13.691C2.2269 13.8044 2.32461 13.8981 2.44087 13.9631C2.55713 14.0281 2.68808 14.0623 2.82129 14.0625ZM8.98438 3.49951C8.98438 3.43476 9.0101 3.37266 9.05588 3.32688C9.10167 3.28109 9.16377 3.25537 9.22852 3.25537H10.2866V2.19727C10.2866 2.13252 10.3123 2.07042 10.3581 2.02463C10.4039 1.97885 10.466 1.95312 10.5308 1.95312H11.3442C11.409 1.95312 11.4711 1.97885 11.5169 2.02463C11.5627 2.07042 11.5884 2.13252 11.5884 2.19727V3.25537H12.6465C12.7112 3.25537 12.7733 3.28109 12.8191 3.32688C12.8649 3.37266 12.8906 3.43476 12.8906 3.49951V4.31299C12.8906 4.37774 12.8649 4.43984 12.8191 4.48562C12.7733 4.53141 12.7112 4.55713 12.6465 4.55713H11.5884V5.61523C11.5884 5.67998 11.5627 5.74208 11.5169 5.78787C11.4711 5.83365 11.409 5.85938 11.3442 5.85938H10.5308C10.466 5.85938 10.4039 5.83365 10.3581 5.78787C10.3123 5.74208 10.2866 5.67998 10.2866 5.61523V4.55713H9.22852C9.16377 4.55713 9.10167 4.53141 9.05588 4.48562C9.0101 4.43984 8.98438 4.37774 8.98438 4.31299V3.49951ZM7.03125 7.8125H14.8438V9.375C14.8438 10.411 14.4322 11.4046 13.6996 12.1371C12.9671 12.8697 11.9735 13.2812 10.9375 13.2812C9.9015 13.2812 8.90793 12.8697 8.17536 12.1371C7.4428 11.4046 7.03125 10.411 7.03125 9.375V7.8125ZM15.5962 15.625L10.9375 20.2827L6.27881 15.625C2.78809 15.7764 0 18.6328 0 22.1577C0 22.9115 0.299454 23.6345 0.832486 24.1675C1.36552 24.7005 2.08846 25 2.84229 25H19.0327C19.7865 25 20.5095 24.7005 21.0425 24.1675C21.5755 23.6345 21.875 22.9115 21.875 22.1577C21.875 18.6328 19.0869 15.7764 15.5962 15.625Z" fill="#005C29"/>
</svg>
