<svg width="22" height="25" viewBox="0 0 22 25" fill="none" xmlns="http://www.w3.org/2000/svg">
<path d="M21.679 4.69966C21.1414 2.49165 19.3787 0.692824 17.1864 0.123488C15.6146 -0.284715 14.1102 0.372511 12.8338 1.31148C12.6751 1.42818 12.494 1.49361 12.3211 1.57905L13.7039 2.46821C14.0662 2.70112 14.1717 3.18452 13.9383 3.5478C13.7205 3.88716 13.2415 4.02925 12.8587 3.78218L7.951 0.626906C6.94026 0.0971207 5.83284 -0.173875 4.68879 0.123488C2.49641 0.693312 0.733716 2.49165 0.196118 4.69966C-0.29851 6.73189 0.175611 8.64546 1.24592 10.0917C2.38655 11.6333 2.84163 13.4443 3.0179 15.3334C3.23274 17.6362 3.52229 19.9311 4.04036 22.185L4.42122 23.8427C4.57698 24.52 5.17756 25 5.86995 25C6.55207 25 7.1468 24.5336 7.31233 23.8691L8.99543 17.1103C9.21809 16.2158 10.0189 15.5888 10.9368 15.5888C11.8548 15.5888 12.6556 16.2163 12.8782 17.1103L14.5614 23.8691C14.7269 24.5336 15.3216 25 16.0037 25C16.6961 25 17.2967 24.52 17.4525 23.8427L17.8333 22.185C18.3514 19.9316 18.6405 17.6362 18.8558 15.3334C19.0321 13.4438 19.4871 11.6333 20.6278 10.0917C21.6995 8.64595 22.1737 6.73237 21.679 4.69966Z" fill="#005C29"/>
</svg>
